<svg id="pink_tape" data-name="pink tape" xmlns="http://www.w3.org/2000/svg" viewBox="0 0 131.16 81.07"><defs><style>.cls-1{fill:#e759a0;stroke-width:1.04px;}.cls-1,.cls-2,.cls-3{stroke:#231f20;stroke-miterlimit:10;}.cls-2{fill:#fff1b6;stroke-width:1.1px;}.cls-3{fill:#efa2c7;stroke-width:1.28px;}</style></defs><title>pink-left bottom</title><g id="pink-left_bottom" data-name="pink-left bottom"><path class="cls-1" d="M37.83,160.74l9.92-44.27a3.24,3.24,0,0,1,3.06-2.66h81.32V106H17.39V82.5H2.13v75a5,5,0,0,0,5,5h125v-1.76Zm-29.09-1a3,3,0,1,1,3-3A3,3,0,0,1,8.74,159.74Z" transform="translate(-1.61 -81.95)"/><rect class="cls-2" x="15.78" y="0.55" width="114.74" height="23.53"/><path class="cls-3" d="M47.75,116.47l-9.92,44.27h94.3V123.62a3,3,0,0,1,0-6v-3.81H50.81A3.24,3.24,0,0,0,47.75,116.47ZM80,137.28a3,3,0,1,1-3,3A3,3,0,0,1,80,137.28ZM53.21,150.74a3,3,0,1,1-3,3A3,3,0,0,1,53.21,150.74Z" transform="translate(-1.61 -81.95)"/><circle cx="7.14" cy="74.8" r="3"/><path d="M129.13,120.62a3,3,0,0,0,3,3v-6A3,3,0,0,0,129.13,120.62Z" transform="translate(-1.61 -81.95)"/><circle cx="51.6" cy="71.8" r="3"/><circle cx="78.42" cy="58.33" r="3"/></g></svg>