<svg id="orange_tape" data-name="orange tape" xmlns="http://www.w3.org/2000/svg" viewBox="0 0 131.13 81.07"><defs><style>.cls-1,.cls-3{fill:#b5b5b6;}.cls-1,.cls-2,.cls-3,.cls-4,.cls-5{stroke:#231f20;}.cls-1,.cls-2,.cls-3,.cls-4,.cls-5,.cls-6{stroke-miterlimit:10;}.cls-1{stroke-width:1.04px;}.cls-2{fill:#f8971d;stroke-width:1.1px;}.cls-3{stroke-width:1.22px;}.cls-4{fill:#f89721;stroke-width:1.29px;}.cls-6{stroke:#fff;stroke-width:0.1px;}</style></defs><title>orange-right top</title><g id="orange-right_top" data-name="orange-right top"><path class="cls-1" d="M246.87,11V82.5h15.26V7.5a5,5,0,0,0-5-5h-125V11Zm8.64-6a3,3,0,1,1-3,3A3,3,0,0,1,255.51,5Z" transform="translate(-131.52 -1.98)"/><path class="cls-2" d="M132.13,11V31.52H186a25.08,25.08,0,0,1,25,25h0a25.08,25.08,0,0,1-25,25H132.13v1H246.87V11Z" transform="translate(-131.52 -1.98)"/><path class="cls-3" d="M132.13,43.54H155.5v26H132.13v12H186a25.08,25.08,0,0,0,25-25h0a25.08,25.08,0,0,0-25-25H132.13Zm69.34,13A16.5,16.5,0,1,1,185,40,16.5,16.5,0,0,1,201.47,56.53Z" transform="translate(-131.52 -1.98)"/><path class="cls-4" d="M185,40a16.5,16.5,0,1,0,16.5,16.5A16.5,16.5,0,0,0,185,40Zm10.92,21.62-2.28.34a2.2,2.2,0,0,0-1.88,2.32l.17,2.27a2.22,2.22,0,0,1-3.72,1.76l-1.7-1.56a2.25,2.25,0,0,0-3,0l-1.69,1.54A2.24,2.24,0,0,1,178,66.52l.17-2.27a2.23,2.23,0,0,0-1.88-2.34l-2.28-.35a2.2,2.2,0,0,1-.93-4L175,56.3a2.18,2.18,0,0,0,.67-2.91l-1.15-2a2.2,2.2,0,0,1,2.58-3.18l2.21.68a2.23,2.23,0,0,0,2.72-1.28l.84-2.12a2.24,2.24,0,0,1,4.14,0l.85,2.12A2.24,2.24,0,0,0,190.6,49l2.2-.66a2.21,2.21,0,0,1,2.58,3.2l-1.15,2a2.19,2.19,0,0,0,.68,2.91l1.9,1.3A2.18,2.18,0,0,1,195.89,61.65Z" transform="translate(-131.52 -1.98)"/><circle cx="123.99" cy="6.05" r="3"/><path class="cls-5" d="M194.91,56.38a2.19,2.19,0,0,1-.68-2.91l1.15-2a2.21,2.21,0,0,0-2.58-3.2l-2.2.66a2.24,2.24,0,0,1-2.72-1.31L187,45.53a2.24,2.24,0,0,0-4.14,0l-.84,2.12a2.23,2.23,0,0,1-2.72,1.28l-2.21-.68a2.2,2.2,0,0,0-2.58,3.18l1.15,2A2.18,2.18,0,0,1,175,56.3l-1.9,1.27a2.2,2.2,0,0,0,.93,4l2.28.35a2.23,2.23,0,0,1,1.88,2.34L178,66.52a2.24,2.24,0,0,0,3.73,1.79l1.69-1.54a2.25,2.25,0,0,1,3,0l1.7,1.56a2.22,2.22,0,0,0,3.72-1.76l-.17-2.27A2.2,2.2,0,0,1,193.61,62l2.28-.34a2.18,2.18,0,0,0,.92-4Z" transform="translate(-131.52 -1.98)"/><path d="M132.22,56.53a31.32,31.32,0,0,1,2.81-13h-2.9v26H135A31.29,31.29,0,0,1,132.22,56.53Z" transform="translate(-131.52 -1.98)"/><path class="cls-6" d="M135,69.52h6.17a25.92,25.92,0,0,1,0-26H135a31.43,31.43,0,0,0,0,26Z" transform="translate(-131.52 -1.98)"/><path class="cls-6" d="M141.2,69.52h7.71a19.64,19.64,0,0,1,0-26H141.2a25.92,25.92,0,0,0,0,26Z" transform="translate(-131.52 -1.98)"/><path class="cls-6" d="M148.91,69.52h6.59v-3.4a12.58,12.58,0,0,1,0-19.17V43.54h-6.59a19.64,19.64,0,0,0,0,26Z" transform="translate(-131.52 -1.98)"/><path class="cls-6" d="M151.07,56.53a12.59,12.59,0,0,0,4.43,9.59V47A12.55,12.55,0,0,0,151.07,56.53Z" transform="translate(-131.52 -1.98)"/></g></svg>