<svg id="Layer_2" data-name="Layer 2" xmlns="http://www.w3.org/2000/svg" xmlns:xlink="http://www.w3.org/1999/xlink" viewBox="0 0 1938.5 1080"><defs><style>.cls-1{fill:url(#linear-gradient);}.cls-2{fill:url(#New_Gradient_Swatch_1);}.cls-3{fill:none;}.cls-4{fill:#a25ed3;opacity:0.8;}</style><linearGradient id="linear-gradient" x1="969.25" y1="700" x2="969.25" gradientUnits="userSpaceOnUse"><stop offset="0" stop-color="#3f0048"/><stop offset="1" stop-color="#220021"/></linearGradient><linearGradient id="New_Gradient_Swatch_1" x1="960" y1="75" x2="960" y2="925" gradientUnits="userSpaceOnUse"><stop offset="0" stop-color="#de58fd"/><stop offset="1" stop-color="#ff8085"/></linearGradient></defs><title>background</title><rect id="sky" class="cls-1" x="7.75" width="1923" height="700"/><g id="moon"><path class="cls-2" d="M520,500q0,8,.31,16h879.38q.3-8,.31-16,0-9.56-.44-19H520.44Q520,490.45,520,500Z" transform="translate(9.25)"/><path class="cls-2" d="M531.76,598h856.48q4.21-17.24,7-35H524.81Q527.54,580.75,531.76,598Z" transform="translate(9.25)"/><path class="cls-2" d="M523.93,557h872.14q2.4-17.29,3.35-35H520.58Q521.51,539.7,523.93,557Z" transform="translate(9.25)"/><path class="cls-2" d="M520.76,475h878.48q-1.07-17.7-3.59-35H524.35Q521.83,457.28,520.76,475Z" transform="translate(9.25)"/><path class="cls-2" d="M547.42,352h825.16q-6.88-17.89-15.35-35H562.77Q554.33,334.1,547.42,352Z" transform="translate(9.25)"/><path class="cls-2" d="M534.07,393h851.86q-4.79-17.82-11.09-35H545.16Q538.86,375.17,534.07,393Z" transform="translate(9.25)"/><path class="cls-2" d="M525.28,434h869.44q-2.87-17.75-7.22-35h-855Q528.15,416.24,525.28,434Z" transform="translate(9.25)"/><path class="cls-2" d="M960,925a452,452,0,0,0,172.72-34H787.28A452,452,0,0,0,960,925Z" transform="translate(9.25)"/><path class="cls-2" d="M701.57,844h516.86a438.25,438.25,0,0,0,43.65-35H657.92A438.25,438.25,0,0,0,701.57,844Z" transform="translate(9.25)"/><path class="cls-2" d="M544.08,639h831.84q6.15-17.18,10.8-35H533.28Q537.92,621.81,544.08,639Z" transform="translate(9.25)"/><path class="cls-2" d="M565.79,311h788.42q-9.27-18-20.22-35H586Q575.09,293,565.79,311Z" transform="translate(9.25)"/><path class="cls-2" d="M773.41,885h373.18a443.92,443.92,0,0,0,63.07-35H710.34A443.92,443.92,0,0,0,773.41,885Z" transform="translate(9.25)"/><path class="cls-2" d="M561.3,680h797.4q8.29-17.1,15-35H546.28Q553,662.88,561.3,680Z" transform="translate(9.25)"/><path class="cls-2" d="M584.1,721h751.8q10.74-17,19.83-35H564.27Q573.36,704,584.1,721Z" transform="translate(9.25)"/><path class="cls-2" d="M651.47,803h617.06a434.08,434.08,0,0,0,33-35h-683A434.08,434.08,0,0,0,651.47,803Z" transform="translate(9.25)"/><path class="cls-2" d="M613.53,762h692.94A429.19,429.19,0,0,0,1332,727H588A429.19,429.19,0,0,0,613.53,762Z" transform="translate(9.25)"/><path class="cls-2" d="M960,75a452.26,452.26,0,0,0-165.26,31h330.52A452.26,452.26,0,0,0,960,75Z" transform="translate(9.25)"/><path class="cls-2" d="M589.94,270h740.12A426.82,426.82,0,0,0,1304,235H616A426.82,426.82,0,0,0,589.94,270Z" transform="translate(9.25)"/><path class="cls-2" d="M621.05,229H1299a433.6,433.6,0,0,0-33.61-35H654.66A433.6,433.6,0,0,0,621.05,229Z" transform="translate(9.25)"/><path class="cls-2" d="M661.24,188h597.52a439.91,439.91,0,0,0-44.65-35H705.89A439.91,439.91,0,0,0,661.24,188Z" transform="translate(9.25)"/><path class="cls-2" d="M780.19,112a443.1,443.1,0,0,0-65.29,35h490.2a443.1,443.1,0,0,0-65.29-35Z" transform="translate(9.25)"/></g><rect id="bottom_bg" data-name="bottom bg" x="9.25" y="698" width="1920" height="382"/><g id="road"><polygon class="cls-3" points="1383.62 711.9 1393.88 714 1481.93 714 1469.81 711.9 1383.62 711.9"/><polygon class="cls-3" points="1475.44 711.9 1487.79 714 1577.26 714 1562.98 711.9 1475.44 711.9"/><polygon class="cls-3" points="1290.15 711.9 1298.19 714 1386.84 714 1377.01 711.9 1290.15 711.9"/><polygon class="cls-3" points="821.24 714 910.51 714 911.76 711.9 824.52 711.9 821.24 714"/><polygon class="cls-3" points="1655.22 711.9 1569.03 711.9 1583.63 714 1671.68 714 1655.22 711.9"/><polygon class="cls-3" points="414.62 718 508.89 718 518.59 716 426.18 716 414.62 718"/><polygon class="cls-3" points="1447.65 725 1459.38 727.4 1559.29 727.4 1545.43 725 1447.65 725"/><polygon class="cls-3" points="1571.98 729.6 1470.13 729.6 1487.97 733.25 1593.06 733.25 1571.98 729.6"/><polygon class="cls-3" points="1618.06 720 1523.06 720 1540.7 723 1638.46 723 1618.06 720"/><polygon class="cls-3" points="1213.23 718 1306.26 718 1298.94 716 1207.79 716 1213.23 718"/><polygon class="cls-3" points="702.57 723 800.52 723 805.5 720 710.36 720 702.57 723"/><polygon class="cls-3" points="715.55 718 808.82 718 812.14 716 720.74 716 715.55 718"/><polygon class="cls-3" points="615.45 718 709 718 714.44 716 622.78 716 615.45 718"/><polygon class="cls-3" points="543.88 711.9 533.86 714 623.59 714 631.62 711.9 543.88 711.9"/><polygon class="cls-3" points="1016.8 723 1115.52 723 1110.89 720 1015.05 720 1016.8 723"/><polygon class="cls-3" points="1122.2 723 1219.66 723 1211.88 720 1117.27 720 1122.2 723"/><polygon class="cls-3" points="437.73 714 528.29 714 538.48 711.9 449.87 711.9 437.73 714"/><polygon class="cls-3" points="908.53 729.6 906.71 733.25 1015.08 733.25 1013.31 729.6 908.53 729.6"/><polygon class="cls-3" points="807.2 723 905.13 723 906.92 720 811.88 720 807.2 723"/><polygon class="cls-3" points="1110.71 716 1113.99 718 1206.69 718 1201.5 716 1110.71 716"/><polygon class="cls-3" points="601.35 762 735.76 762 745.89 755.9 617.18 755.9 601.35 762"/><polygon class="cls-3" points="761.91 746.25 769.39 741.75 653.91 741.75 642.23 746.25 761.91 746.25"/><polygon class="cls-3" points="624.45 753.1 750.54 753.1 757.76 748.75 635.74 748.75 624.45 753.1"/><polygon class="cls-3" points="880.04 765 741.67 765 732.32 771 876.45 771 880.04 765"/><polygon class="cls-3" points="469.98 727.4 572.32 727.4 581.5 725 481.42 725 469.98 727.4"/><polygon class="cls-3" points="537.59 739.25 651.23 739.25 660.75 735.75 550.41 735.75 537.59 739.25"/><polygon class="cls-3" points="713.75 782.9 869.34 782.9 874.66 774 727.63 774 713.75 782.9"/><polygon class="cls-3" points="589.15 723 600.63 720 505.26 720 490.95 723 589.15 723"/><polygon class="cls-3" points="667.55 733.25 677.47 729.6 572.95 729.6 559.57 733.25 667.55 733.25"/><polygon class="cls-3" points="1191.12 765 1200.97 771 1344.25 771 1328.67 765 1191.12 765"/><polygon class="cls-3" points="1516.75 741.75 1404.46 741.75 1421.7 746.25 1537.82 746.25 1516.75 741.75"/><polygon class="cls-3" points="1445.07 755.9 1316.27 755.9 1332.85 762 1467.41 762 1445.07 755.9"/><polygon class="cls-3" points="1352.03 774 1205.89 774 1220.5 782.9 1375.13 782.9 1352.03 774"/><polygon class="cls-3" points="1296.83 748.75 1308.65 753.1 1434.82 753.1 1418.88 748.75 1296.83 748.75"/><polygon class="cls-3" points="1046.93 799.1 873.98 799.1 868.01 811.13 1052.75 811.13 1046.93 799.1"/><polygon class="cls-3" points="858.69 829.88 1061.82 829.88 1054.56 814.88 866.14 814.88 858.69 829.88"/><polygon class="cls-3" points="1053.66 786.1 1059.38 795.9 1227.84 795.9 1212.74 786.1 1053.66 786.1"/><polygon class="cls-3" points="1251.29 811.13 1232.77 799.1 1061.25 799.1 1068.28 811.13 1251.29 811.13"/><polygon class="cls-3" points="1499.55 716 1511.31 718 1604.46 718 1590.86 716 1499.55 716"/><polygon class="cls-3" points="1683.34 729.6 1579.51 729.6 1600.97 733.25 1708.16 733.25 1683.34 729.6"/><polygon class="cls-3" points="1718.69 720 1625.32 720 1646.17 723 1742.19 723 1718.69 720"/><polygon class="cls-3" points="1746.48 711.9 1661.98 711.9 1678.9 714 1764.69 714 1746.48 711.9"/><polygon class="cls-3" points="1597.52 716 1611.42 718 1703.02 718 1687.35 716 1597.52 716"/><polygon class="cls-3" points="1552.46 725 1566.57 727.4 1668.38 727.4 1652.06 725 1552.46 725"/><polygon class="cls-3" points="1582.99 755.9 1458.65 755.9 1482.01 762 1611.55 762 1582.99 755.9"/><polygon class="cls-3" points="1431.27 748.75 1447.93 753.1 1569.89 753.1 1549.52 748.75 1431.27 748.75"/><polygon class="cls-3" points="1500.19 735.75 1517.3 739.25 1627.69 739.25 1607.49 735.75 1500.19 735.75"/><polygon class="cls-3" points="1642.12 741.75 1529.52 741.75 1551.51 746.25 1668.1 746.25 1642.12 741.75"/><polygon class="cls-3" points="1010.32 711.9 1011.54 714 1101.65 714 1098.41 711.9 1010.32 711.9"/><polygon class="cls-3" points="1637.01 708.8 1647.48 710.1 1730.88 710.1 1719.61 708.8 1637.01 708.8"/><polygon class="cls-3" points="1107.43 714 1196.31 714 1190.86 711.9 1103.98 711.9 1107.43 714"/><polygon class="cls-3" points="1013.88 718 1107.81 718 1104.73 716 1012.71 716 1013.88 718"/><polygon class="cls-3" points="1341.01 765 1357.32 771 1500.38 771 1478.4 765 1341.01 765"/><polygon class="cls-3" points="1188.22 708.8 1191.75 710.1 1277.33 710.1 1272.57 708.8 1188.22 708.8"/><polygon class="cls-3" points="344.55 714 432.22 714 444.52 711.9 358.81 711.9 344.55 714"/><polygon class="cls-3" points="1202.36 714 1291.61 714 1283.92 711.9 1196.65 711.9 1202.36 714"/><polygon class="cls-3" points="1368.47 708.8 1374.82 710.1 1459.42 710.1 1451.91 708.8 1368.47 708.8"/><polygon class="cls-3" points="1278.27 708.8 1283.25 710.1 1368.58 710.1 1362.49 708.8 1278.27 708.8"/><polygon class="cls-3" points="1547.49 708.8 1556.52 710.1 1641.12 710.1 1630.94 708.8 1547.49 708.8"/><polygon class="cls-3" points="413.48 739.25 526.98 739.25 540.37 735.75 430.17 735.75 413.48 739.25"/><polygon class="cls-3" points="486.84 753.1 613.58 753.1 625.41 748.75 502.78 748.75 486.84 753.1"/><polygon class="cls-3" points="632.2 746.25 644.44 741.75 528.43 741.75 511.94 746.25 632.2 746.25"/><polygon class="cls-3" points="454.23 762 589.38 762 605.97 755.9 476.58 755.9 454.23 762"/><polygon class="cls-3" points="317.37 718 408.79 718 420.5 716 330.96 716 317.37 718"/><polygon class="cls-3" points="720.82 771 730.78 765 593.56 765 577.99 771 720.82 771"/><polygon class="cls-3" points="484.64 723 499.19 720 403.06 720 385.73 723 484.64 723"/><polygon class="cls-3" points="360.3 727.4 463.29 727.4 474.93 725 374.17 725 360.3 727.4"/><polygon class="cls-3" points="549.93 733.25 563.9 729.6 459.49 729.6 442.09 733.25 549.93 733.25"/><polygon class="cls-3" points="1257.07 814.88 1070.47 814.88 1079.23 829.88 1280.18 829.88 1257.07 814.88"/><polygon class="cls-3" points="1511.37 774 1365.47 774 1389.67 782.9 1543.96 782.9 1511.37 774"/><polygon class="cls-3" points="1417.18 799.1 1247.09 799.1 1266.82 811.13 1448.39 811.13 1417.18 799.1"/><polygon class="cls-3" points="1225.75 786.1 1241.83 795.9 1408.87 795.9 1383.44 786.1 1225.75 786.1"/><polygon class="cls-3" points="833.65 880.25 1086.19 880.25 1074.76 856.63 845.39 856.63 833.65 880.25"/><polygon class="cls-3" points="669.72 811.13 852.48 811.13 859.66 799.1 688.48 799.1 669.72 811.13"/><polygon class="cls-3" points="861.58 795.9 867.43 786.1 708.76 786.1 693.47 795.9 861.58 795.9"/><polygon class="cls-3" points="1072.83 852.63 1063.39 833.13 857.07 833.13 847.38 852.63 1072.83 852.63"/><polygon class="cls-3" points="547.1 782.9 701.06 782.9 715.84 774 570.2 774 547.1 782.9"/><polygon class="cls-3" points="1381.48 735.75 1394.89 739.25 1505.05 739.25 1488.66 735.75 1381.48 735.75"/><polygon class="cls-3" points="40.9 963.75 154.4 922 9.79 922 9.79 963.75 40.9 963.75"/><polygon class="cls-3" points="1111.43 885 1129.54 916 1412.88 916 1365.12 885 1111.43 885"/><polygon class="cls-3" points="23.23 970.25 9.79 970.25 9.79 975.19 23.23 970.25"/><polygon class="cls-3" points="292.7 1028.83 389.97 970.25 60.84 970.25 9.79 989.92 9.79 1028.83 292.7 1028.83"/><polygon class="cls-3" points="170.71 916 254.99 885 9.79 885 9.79 916 170.71 916"/><polygon class="cls-3" points="93.17 852.63 167.79 833.13 9.79 833.13 9.79 852.63 93.17 852.63"/><polygon class="cls-3" points="38.97 814.88 9.79 814.88 9.79 820.89 38.97 814.88"/><polygon class="cls-3" points="77.87 856.63 9.79 856.63 9.79 874.42 77.87 856.63"/><polygon class="cls-3" points="180.22 829.88 237.62 814.88 52.93 814.88 9.79 823.92 9.79 829.88 180.22 829.88"/><polygon class="cls-3" points="1207.81 782.9 1194.09 774 1046.59 774 1051.79 782.9 1207.81 782.9"/><polygon class="cls-3" points="1486.45 963.75 1422.12 922 1133.04 922 1157.43 963.75 1486.45 963.75"/><polygon class="cls-3" points="589.8 725 581.01 727.4 683.45 727.4 689.98 725 589.8 725"/><polygon class="cls-3" points="1041.33 765 1044.84 771 1189.47 771 1180.23 765 1041.33 765"/><polygon class="cls-3" points="783.5 733.25 789.56 729.6 685.44 729.6 675.97 733.25 783.5 733.25"/><polygon class="cls-3" points="431.61 963.75 761.3 963.75 786.24 922 496.74 922 431.61 963.75"/><polygon class="cls-3" points="808.35 885 554.46 885 506.1 916 789.83 916 808.35 885"/><polygon class="cls-3" points="913.3 720 911.81 723 1010.12 723 1008.67 720 913.3 720"/><polygon class="cls-3" points="909.62 727.4 1012.25 727.4 1011.09 725 910.81 725 909.62 727.4"/><polygon class="cls-3" points="57.52 714 78 711.9 9.79 711.9 9.79 714 57.52 714"/><polygon class="cls-3" points="18.53 718 38.03 716 9.79 716 9.79 718 18.53 718"/><polygon class="cls-3" points="44.11 739.25 71.86 735.75 9.79 735.75 9.79 739.25 44.11 739.25"/><polygon class="cls-3" points="66.06 723 93.13 720 9.79 720 9.79 723 66.06 723"/><polygon class="cls-3" points="91.69 733.25 120.63 729.6 17.03 729.6 9.79 730.42 9.79 733.25 91.69 733.25"/><polygon class="cls-3" points="524.33 716 514.79 718 608.28 718 615.94 716 524.33 716"/><polygon class="cls-3" points="57.16 811.13 115.49 799.1 9.79 799.1 9.79 811.13 57.16 811.13"/><polygon class="cls-3" points="68.43 704.25 86.08 702.6 9.79 702.6 9.79 704.25 68.43 704.25"/><polygon class="cls-3" points="36.86 707.2 52.37 705.75 9.79 705.75 9.79 707.2 36.86 707.2"/><polygon class="cls-3" points="19.73 708.8 9.79 708.8 9.79 709.73 19.73 708.8"/><polygon class="cls-3" points="896.85 753.1 1024.68 753.1 1022.58 748.75 899.01 748.75 896.85 753.1"/><polygon class="cls-3" points="9.92 786.1 9.79 786.1 9.79 786.12 9.92 786.1"/><polygon class="cls-3" points="28.66 782.9 80.79 774 9.79 774 9.79 782.9 28.66 782.9"/><polygon class="cls-3" points="98.36 771 133.5 765 9.79 765 9.79 771 98.36 771"/><polygon class="cls-3" points="131.01 795.9 178.55 786.1 21.1 786.1 9.79 788.06 9.79 795.9 131.01 795.9"/><polygon class="cls-3" points="117.98 746.25 148.85 741.75 32.5 741.75 9.79 744.65 9.79 746.25 117.98 746.25"/><polygon class="cls-3" points="9.95 762 51.79 755.9 9.79 755.9 9.79 762 9.95 762"/><polygon class="cls-3" points="24.28 741.75 9.79 741.75 9.79 743.58 24.28 741.75"/><polygon class="cls-3" points="70.99 753.1 100.83 748.75 9.79 748.75 9.79 753.1 70.99 753.1"/><polygon class="cls-3" points="26.37 727.4 48.02 725 9.79 725 9.79 727.4 26.37 727.4"/><polygon class="cls-3" points="1340.32 725 1349.51 727.4 1449.57 727.4 1438.34 725 1340.32 725"/><polygon class="cls-3" points="1516.57 720 1423.21 720 1437.88 723 1533.89 723 1516.57 720"/><polygon class="cls-3" points="1459.87 729.6 1357.93 729.6 1371.91 733.25 1476.96 733.25 1459.87 729.6"/><polygon class="cls-3" points="1403.66 716 1413.44 718 1505.02 718 1493.48 716 1403.66 716"/><polygon class="cls-3" points="1261.49 735.75 1271 739.25 1384.09 739.25 1371.27 735.75 1261.49 735.75"/><polygon class="cls-3" points="1305.06 755.9 1176.19 755.9 1186.2 762 1320.89 762 1305.06 755.9"/><polygon class="cls-3" points="1164.45 748.75 1171.59 753.1 1297.79 753.1 1286.5 748.75 1164.45 748.75"/><polygon class="cls-3" points="1305.85 716 1313.51 718 1405.57 718 1396.2 716 1305.85 716"/><polygon class="cls-3" points="1393.25 741.75 1277.8 741.75 1290.03 746.25 1409.73 746.25 1393.25 741.75"/><polygon class="cls-3" points="800.34 727.4 902.5 727.4 903.93 725 804.08 725 800.34 727.4"/><polygon class="cls-3" points="791.21 733.25 899 733.25 901.19 729.6 796.9 729.6 791.21 733.25"/><polygon class="cls-3" points="691.15 727.4 793.21 727.4 797.2 725 697.38 725 691.15 727.4"/><polygon class="cls-3" points="1226.82 723 1324.57 723 1313.59 720 1218.67 720 1226.82 723"/><polygon class="cls-3" points="608.12 720 597.13 723 695.41 723 703.57 720 608.12 720"/><polygon class="cls-3" points="1045.38 795.9 1040.64 786.1 880.44 786.1 875.57 795.9 1045.38 795.9"/><polygon class="cls-3" points="1129.42 727.4 1231.09 727.4 1224.86 725 1125.48 725 1129.42 727.4"/><polygon class="cls-3" points="1022.79 733.25 1131.31 733.25 1125.68 729.6 1020.65 729.6 1022.79 733.25"/><polygon class="cls-3" points="905.47 735.75 903.73 739.25 1017.98 739.25 1016.29 735.75 905.47 735.75"/><polygon class="cls-3" points="1017.97 725 1019.37 727.4 1122.3 727.4 1118.6 725 1017.97 725"/><polygon class="cls-3" points="1151.34 746.25 1144.4 741.75 1027.75 741.75 1030.38 746.25 1151.34 746.25"/><polygon class="cls-3" points="1268.33 741.75 1152.97 741.75 1160.35 746.25 1280.01 746.25 1268.33 741.75"/><polygon class="cls-3" points="882.03 782.9 1039.1 782.9 1034.79 774 886.46 774 882.03 782.9"/><polygon class="cls-3" points="887.95 771 1033.34 771 1030.44 765 890.93 765 887.95 771"/><polygon class="cls-3" points="1031.84 748.75 1034.38 753.1 1161.89 753.1 1155.19 748.75 1031.84 748.75"/><polygon class="cls-3" points="1175.61 762 1166.21 755.9 1036.02 755.9 1039.58 762 1175.61 762"/><polygon class="cls-3" points="1414.93 720 1321.17 720 1332.66 723 1428.97 723 1414.93 720"/><polygon class="cls-3" points="902.49 741.75 900.25 746.25 1021.37 746.25 1019.19 741.75 902.49 741.75"/><polygon class="cls-3" points="1238.79 727.4 1340.69 727.4 1331.9 725 1232.26 725 1238.79 727.4"/><polygon class="cls-3" points="895.46 755.9 892.42 762 1028.99 762 1026.04 755.9 895.46 755.9"/><polygon class="cls-3" points="760.24 753.1 887.15 753.1 889.75 748.75 767.03 748.75 760.24 753.1"/><polygon class="cls-3" points="781.85 739.25 895.42 739.25 897.51 735.75 787.31 735.75 781.85 739.25"/><polygon class="cls-3" points="893.93 741.75 777.95 741.75 770.93 746.25 891.24 746.25 893.93 741.75"/><polygon class="cls-3" points="660.39 739.25 773.54 739.25 779.35 735.75 669.48 735.75 660.39 739.25"/><polygon class="cls-3" points="746.36 762 881.83 762 885.47 755.9 755.87 755.9 746.36 762"/><polygon class="cls-3" points="1348.75 729.6 1244.77 729.6 1254.69 733.25 1362.12 733.25 1348.75 729.6"/><polygon class="cls-3" points="1026.29 739.25 1140.55 739.25 1135.16 735.75 1024.25 735.75 1026.29 739.25"/><polygon class="cls-3" points="1143.12 735.75 1148.86 739.25 1261.84 739.25 1252.76 735.75 1143.12 735.75"/><polygon class="cls-3" points="1139.02 733.25 1246.27 733.25 1236.8 729.6 1133.03 729.6 1139.02 733.25"/><polygon class="cls-3" points="1457.21 708.8 1464.86 710.1 1550.74 710.1 1541.9 708.8 1457.21 708.8"/><polygon class="cls-3" points="1850.49 704.25 1834.48 702.6 1755.36 702.6 1772.22 704.25 1850.49 704.25"/><polygon class="cls-3" points="1791.04 716 1809.01 718 1900.39 718 1880.93 716 1791.04 716"/><polygon class="cls-3" points="1680.16 704.25 1665.86 702.6 1587.07 702.6 1600.36 704.25 1680.16 704.25"/><polygon class="cls-3" points="1595.29 704.25 1582.36 702.6 1504.4 702.6 1515.87 704.25 1595.29 704.25"/><polygon class="cls-3" points="1831.99 710.1 1907.23 710.1 1894.62 708.8 1818.71 708.8 1831.99 710.1"/><polygon class="cls-3" points="1932.71 704.25 1916.54 702.6 1839.56 702.6 1856.96 704.25 1932.71 704.25"/><polygon class="cls-3" points="1510.96 704.25 1499.74 702.6 1420.76 702.6 1430.46 704.25 1510.96 704.25"/><polygon class="cls-3" points="1787.55 705.75 1802.36 707.2 1879.1 707.2 1865.04 705.75 1787.55 705.75"/><polygon class="cls-3" points="917.32 702.6 839.02 702.6 836.45 704.25 916.33 704.25 917.32 702.6"/><polygon class="cls-3" points="1000.25 702.6 921.95 702.6 921.13 704.25 1001.05 704.25 1000.25 702.6"/><polygon class="cls-3" points="1001.77 705.75 920.38 705.75 919.66 707.2 1002.48 707.2 1001.77 705.75"/><polygon class="cls-3" points="1003.25 708.8 918.87 708.8 918.22 710.1 1003.88 710.1 1003.25 708.8"/><polygon class="cls-3" points="1005.77 714 1004.75 711.9 917.33 711.9 916.28 714 1005.77 714"/><polygon class="cls-3" points="1255.9 704.25 1249.86 702.6 1171.36 702.6 1175.85 704.25 1255.9 704.25"/><polygon class="cls-3" points="1425.65 704.25 1416.12 702.6 1338.16 702.6 1346.23 704.25 1425.65 704.25"/><polygon class="cls-3" points="1341.19 704.25 1333.47 702.6 1254.53 702.6 1260.85 704.25 1341.19 704.25"/><polygon class="cls-3" points="1086.63 704.25 1084.09 702.6 1004.88 702.6 1005.85 704.25 1086.63 704.25"/><polygon class="cls-3" points="1171 704.25 1166.72 702.6 1088.72 702.6 1091.42 704.25 1171 704.25"/><polygon class="cls-3" points="1766.56 704.25 1750.5 702.6 1670.62 702.6 1685.45 704.25 1766.56 704.25"/><polygon class="cls-3" points="1566.48 856.63 1341.49 856.63 1380.26 880.25 1627.8 880.25 1566.48 856.63"/><polygon class="cls-3" points="497.22 795.9 523.87 786.1 365.92 786.1 330.02 795.9 497.22 795.9"/><polygon class="cls-3" points="1574.31 786.1 1611.84 795.9 1770.26 795.9 1724.38 786.1 1574.31 786.1"/><polygon class="cls-3" points="1106.38 922 812.89 922 792.14 963.75 1126.58 963.75 1106.38 922"/><polygon class="cls-3" points="623.06 829.88 647.96 814.88 464.11 814.88 425.18 829.88 623.06 829.88"/><polygon class="cls-3" points="274.23 811.13 455.83 811.13 488.52 799.1 318.29 799.1 274.23 811.13"/><polygon class="cls-3" points="366.13 852.63 585.28 852.63 617.66 833.13 416.75 833.13 366.13 852.63"/><polygon class="cls-3" points="294.44 880.25 539.41 880.25 578.64 856.63 355.75 856.63 294.44 880.25"/><polygon class="cls-3" points="1833.97 733.25 1931.56 733.25 1899.92 729.6 1804.57 729.6 1833.97 733.25"/><polygon class="cls-3" points="1807.74 746.25 1924.35 746.25 1889.09 741.75 1776.47 741.75 1807.74 746.25"/><polygon class="cls-3" points="1734.77 735.75 1759.1 739.25 1869.51 739.25 1842.09 735.75 1734.77 735.75"/><polygon class="cls-3" points="1767.51 725 1786.84 727.4 1880.85 727.4 1860.04 725 1767.51 725"/><polygon class="cls-3" points="1730.65 782.9 1879.67 782.9 1828.29 774 1687.15 774 1730.65 782.9"/><polygon class="cls-3" points="1692.1 748.75 1717.68 753.1 1843.14 753.1 1813.56 748.75 1692.1 748.75"/><polygon class="cls-3" points="1643.16 765 1672.49 771 1810.97 771 1776.34 765 1643.16 765"/><polygon class="cls-3" points="1770.01 762 1903.66 762 1862.18 755.9 1734.14 755.9 1770.01 762"/><polygon class="cls-3" points="1302.92 833.13 1334.93 852.63 1556.1 852.63 1505.49 833.13 1302.92 833.13"/><polygon class="cls-3" points="470.09 922 186.07 922 77.72 963.75 400.76 963.75 470.09 922"/><polygon class="cls-3" points="396.02 833.13 193.62 833.13 122.17 852.63 343.01 852.63 396.02 833.13"/><polygon class="cls-3" points="445.64 814.88 260.49 814.88 205.53 829.88 404.86 829.88 445.64 814.88"/><polygon class="cls-3" points="531.52 885 282.11 885 201.65 916 480.05 916 531.52 885"/><polygon class="cls-3" points="815 718 908.12 718 909.31 716 818.12 716 815 718"/><polygon class="cls-3" points="834.39 702.6 755.52 702.6 751.24 704.25 831.65 704.25 834.39 702.6"/><polygon class="cls-3" points="280.9 765 143.03 765 108.36 771 251.8 771 280.9 765"/><polygon class="cls-3" points="347.72 786.1 190.12 786.1 143.39 795.9 310.22 795.9 347.72 786.1"/><polygon class="cls-3" points="297.98 799.1 128.14 799.1 70.81 811.13 251.96 811.13 297.98 799.1"/><polygon class="cls-3" points="237.24 774 91.02 774 39.59 782.9 194.07 782.9 237.24 774"/><polygon class="cls-3" points="330.07 1028.83 722.42 1028.83 757.41 970.25 421.47 970.25 330.07 1028.83"/><polygon class="cls-3" points="788.91 970.25 759.79 1028.83 1158.07 1028.83 1129.73 970.25 788.91 970.25"/><polygon class="cls-3" points="1161.22 970.25 1195.44 1028.83 1586.72 1028.83 1496.46 970.25 1161.22 970.25"/><polygon class="cls-3" points="186.8 755.9 59.88 755.9 18.44 762 151.07 762 186.8 755.9"/><polygon class="cls-3" points="235.21 704.25 250.09 702.6 173.35 702.6 157.6 704.25 235.21 704.25"/><polygon class="cls-3" points="137.95 705.75 58.42 705.75 43.47 707.2 123.81 707.2 137.95 705.75"/><polygon class="cls-3" points="321.66 704.25 334.75 702.6 254.79 702.6 240.26 704.25 321.66 704.25"/><polygon class="cls-3" points="168.66 702.6 90.89 702.6 73.88 704.25 152.57 704.25 168.66 702.6"/><polygon class="cls-3" points="406.07 704.25 417.39 702.6 339.37 702.6 326.44 704.25 406.07 704.25"/><polygon class="cls-3" points="746.39 704.25 750.87 702.6 671.88 702.6 665.83 704.25 746.39 704.25"/><polygon class="cls-3" points="660.89 704.25 667.21 702.6 588.22 702.6 580.35 704.25 660.89 704.25"/><polygon class="cls-3" points="489.32 704.25 498.99 702.6 422 702.6 410.79 704.25 489.32 704.25"/><polygon class="cls-3" points="575.59 704.25 583.59 702.6 503.61 702.6 494.07 704.25 575.59 704.25"/><polygon class="cls-3" points="129.21 716 45.48 716 26.39 718 111.17 718 129.21 716"/><polygon class="cls-3" points="157.11 725 57.54 725 36.41 727.4 138.08 727.4 157.11 725"/><polygon class="cls-3" points="190 735.75 79.53 735.75 52.1 739.25 165.99 739.25 190 735.75"/><polygon class="cls-3" points="232.19 729.6 127.74 729.6 99.13 733.25 207.15 733.25 232.19 729.6"/><polygon class="cls-3" points="269.68 741.75 156.02 741.75 125.44 746.25 243.32 746.25 269.68 741.75"/><polygon class="cls-3" points="108.22 708.8 26.97 708.8 13.57 710.1 95.54 710.1 108.22 708.8"/><polygon class="cls-3" points="166.2 711.9 84.6 711.9 64.56 714 147.25 714 166.2 711.9"/><polygon class="cls-3" points="196.76 720 101.57 720 75.15 723 172.97 723 196.76 720"/><polygon class="cls-3" points="228.68 748.75 108.46 748.75 78.91 753.1 203.2 753.1 228.68 748.75"/><polygon class="cls-3" points="332.13 856.63 107.51 856.63 20.95 880.25 267.9 880.25 332.13 856.63"/><polygon class="cls-3" points="1088.49 885 831.29 885 815.88 916 1103.48 916 1088.49 885"/><polygon class="cls-3" points="1357.8 880.25 1321.4 856.63 1094.85 856.63 1108.65 880.25 1357.8 880.25"/><polygon class="cls-3" points="561.88 880.25 811.18 880.25 825.3 856.63 598.73 856.63 561.88 880.25"/><polygon class="cls-3" points="1081.13 833.13 1092.52 852.63 1315.23 852.63 1285.19 833.13 1081.13 833.13"/><polygon class="cls-3" points="604.97 852.63 827.69 852.63 839.34 833.13 635.39 833.13 604.97 852.63"/><polygon class="cls-3" points="205.37 782.9 359.96 782.9 394.01 774 247.8 774 205.37 782.9"/><polygon class="cls-3" points="1458.12 814.88 1272.97 814.88 1297.59 829.88 1497.05 829.88 1458.12 814.88"/><polygon class="cls-3" points="679.47 795.9 695.74 786.1 538.8 786.1 513.36 795.9 679.47 795.9"/><polygon class="cls-3" points="841.28 829.88 850.24 814.88 663.87 814.88 640.46 829.88 841.28 829.88"/><polygon class="cls-3" points="1603.3 799.1 1433.71 799.1 1466.4 811.13 1647.34 811.13 1603.3 799.1"/><polygon class="cls-3" points="1615.67 735.75 1636.24 739.25 1748.96 739.25 1725.16 735.75 1615.67 735.75"/><polygon class="cls-3" points="1765.96 741.75 1650.94 741.75 1677.4 746.25 1796.56 746.25 1765.96 741.75"/><polygon class="cls-3" points="1793.9 729.6 1692.04 729.6 1717.4 733.25 1822.5 733.25 1793.9 729.6"/><polygon class="cls-3" points="1563.73 748.75 1584.99 753.1 1707.64 753.1 1682.53 748.75 1563.73 748.75"/><polygon class="cls-3" points="1667.73 774 1527.97 774 1562.06 782.9 1709.4 782.9 1667.73 774"/><polygon class="cls-3" points="377.65 782.9 532.57 782.9 556.76 774 410.26 774 377.65 782.9"/><polygon class="cls-3" points="1398.37 786.1 1425.01 795.9 1591.57 795.9 1555.68 786.1 1398.37 786.1"/><polygon class="cls-3" points="1493.5 765 1516.48 771 1653.69 771 1625.6 765 1493.5 765"/><polygon class="cls-3" points="1723.81 755.9 1598.68 755.9 1628.5 762 1759.02 762 1723.81 755.9"/><polygon class="cls-3" points="460.27 710.1 547.21 710.1 553.52 708.8 467.78 708.8 460.27 710.1"/><polygon class="cls-3" points="371.04 710.1 455.06 710.1 462.68 708.8 379.88 708.8 371.04 710.1"/><polygon class="cls-3" points="280.58 710.1 365.94 710.1 374.86 708.8 290.77 708.8 280.58 710.1"/><polygon class="cls-3" points="564.92 771 581.23 765 443.24 765 421.25 771 564.92 771"/><polygon class="cls-3" points="1660.07 725 1676.75 727.4 1776.66 727.4 1757.86 725 1660.07 725"/><polygon class="cls-3" points="644.4 710.1 730.48 710.1 734.02 708.8 649.16 708.8 644.4 710.1"/><polygon class="cls-3" points="552.46 710.1 638.51 710.1 643.49 708.8 558.65 708.8 552.46 710.1"/><polygon class="cls-3" points="339.19 714 353.6 711.9 266.48 711.9 250.01 714 339.19 714"/><polygon class="cls-3" points="725.93 714 815.46 714 818.95 711.9 731.38 711.9 725.93 714"/><polygon class="cls-3" points="630.11 714 719.88 714 725.59 711.9 637.8 711.9 630.11 714"/><polygon class="cls-3" points="188.75 710.1 275.27 710.1 285.58 708.8 200.19 708.8 188.75 710.1"/><polygon class="cls-3" points="291.83 739.25 405.81 739.25 422.79 735.75 312.05 735.75 291.83 739.25"/><polygon class="cls-3" points="218.66 718 311.75 718 325.47 716 234.34 716 218.66 718"/><polygon class="cls-3" points="500.19 746.25 517.41 741.75 401.56 741.75 380.11 746.25 500.19 746.25"/><polygon class="cls-3" points="305.02 762 439.93 762 463.27 755.9 334.1 755.9 305.02 762"/><polygon class="cls-3" points="347.45 753.1 473.98 753.1 490.63 748.75 368.19 748.75 347.45 753.1"/><polygon class="cls-3" points="434.92 733.25 452.62 729.6 347.59 729.6 326.5 733.25 434.92 733.25"/><polygon class="cls-3" points="379.5 723 397.07 720 303.78 720 283.4 723 379.5 723"/><polygon class="cls-3" points="253.51 727.4 353.73 727.4 367.79 725 269.81 725 253.51 727.4"/><polygon class="cls-3" points="473.85 811.13 654.19 811.13 674.16 799.1 505.06 799.1 473.85 811.13"/><polygon class="cls-3" points="129.45 707.2 208.59 707.2 221.68 705.75 143.29 705.75 129.45 707.2"/><polygon class="cls-3" points="1816.7 720 1727.23 720 1751.4 723 1842.7 723 1816.7 720"/><polygon class="cls-3" points="303.32 707.2 385.83 707.2 395.78 705.75 314.68 705.75 303.32 707.2"/><polygon class="cls-3" points="101.78 710.1 182.43 710.1 194.16 708.8 114.18 708.8 101.78 710.1"/><polygon class="cls-3" points="214.28 707.2 298.27 707.2 309.77 705.75 227.05 705.75 214.28 707.2"/><polygon class="cls-3" points="144.98 727.4 247.28 727.4 263.74 725 163.79 725 144.98 727.4"/><polygon class="cls-3" points="390.75 707.2 472.05 707.2 480.54 705.75 400.6 705.75 390.75 707.2"/><polygon class="cls-3" points="244.34 714 261 711.9 172.9 711.9 154.4 714 244.34 714"/><polygon class="cls-3" points="277.46 723 298.04 720 202.99 720 179.47 723 277.46 723"/><polygon class="cls-3" points="319.47 733.25 340.85 729.6 238.56 729.6 213.76 733.25 319.47 733.25"/><polygon class="cls-3" points="119.18 718 212.62 718 228.48 716 136.79 716 119.18 718"/><polygon class="cls-3" points="831.85 707.2 914.57 707.2 915.43 705.75 834.11 705.75 831.85 707.2"/><polygon class="cls-3" points="914.29 718 1007.7 718 1006.73 716 915.29 716 914.29 718"/><polygon class="cls-3" points="1006.72 705.75 1007.57 707.2 1091.17 707.2 1088.94 705.75 1006.72 705.75"/><polygon class="cls-3" points="827.32 710.1 912.84 710.1 913.61 708.8 829.35 708.8 827.32 710.1"/><polygon class="cls-3" points="736.05 710.1 821.94 710.1 824.1 708.8 739.43 708.8 736.05 710.1"/><polygon class="cls-3" points="566.28 707.2 649.61 707.2 655.15 705.75 573.2 705.75 566.28 707.2"/><polygon class="cls-3" points="655.02 707.2 738.37 707.2 742.31 705.75 660.34 705.75 655.02 707.2"/><polygon class="cls-3" points="743.58 707.2 826.75 707.2 829.16 705.75 747.34 705.75 743.58 707.2"/><polygon class="cls-3" points="477.03 707.2 561.28 707.2 568.31 705.75 485.41 705.75 477.03 707.2"/><polygon class="cls-3" points="1101.03 710.1 1186.18 710.1 1182.81 708.8 1098.89 708.8 1101.03 710.1"/><polygon class="cls-3" points="1439.28 705.75 1447.81 707.2 1531.02 707.2 1521.16 705.75 1439.28 705.75"/><polygon class="cls-3" points="1526.29 705.75 1536.37 707.2 1618.4 707.2 1607.04 705.75 1526.29 705.75"/><polygon class="cls-3" points="1612.44 705.75 1624.12 707.2 1705.74 707.2 1693.17 705.75 1612.44 705.75"/><polygon class="cls-3" points="1266.59 705.75 1272.15 707.2 1355.01 707.2 1348.22 705.75 1266.59 705.75"/><polygon class="cls-3" points="1353.56 705.75 1360.65 707.2 1442.68 707.2 1434.31 705.75 1353.56 705.75"/><polygon class="cls-3" points="1698.93 705.75 1711.96 707.2 1795.27 707.2 1781.16 705.75 1698.93 705.75"/><polygon class="cls-3" points="1841.02 711.9 1754.19 711.9 1773.07 714 1861.46 714 1841.02 711.9"/><polygon class="cls-3" points="1695.01 716 1711.12 718 1799.36 718 1782.02 716 1695.01 716"/><polygon class="cls-3" points="1726.34 708.8 1738.02 710.1 1823.5 710.1 1810.85 708.8 1726.34 708.8"/><polygon class="cls-3" points="211.79 753.1 338.63 753.1 359.73 748.75 236.93 748.75 211.79 753.1"/><polygon class="cls-3" points="173 739.25 284.32 739.25 304.82 735.75 196.78 735.75 173 739.25"/><polygon class="cls-3" points="160.37 762 295.45 762 325.04 755.9 195.61 755.9 160.37 762"/><polygon class="cls-3" points="371.85 746.25 393.68 741.75 277.38 741.75 251.38 746.25 371.85 746.25"/><polygon class="cls-3" points="1093.89 705.75 1096.27 707.2 1178.66 707.2 1174.89 705.75 1093.89 705.75"/><polygon class="cls-3" points="1179.93 705.75 1183.87 707.2 1266.71 707.2 1261.39 705.75 1179.93 705.75"/><polygon class="cls-3" points="1008.5 708.8 1009.26 710.1 1095.64 710.1 1093.64 708.8 1008.5 708.8"/><polygon class="cls-3" points="405.49 771 428.45 765 290.71 765 262.11 771 405.49 771"/><polygon class="cls-3" points="1110.71 716 1113.99 718 1206.69 718 1201.5 716 1110.71 716"/><polygon class="cls-3" points="1213.23 718 1306.26 718 1298.94 716 1207.79 716 1213.23 718"/><polygon class="cls-3" points="908.53 729.6 906.71 733.25 1015.08 733.25 1013.31 729.6 908.53 729.6"/><polygon class="cls-3" points="1016.8 723 1115.52 723 1110.89 720 1015.05 720 1016.8 723"/><polygon class="cls-3" points="360.3 727.4 463.29 727.4 474.93 725 374.17 725 360.3 727.4"/><polygon class="cls-3" points="1475.44 711.9 1487.79 714 1577.26 714 1562.98 711.9 1475.44 711.9"/><polygon class="cls-3" points="1590.86 716 1499.55 716 1511.31 718 1604.46 718 1590.86 716"/><polygon class="cls-3" points="1290.15 711.9 1298.19 714 1386.84 714 1377.01 711.9 1290.15 711.9"/><polygon class="cls-3" points="1383.62 711.9 1393.88 714 1481.93 714 1469.81 711.9 1383.62 711.9"/><polygon class="cls-3" points="484.64 723 499.19 720 403.06 720 385.73 723 484.64 723"/><polygon class="cls-3" points="437.73 714 528.29 714 538.48 711.9 449.87 711.9 437.73 714"/><polygon class="cls-3" points="317.37 718 408.79 718 420.5 716 330.96 716 317.37 718"/><polygon class="cls-3" points="344.55 714 432.22 714 444.52 711.9 358.81 711.9 344.55 714"/><polygon class="cls-3" points="1423.21 720 1437.88 723 1533.89 723 1516.57 720 1423.21 720"/><polygon class="cls-3" points="807.2 723 905.13 723 906.92 720 811.88 720 807.2 723"/><polygon class="cls-3" points="715.55 718 808.82 718 812.14 716 720.74 716 715.55 718"/><polygon class="cls-3" points="702.57 723 800.52 723 805.5 720 710.36 720 702.57 723"/><polygon class="cls-3" points="615.45 718 709 718 714.44 716 622.78 716 615.45 718"/><polygon class="cls-3" points="543.88 711.9 533.86 714 623.59 714 631.62 711.9 543.88 711.9"/><polygon class="cls-3" points="1122.2 723 1219.66 723 1211.88 720 1117.27 720 1122.2 723"/><polygon class="cls-3" points="601.35 762 735.76 762 745.89 755.9 617.18 755.9 601.35 762"/><polygon class="cls-3" points="880.04 765 741.67 765 732.32 771 876.45 771 880.04 765"/><polygon class="cls-3" points="713.75 782.9 869.34 782.9 874.66 774 727.63 774 713.75 782.9"/><polygon class="cls-3" points="858.69 829.88 1061.82 829.88 1054.56 814.88 866.14 814.88 858.69 829.88"/><polygon class="cls-3" points="1046.93 799.1 873.98 799.1 868.01 811.13 1052.75 811.13 1046.93 799.1"/><polygon class="cls-3" points="1545.43 725 1447.65 725 1459.38 727.4 1559.29 727.4 1545.43 725"/><polygon class="cls-3" points="537.59 739.25 651.23 739.25 660.75 735.75 550.41 735.75 537.59 739.25"/><polygon class="cls-3" points="469.98 727.4 572.32 727.4 581.5 725 481.42 725 469.98 727.4"/><polygon class="cls-3" points="624.45 753.1 750.54 753.1 757.76 748.75 635.74 748.75 624.45 753.1"/><polygon class="cls-3" points="667.55 733.25 677.47 729.6 572.95 729.6 559.57 733.25 667.55 733.25"/><polygon class="cls-3" points="1296.83 748.75 1308.65 753.1 1434.82 753.1 1418.88 748.75 1296.83 748.75"/><polygon class="cls-3" points="1381.48 735.75 1394.89 739.25 1505.05 739.25 1488.66 735.75 1381.48 735.75"/><polygon class="cls-3" points="1516.75 741.75 1404.46 741.75 1421.7 746.25 1537.82 746.25 1516.75 741.75"/><polygon class="cls-3" points="1053.66 786.1 1059.38 795.9 1227.84 795.9 1212.74 786.1 1053.66 786.1"/><polygon class="cls-3" points="1357.93 729.6 1371.91 733.25 1476.96 733.25 1459.87 729.6 1357.93 729.6"/><polygon class="cls-3" points="1445.07 755.9 1316.27 755.9 1332.85 762 1467.41 762 1445.07 755.9"/><polygon class="cls-3" points="1352.03 774 1205.89 774 1220.5 782.9 1375.13 782.9 1352.03 774"/><polygon class="cls-3" points="1191.12 765 1200.97 771 1344.25 771 1328.67 765 1191.12 765"/><polygon class="cls-3" points="761.91 746.25 769.39 741.75 653.91 741.75 642.23 746.25 761.91 746.25"/><polygon class="cls-3" points="1719.61 708.8 1637.01 708.8 1647.48 710.1 1730.88 710.1 1719.61 708.8"/><polygon class="cls-3" points="1642.12 741.75 1529.52 741.75 1551.51 746.25 1668.1 746.25 1642.12 741.75"/><polygon class="cls-3" points="1569.03 711.9 1583.63 714 1671.68 714 1655.22 711.9 1569.03 711.9"/><polygon class="cls-3" points="1547.49 708.8 1556.52 710.1 1641.12 710.1 1630.94 708.8 1547.49 708.8"/><polygon class="cls-3" points="1457.21 708.8 1464.86 710.1 1550.74 710.1 1541.9 708.8 1457.21 708.8"/><polygon class="cls-3" points="1470.13 729.6 1487.97 733.25 1593.06 733.25 1571.98 729.6 1470.13 729.6"/><polygon class="cls-3" points="1500.19 735.75 1517.3 739.25 1627.69 739.25 1607.49 735.75 1500.19 735.75"/><polygon class="cls-3" points="1523.06 720 1540.7 723 1638.46 723 1618.06 720 1523.06 720"/><polygon class="cls-3" points="1652.06 725 1552.46 725 1566.57 727.4 1668.38 727.4 1652.06 725"/><polygon class="cls-3" points="1687.35 716 1597.52 716 1611.42 718 1703.02 718 1687.35 716"/><polygon class="cls-3" points="1010.32 711.9 1011.54 714 1101.65 714 1098.41 711.9 1010.32 711.9"/><polygon class="cls-3" points="1013.88 718 1107.81 718 1104.73 716 1012.71 716 1013.88 718"/><polygon class="cls-3" points="821.24 714 910.51 714 911.76 711.9 824.52 711.9 821.24 714"/><polygon class="cls-3" points="815 718 908.12 718 909.31 716 818.12 716 815 718"/><polygon class="cls-3" points="1278.27 708.8 1283.25 710.1 1368.58 710.1 1362.49 708.8 1278.27 708.8"/><polygon class="cls-3" points="1368.47 708.8 1374.82 710.1 1459.42 710.1 1451.91 708.8 1368.47 708.8"/><polygon class="cls-3" points="1107.43 714 1196.31 714 1190.86 711.9 1103.98 711.9 1107.43 714"/><polygon class="cls-3" points="1202.36 714 1291.61 714 1283.92 711.9 1196.65 711.9 1202.36 714"/><polygon class="cls-3" points="1188.22 708.8 1191.75 710.1 1277.33 710.1 1272.57 708.8 1188.22 708.8"/><polygon class="cls-3" points="1341.01 765 1357.32 771 1500.38 771 1478.4 765 1341.01 765"/><polygon class="cls-3" points="861.58 795.9 867.43 786.1 708.76 786.1 693.47 795.9 861.58 795.9"/><polygon class="cls-3" points="547.1 782.9 701.06 782.9 715.84 774 570.2 774 547.1 782.9"/><polygon class="cls-3" points="720.82 771 730.78 765 593.56 765 577.99 771 720.82 771"/><polygon class="cls-3" points="669.72 811.13 852.48 811.13 859.66 799.1 688.48 799.1 669.72 811.13"/><polygon class="cls-3" points="632.2 746.25 644.44 741.75 528.43 741.75 511.94 746.25 632.2 746.25"/><polygon class="cls-3" points="454.23 762 589.38 762 605.97 755.9 476.58 755.9 454.23 762"/><polygon class="cls-3" points="413.48 739.25 526.98 739.25 540.37 735.75 430.17 735.75 413.48 739.25"/><polygon class="cls-3" points="1072.83 852.63 1063.39 833.13 857.07 833.13 847.38 852.63 1072.83 852.63"/><polygon class="cls-3" points="486.84 753.1 613.58 753.1 625.41 748.75 502.78 748.75 486.84 753.1"/><polygon class="cls-3" points="1511.37 774 1365.47 774 1389.67 782.9 1543.96 782.9 1511.37 774"/><polygon class="cls-3" points="1225.75 786.1 1241.83 795.9 1408.87 795.9 1383.44 786.1 1225.75 786.1"/><polygon class="cls-3" points="549.93 733.25 563.9 729.6 459.49 729.6 442.09 733.25 549.93 733.25"/><polygon class="cls-3" points="1431.27 748.75 1447.93 753.1 1569.89 753.1 1549.52 748.75 1431.27 748.75"/><polygon class="cls-3" points="1582.99 755.9 1458.65 755.9 1482.01 762 1611.55 762 1582.99 755.9"/><polygon class="cls-3" points="833.65 880.25 1086.19 880.25 1074.76 856.63 845.39 856.63 833.65 880.25"/><polygon class="cls-3" points="1247.09 799.1 1266.82 811.13 1448.39 811.13 1417.18 799.1 1247.09 799.1"/><polygon class="cls-3" points="1315.23 852.63 1285.19 833.13 1081.13 833.13 1092.52 852.63 1315.23 852.63"/><polygon class="cls-3" points="1458.12 814.88 1272.97 814.88 1297.59 829.88 1497.05 829.88 1458.12 814.88"/><polygon class="cls-3" points="1207.81 782.9 1194.09 774 1046.59 774 1051.79 782.9 1207.81 782.9"/><polygon class="cls-3" points="1920.94 702.6 1929.79 703.53 1929.79 702.6 1920.94 702.6"/><polygon class="cls-3" points="1916.54 702.6 1839.56 702.6 1856.96 704.25 1929.79 704.25 1929.79 703.95 1916.54 702.6"/><polygon class="cls-3" points="1872.78 705.75 1888.07 707.2 1929.79 707.2 1929.79 705.75 1872.78 705.75"/><polygon class="cls-3" points="808.35 885 554.46 885 506.1 916 789.83 916 808.35 885"/><polygon class="cls-3" points="1924.69 711.9 1850.38 711.9 1871.84 714 1929.79 714 1929.79 712.43 1924.69 711.9"/><polygon class="cls-3" points="1919.86 720 1826.98 720 1853.94 723 1929.79 723 1929.79 721.02 1919.86 720"/><polygon class="cls-3" points="1892.27 716 1912.7 718 1929.79 718 1929.79 716 1892.27 716"/><polygon class="cls-3" points="1904.95 708.8 1918.66 710.1 1929.79 710.1 1929.79 708.8 1904.95 708.8"/><polygon class="cls-3" points="902.49 741.75 900.25 746.25 1021.37 746.25 1019.19 741.75 902.49 741.75"/><polygon class="cls-3" points="909.62 727.4 1012.25 727.4 1011.09 725 910.81 725 909.62 727.4"/><polygon class="cls-3" points="1871.91 725 1893.48 727.4 1929.79 727.4 1929.79 725 1871.91 725"/><polygon class="cls-3" points="783.5 733.25 789.56 729.6 685.44 729.6 675.97 733.25 783.5 733.25"/><polygon class="cls-3" points="589.8 725 581.01 727.4 683.45 727.4 689.98 725 589.8 725"/><polygon class="cls-3" points="896.85 753.1 1024.68 753.1 1022.58 748.75 899.01 748.75 896.85 753.1"/><polygon class="cls-3" points="725.93 714 815.46 714 818.95 711.9 731.38 711.9 725.93 714"/><polygon class="cls-3" points="1061.25 799.1 1068.28 811.13 1251.29 811.13 1232.77 799.1 1061.25 799.1"/><polygon class="cls-3" points="1041.33 765 1044.84 771 1189.47 771 1180.23 765 1041.33 765"/><polygon class="cls-3" points="913.3 720 911.81 723 1010.12 723 1008.67 720 913.3 720"/><polygon class="cls-3" points="1280.18 829.88 1257.07 814.88 1070.47 814.88 1079.23 829.88 1280.18 829.88"/><polygon class="cls-3" points="431.61 963.75 761.3 963.75 786.24 922 496.74 922 431.61 963.75"/><polygon class="cls-3" points="1929.79 878.92 1929.79 856.63 1844.4 856.63 1929.79 878.92"/><polygon class="cls-3" points="589.15 723 600.63 720 505.26 720 490.95 723 589.15 723"/><polygon class="cls-3" points="1829.08 852.63 1929.79 852.63 1929.79 833.13 1754.4 833.13 1829.08 852.63"/><polygon class="cls-3" points="1809.83 799.1 1868.61 811.13 1929.79 811.13 1929.79 799.1 1809.83 799.1"/><polygon class="cls-3" points="1667.24 885 1751.52 916 1929.79 916 1929.79 888.24 1917.91 885 1667.24 885"/><polygon class="cls-3" points="1929.79 981.57 1929.79 970.25 1899.01 970.25 1929.79 981.57"/><polygon class="cls-3" points="1527.96 970.25 1624.1 1028.83 1929.79 1028.83 1929.79 996.6 1861.39 970.25 1527.96 970.25"/><polygon class="cls-3" points="1898.14 786.1 1746.29 786.1 1794.19 795.9 1929.79 795.9 1929.79 791.58 1898.14 786.1"/><polygon class="cls-3" points="1881.34 963.75 1929.79 963.75 1929.79 922 1767.83 922 1881.34 963.75"/><polygon class="cls-3" points="1913.25 729.6 1929.79 731.44 1929.79 729.6 1913.25 729.6"/><polygon class="cls-3" points="1825.12 748.75 1855.35 753.1 1929.79 753.1 1929.79 748.75 1825.12 748.75"/><polygon class="cls-3" points="1902.44 741.75 1929.79 745.14 1929.79 741.75 1902.44 741.75"/><polygon class="cls-3" points="1854.11 735.75 1882.3 739.25 1929.79 739.25 1929.79 735.75 1854.11 735.75"/><polygon class="cls-3" points="1899.92 729.6 1804.57 729.6 1833.97 733.25 1929.79 733.25 1929.79 733.05 1899.92 729.6"/><polygon class="cls-3" points="1840.56 774 1892.89 782.9 1929.79 782.9 1929.79 774 1840.56 774"/><polygon class="cls-3" points="1874.8 755.9 1917.19 762 1929.79 762 1929.79 755.9 1874.8 755.9"/><polygon class="cls-3" points="1911.7 786.1 1929.79 789.18 1929.79 786.1 1911.7 786.1"/><polygon class="cls-3" points="1924.06 765 1787.64 765 1822.92 771 1929.79 771 1929.79 765.84 1924.06 765"/><polygon class="cls-3" points="1886.93 814.88 1929.79 823.64 1929.79 814.88 1886.93 814.88"/><polygon class="cls-3" points="1493.48 716 1403.66 716 1413.44 718 1505.02 718 1493.48 716"/><polygon class="cls-3" points="1305.85 716 1313.51 718 1405.57 718 1396.2 716 1305.85 716"/><polygon class="cls-3" points="1226.82 723 1324.57 723 1313.59 720 1218.67 720 1226.82 723"/><polygon class="cls-3" points="1129.42 727.4 1231.09 727.4 1224.86 725 1125.48 725 1129.42 727.4"/><polygon class="cls-3" points="1022.79 733.25 1131.31 733.25 1125.68 729.6 1020.65 729.6 1022.79 733.25"/><polygon class="cls-3" points="1139.02 733.25 1246.27 733.25 1236.8 729.6 1133.03 729.6 1139.02 733.25"/><polygon class="cls-3" points="1244.77 729.6 1254.69 733.25 1362.12 733.25 1348.75 729.6 1244.77 729.6"/><polygon class="cls-3" points="1321.17 720 1332.66 723 1428.97 723 1414.93 720 1321.17 720"/><polygon class="cls-3" points="1438.34 725 1340.32 725 1349.51 727.4 1449.57 727.4 1438.34 725"/><polygon class="cls-3" points="905.47 735.75 903.73 739.25 1017.98 739.25 1016.29 735.75 905.47 735.75"/><polygon class="cls-3" points="691.15 727.4 793.21 727.4 797.2 725 697.38 725 691.15 727.4"/><polygon class="cls-3" points="524.33 716 514.79 718 608.28 718 615.94 716 524.33 716"/><polygon class="cls-3" points="1017.97 725 1019.37 727.4 1122.3 727.4 1118.6 725 1017.97 725"/><polygon class="cls-3" points="414.62 718 508.89 718 518.59 716 426.18 716 414.62 718"/><polygon class="cls-3" points="608.12 720 597.13 723 695.41 723 703.57 720 608.12 720"/><polygon class="cls-3" points="791.21 733.25 899 733.25 901.19 729.6 796.9 729.6 791.21 733.25"/><polygon class="cls-3" points="1393.25 741.75 1277.8 741.75 1290.03 746.25 1409.73 746.25 1393.25 741.75"/><polygon class="cls-3" points="800.34 727.4 902.5 727.4 903.93 725 804.08 725 800.34 727.4"/><polygon class="cls-3" points="1261.49 735.75 1271 739.25 1384.09 739.25 1371.27 735.75 1261.49 735.75"/><polygon class="cls-3" points="1031.84 748.75 1034.38 753.1 1161.89 753.1 1155.19 748.75 1031.84 748.75"/><polygon class="cls-3" points="1175.61 762 1166.21 755.9 1036.02 755.9 1039.58 762 1175.61 762"/><polygon class="cls-3" points="1268.33 741.75 1152.97 741.75 1160.35 746.25 1280.01 746.25 1268.33 741.75"/><polygon class="cls-3" points="882.03 782.9 1039.1 782.9 1034.79 774 886.46 774 882.03 782.9"/><polygon class="cls-3" points="1340.69 727.4 1331.9 725 1232.26 725 1238.79 727.4 1340.69 727.4"/><polygon class="cls-3" points="887.95 771 1033.34 771 1030.44 765 890.93 765 887.95 771"/><polygon class="cls-3" points="895.46 755.9 892.42 762 1028.99 762 1026.04 755.9 895.46 755.9"/><polygon class="cls-3" points="1164.45 748.75 1171.59 753.1 1297.79 753.1 1286.5 748.75 1164.45 748.75"/><polygon class="cls-3" points="1151.34 746.25 1144.4 741.75 1027.75 741.75 1030.38 746.25 1151.34 746.25"/><polygon class="cls-3" points="1143.12 735.75 1148.86 739.25 1261.84 739.25 1252.76 735.75 1143.12 735.75"/><polygon class="cls-3" points="1026.29 739.25 1140.55 739.25 1135.16 735.75 1024.25 735.75 1026.29 739.25"/><polygon class="cls-3" points="760.24 753.1 887.15 753.1 889.75 748.75 767.03 748.75 760.24 753.1"/><polygon class="cls-3" points="746.36 762 881.83 762 885.47 755.9 755.87 755.9 746.36 762"/><polygon class="cls-3" points="1305.06 755.9 1176.19 755.9 1186.2 762 1320.89 762 1305.06 755.9"/><polygon class="cls-3" points="1045.38 795.9 1040.64 786.1 880.44 786.1 875.57 795.9 1045.38 795.9"/><polygon class="cls-3" points="781.85 739.25 895.42 739.25 897.51 735.75 787.31 735.75 781.85 739.25"/><polygon class="cls-3" points="660.39 739.25 773.54 739.25 779.35 735.75 669.48 735.75 660.39 739.25"/><polygon class="cls-3" points="893.93 741.75 777.95 741.75 770.93 746.25 891.24 746.25 893.93 741.75"/><polygon class="cls-3" points="445.64 814.88 260.49 814.88 205.53 829.88 404.86 829.88 445.64 814.88"/><polygon class="cls-3" points="1831.99 710.1 1907.23 710.1 1894.62 708.8 1818.71 708.8 1831.99 710.1"/><polygon class="cls-3" points="1754.19 711.9 1773.07 714 1861.46 714 1841.02 711.9 1754.19 711.9"/><polygon class="cls-3" points="1850.49 704.25 1834.48 702.6 1755.36 702.6 1772.22 704.25 1850.49 704.25"/><polygon class="cls-3" points="1802.36 707.2 1879.1 707.2 1865.04 705.75 1787.55 705.75 1802.36 707.2"/><polygon class="cls-3" points="1809.01 718 1900.39 718 1880.93 716 1791.04 716 1809.01 718"/><polygon class="cls-3" points="1759.1 739.25 1869.51 739.25 1842.09 735.75 1734.77 735.75 1759.1 739.25"/><polygon class="cls-3" points="1807.74 746.25 1924.35 746.25 1889.09 741.75 1776.47 741.75 1807.74 746.25"/><polygon class="cls-3" points="1786.84 727.4 1880.85 727.4 1860.04 725 1767.51 725 1786.84 727.4"/><polygon class="cls-3" points="1727.23 720 1751.4 723 1842.7 723 1816.7 720 1727.23 720"/><polygon class="cls-3" points="1692.04 729.6 1717.4 733.25 1822.5 733.25 1793.9 729.6 1692.04 729.6"/><polygon class="cls-3" points="1341.19 704.25 1333.47 702.6 1254.53 702.6 1260.85 704.25 1341.19 704.25"/><polygon class="cls-3" points="1255.9 704.25 1249.86 702.6 1171.36 702.6 1175.85 704.25 1255.9 704.25"/><polygon class="cls-3" points="1171 704.25 1166.72 702.6 1088.72 702.6 1091.42 704.25 1171 704.25"/><polygon class="cls-3" points="1766.56 704.25 1750.5 702.6 1670.62 702.6 1685.45 704.25 1766.56 704.25"/><polygon class="cls-3" points="1425.65 704.25 1416.12 702.6 1338.16 702.6 1346.23 704.25 1425.65 704.25"/><polygon class="cls-3" points="1510.96 704.25 1499.74 702.6 1420.76 702.6 1430.46 704.25 1510.96 704.25"/><polygon class="cls-3" points="1680.16 704.25 1665.86 702.6 1587.07 702.6 1600.36 704.25 1680.16 704.25"/><polygon class="cls-3" points="1595.29 704.25 1582.36 702.6 1504.4 702.6 1515.87 704.25 1595.29 704.25"/><polygon class="cls-3" points="1486.45 963.75 1422.12 922 1133.04 922 1157.43 963.75 1486.45 963.75"/><polygon class="cls-3" points="274.23 811.13 455.83 811.13 488.52 799.1 318.29 799.1 274.23 811.13"/><polygon class="cls-3" points="623.06 829.88 647.96 814.88 464.11 814.88 425.18 829.88 623.06 829.88"/><polygon class="cls-3" points="366.13 852.63 585.28 852.63 617.66 833.13 416.75 833.13 366.13 852.63"/><polygon class="cls-3" points="497.22 795.9 523.87 786.1 365.92 786.1 330.02 795.9 497.22 795.9"/><polygon class="cls-3" points="1692.1 748.75 1717.68 753.1 1843.14 753.1 1813.56 748.75 1692.1 748.75"/><polygon class="cls-3" points="205.37 782.9 359.96 782.9 394.01 774 247.8 774 205.37 782.9"/><polygon class="cls-3" points="160.37 762 295.45 762 325.04 755.9 195.61 755.9 160.37 762"/><polygon class="cls-3" points="294.44 880.25 539.41 880.25 578.64 856.63 355.75 856.63 294.44 880.25"/><polygon class="cls-3" points="405.49 771 428.45 765 290.71 765 262.11 771 405.49 771"/><polygon class="cls-3" points="1730.65 782.9 1879.67 782.9 1828.29 774 1687.15 774 1730.65 782.9"/><polygon class="cls-3" points="211.79 753.1 338.63 753.1 359.73 748.75 236.93 748.75 211.79 753.1"/><polygon class="cls-3" points="1574.31 786.1 1611.84 795.9 1770.26 795.9 1724.38 786.1 1574.31 786.1"/><polygon class="cls-3" points="1770.01 762 1903.66 762 1862.18 755.9 1734.14 755.9 1770.01 762"/><polygon class="cls-3" points="1412.88 916 1365.12 885 1111.43 885 1129.54 916 1412.88 916"/><polygon class="cls-3" points="1086.63 704.25 1084.09 702.6 1004.88 702.6 1005.85 704.25 1086.63 704.25"/><polygon class="cls-3" points="1106.38 922 812.89 922 792.14 963.75 1126.58 963.75 1106.38 922"/><polygon class="cls-3" points="1643.16 765 1672.49 771 1810.97 771 1776.34 765 1643.16 765"/><polygon class="cls-3" points="280.9 765 143.03 765 108.36 771 251.8 771 280.9 765"/><polygon class="cls-3" points="237.24 774 91.02 774 39.59 782.9 194.07 782.9 237.24 774"/><polygon class="cls-3" points="470.09 922 186.07 922 77.72 963.75 400.76 963.75 470.09 922"/><polygon class="cls-3" points="186.8 755.9 59.88 755.9 18.44 762 151.07 762 186.8 755.9"/><polygon class="cls-3" points="297.98 799.1 128.14 799.1 70.81 811.13 251.96 811.13 297.98 799.1"/><polygon class="cls-3" points="228.68 748.75 108.46 748.75 78.91 753.1 203.2 753.1 228.68 748.75"/><polygon class="cls-3" points="531.52 885 282.11 885 201.65 916 480.05 916 531.52 885"/><polygon class="cls-3" points="332.13 856.63 107.51 856.63 20.95 880.25 267.9 880.25 332.13 856.63"/><polygon class="cls-3" points="396.02 833.13 193.62 833.13 122.17 852.63 343.01 852.63 396.02 833.13"/><polygon class="cls-3" points="347.72 786.1 190.12 786.1 143.39 795.9 310.22 795.9 347.72 786.1"/><polygon class="cls-3" points="196.76 720 101.57 720 75.15 723 172.97 723 196.76 720"/><polygon class="cls-3" points="129.21 716 45.48 716 26.39 718 111.17 718 129.21 716"/><polygon class="cls-3" points="166.2 711.9 84.6 711.9 64.56 714 147.25 714 166.2 711.9"/><polygon class="cls-3" points="108.22 708.8 26.97 708.8 13.57 710.1 95.54 710.1 108.22 708.8"/><polygon class="cls-3" points="190 735.75 79.53 735.75 52.1 739.25 165.99 739.25 190 735.75"/><polygon class="cls-3" points="269.68 741.75 156.02 741.75 125.44 746.25 243.32 746.25 269.68 741.75"/><polygon class="cls-3" points="232.19 729.6 127.74 729.6 99.13 733.25 207.15 733.25 232.19 729.6"/><polygon class="cls-3" points="157.11 725 57.54 725 36.41 727.4 138.08 727.4 157.11 725"/><polygon class="cls-3" points="644.4 710.1 730.48 710.1 734.02 708.8 649.16 708.8 644.4 710.1"/><polygon class="cls-3" points="330.07 1028.83 722.42 1028.83 757.41 970.25 421.47 970.25 330.07 1028.83"/><polygon class="cls-3" points="575.59 704.25 583.59 702.6 503.61 702.6 494.07 704.25 575.59 704.25"/><polygon class="cls-3" points="746.39 704.25 750.87 702.6 671.88 702.6 665.83 704.25 746.39 704.25"/><polygon class="cls-3" points="660.89 704.25 667.21 702.6 588.22 702.6 580.35 704.25 660.89 704.25"/><polygon class="cls-3" points="834.39 702.6 755.52 702.6 751.24 704.25 831.65 704.25 834.39 702.6"/><polygon class="cls-3" points="1005.77 714 1004.75 711.9 917.33 711.9 916.28 714 1005.77 714"/><polygon class="cls-3" points="1001.77 705.75 920.38 705.75 919.66 707.2 1002.48 707.2 1001.77 705.75"/><polygon class="cls-3" points="137.95 705.75 58.42 705.75 43.47 707.2 123.81 707.2 137.95 705.75"/><polygon class="cls-3" points="917.32 702.6 839.02 702.6 836.45 704.25 916.33 704.25 917.32 702.6"/><polygon class="cls-3" points="1000.25 702.6 921.95 702.6 921.13 704.25 1001.05 704.25 1000.25 702.6"/><polygon class="cls-3" points="168.66 702.6 90.89 702.6 73.88 704.25 152.57 704.25 168.66 702.6"/><polygon class="cls-3" points="1161.22 970.25 1195.44 1028.83 1586.72 1028.83 1496.46 970.25 1161.22 970.25"/><polygon class="cls-3" points="788.91 970.25 759.79 1028.83 1158.07 1028.83 1129.73 970.25 788.91 970.25"/><polygon class="cls-3" points="489.32 704.25 498.99 702.6 422 702.6 410.79 704.25 489.32 704.25"/><polygon class="cls-3" points="406.07 704.25 417.39 702.6 339.37 702.6 326.44 704.25 406.07 704.25"/><polygon class="cls-3" points="235.21 704.25 250.09 702.6 173.35 702.6 157.6 704.25 235.21 704.25"/><polygon class="cls-3" points="321.66 704.25 334.75 702.6 254.79 702.6 240.26 704.25 321.66 704.25"/><polygon class="cls-3" points="1003.25 708.8 918.87 708.8 918.22 710.1 1003.88 710.1 1003.25 708.8"/><polygon class="cls-3" points="1302.92 833.13 1334.93 852.63 1556.1 852.63 1505.49 833.13 1302.92 833.13"/><polygon class="cls-3" points="1357.8 880.25 1321.4 856.63 1094.85 856.63 1108.65 880.25 1357.8 880.25"/><polygon class="cls-3" points="1627.8 880.25 1566.48 856.63 1341.49 856.63 1380.26 880.25 1627.8 880.25"/><polygon class="cls-3" points="1433.71 799.1 1466.4 811.13 1647.34 811.13 1603.3 799.1 1433.71 799.1"/><polygon class="cls-3" points="1398.37 786.1 1425.01 795.9 1591.57 795.9 1555.68 786.1 1398.37 786.1"/><polygon class="cls-3" points="473.85 811.13 654.19 811.13 674.16 799.1 505.06 799.1 473.85 811.13"/><polygon class="cls-3" points="841.28 829.88 850.24 814.88 663.87 814.88 640.46 829.88 841.28 829.88"/><polygon class="cls-3" points="561.88 880.25 811.18 880.25 825.3 856.63 598.73 856.63 561.88 880.25"/><polygon class="cls-3" points="1088.49 885 831.29 885 815.88 916 1103.48 916 1088.49 885"/><polygon class="cls-3" points="604.97 852.63 827.69 852.63 839.34 833.13 635.39 833.13 604.97 852.63"/><polygon class="cls-3" points="1615.67 735.75 1636.24 739.25 1748.96 739.25 1725.16 735.75 1615.67 735.75"/><polygon class="cls-3" points="1579.51 729.6 1600.97 733.25 1708.16 733.25 1683.34 729.6 1579.51 729.6"/><polygon class="cls-3" points="1765.96 741.75 1650.94 741.75 1677.4 746.25 1796.56 746.25 1765.96 741.75"/><polygon class="cls-3" points="1757.86 725 1660.07 725 1676.75 727.4 1776.66 727.4 1757.86 725"/><polygon class="cls-3" points="1667.73 774 1527.97 774 1562.06 782.9 1709.4 782.9 1667.73 774"/><polygon class="cls-3" points="1493.5 765 1516.48 771 1653.69 771 1625.6 765 1493.5 765"/><polygon class="cls-3" points="1563.73 748.75 1584.99 753.1 1707.64 753.1 1682.53 748.75 1563.73 748.75"/><polygon class="cls-3" points="1723.81 755.9 1598.68 755.9 1628.5 762 1759.02 762 1723.81 755.9"/><polygon class="cls-3" points="379.5 723 397.07 720 303.78 720 283.4 723 379.5 723"/><polygon class="cls-3" points="1625.32 720 1646.17 723 1742.19 723 1718.69 720 1625.32 720"/><polygon class="cls-3" points="339.19 714 353.6 711.9 266.48 711.9 250.01 714 339.19 714"/><polygon class="cls-3" points="218.66 718 311.75 718 325.47 716 234.34 716 218.66 718"/><polygon class="cls-3" points="280.58 710.1 365.94 710.1 374.86 708.8 290.77 708.8 280.58 710.1"/><polygon class="cls-3" points="188.75 710.1 275.27 710.1 285.58 708.8 200.19 708.8 188.75 710.1"/><polygon class="cls-3" points="630.11 714 719.88 714 725.59 711.9 637.8 711.9 630.11 714"/><polygon class="cls-3" points="552.46 710.1 638.51 710.1 643.49 708.8 558.65 708.8 552.46 710.1"/><polygon class="cls-3" points="371.04 710.1 455.06 710.1 462.68 708.8 379.88 708.8 371.04 710.1"/><polygon class="cls-3" points="460.27 710.1 547.21 710.1 553.52 708.8 467.78 708.8 460.27 710.1"/><polygon class="cls-3" points="347.45 753.1 473.98 753.1 490.63 748.75 368.19 748.75 347.45 753.1"/><polygon class="cls-3" points="564.92 771 581.23 765 443.24 765 421.25 771 564.92 771"/><polygon class="cls-3" points="305.02 762 439.93 762 463.27 755.9 334.1 755.9 305.02 762"/><polygon class="cls-3" points="679.47 795.9 695.74 786.1 538.8 786.1 513.36 795.9 679.47 795.9"/><polygon class="cls-3" points="377.65 782.9 532.57 782.9 556.76 774 410.26 774 377.65 782.9"/><polygon class="cls-3" points="500.19 746.25 517.41 741.75 401.56 741.75 380.11 746.25 500.19 746.25"/><polygon class="cls-3" points="253.51 727.4 353.73 727.4 367.79 725 269.81 725 253.51 727.4"/><polygon class="cls-3" points="434.92 733.25 452.62 729.6 347.59 729.6 326.5 733.25 434.92 733.25"/><polygon class="cls-3" points="291.83 739.25 405.81 739.25 422.79 735.75 312.05 735.75 291.83 739.25"/><polygon class="cls-3" points="743.58 707.2 826.75 707.2 829.16 705.75 747.34 705.75 743.58 707.2"/><polygon class="cls-3" points="1782.02 716 1695.01 716 1711.12 718 1799.36 718 1782.02 716"/><polygon class="cls-3" points="566.28 707.2 649.61 707.2 655.15 705.75 573.2 705.75 566.28 707.2"/><polygon class="cls-3" points="390.75 707.2 472.05 707.2 480.54 705.75 400.6 705.75 390.75 707.2"/><polygon class="cls-3" points="303.32 707.2 385.83 707.2 395.78 705.75 314.68 705.75 303.32 707.2"/><polygon class="cls-3" points="477.03 707.2 561.28 707.2 568.31 705.75 485.41 705.75 477.03 707.2"/><polygon class="cls-3" points="655.02 707.2 738.37 707.2 742.31 705.75 660.34 705.75 655.02 707.2"/><polygon class="cls-3" points="371.85 746.25 393.68 741.75 277.38 741.75 251.38 746.25 371.85 746.25"/><polygon class="cls-3" points="736.05 710.1 821.94 710.1 824.1 708.8 739.43 708.8 736.05 710.1"/><polygon class="cls-3" points="319.47 733.25 340.85 729.6 238.56 729.6 213.76 733.25 319.47 733.25"/><polygon class="cls-3" points="129.45 707.2 208.59 707.2 221.68 705.75 143.29 705.75 129.45 707.2"/><polygon class="cls-3" points="277.46 723 298.04 720 202.99 720 179.47 723 277.46 723"/><polygon class="cls-3" points="144.98 727.4 247.28 727.4 263.74 725 163.79 725 144.98 727.4"/><polygon class="cls-3" points="173 739.25 284.32 739.25 304.82 735.75 196.78 735.75 173 739.25"/><polygon class="cls-3" points="827.32 710.1 912.84 710.1 913.61 708.8 829.35 708.8 827.32 710.1"/><polygon class="cls-3" points="119.18 718 212.62 718 228.48 716 136.79 716 119.18 718"/><polygon class="cls-3" points="101.78 710.1 182.43 710.1 194.16 708.8 114.18 708.8 101.78 710.1"/><polygon class="cls-3" points="244.34 714 261 711.9 172.9 711.9 154.4 714 244.34 714"/><polygon class="cls-3" points="214.28 707.2 298.27 707.2 309.77 705.75 227.05 705.75 214.28 707.2"/><polygon class="cls-3" points="1439.28 705.75 1447.81 707.2 1531.02 707.2 1521.16 705.75 1439.28 705.75"/><polygon class="cls-3" points="1526.29 705.75 1536.37 707.2 1618.4 707.2 1607.04 705.75 1526.29 705.75"/><polygon class="cls-3" points="1101.03 710.1 1186.18 710.1 1182.81 708.8 1098.89 708.8 1101.03 710.1"/><polygon class="cls-3" points="1266.59 705.75 1272.15 707.2 1355.01 707.2 1348.22 705.75 1266.59 705.75"/><polygon class="cls-3" points="1179.93 705.75 1183.87 707.2 1266.71 707.2 1261.39 705.75 1179.93 705.75"/><polygon class="cls-3" points="1353.56 705.75 1360.65 707.2 1442.68 707.2 1434.31 705.75 1353.56 705.75"/><polygon class="cls-3" points="1810.85 708.8 1726.34 708.8 1738.02 710.1 1823.5 710.1 1810.85 708.8"/><polygon class="cls-3" points="1612.44 705.75 1624.12 707.2 1705.74 707.2 1693.17 705.75 1612.44 705.75"/><polygon class="cls-3" points="1661.98 711.9 1678.9 714 1764.69 714 1746.48 711.9 1661.98 711.9"/><polygon class="cls-3" points="1698.93 705.75 1711.96 707.2 1795.27 707.2 1781.16 705.75 1698.93 705.75"/><polygon class="cls-3" points="1008.5 708.8 1009.26 710.1 1095.64 710.1 1093.64 708.8 1008.5 708.8"/><polygon class="cls-3" points="1006.72 705.75 1007.57 707.2 1091.17 707.2 1088.94 705.75 1006.72 705.75"/><polygon class="cls-3" points="831.85 707.2 914.57 707.2 915.43 705.75 834.11 705.75 831.85 707.2"/><polygon class="cls-3" points="1093.89 705.75 1096.27 707.2 1178.66 707.2 1174.89 705.75 1093.89 705.75"/><polygon class="cls-3" points="914.29 718 1007.7 718 1006.73 716 915.29 716 914.29 718"/><path class="cls-4" d="M1614.85,1028.83l-96.14-58.58h333.43l68.4,26.35v-15l-30.78-11.32h30.78v-6.5h-48.45L1758.58,922h162v-6H1742.27L1658,885h250.67l11.88,3.24v-9.32l-85.39-22.29h85.39v-4H1819.83l-74.68-19.5h175.39v-9.49l-42.85-8.76h42.85v-3.75h-61.18l-58.78-12h120v-3.2h-135.6l-47.9-9.8h151.85l31.65,5.48v-2.4l-18.09-3.08h18.09v-3.2h-36.9l-52.33-8.9h89.23v-3H1813.67l-35.28-6h136.42l5.73.84V762h-12.6l-42.39-6.1h55v-2.8h-74.45l-30.22-4.35h104.67v-3.61l-27.35-3.39h27.35v-2.5h-47.49l-28.19-3.5h75.68v-2.5h-95.82l-29.4-3.65h95.35l29.87,3.45v-1.61L1904,729.6h16.54v-2.2h-36.31l-21.57-2.4h57.88v-2h-75.85l-27-3h92.88l9.93,1v-3h-17.09L1883,716h37.52v-2h-58l-21.46-2.1h74.31l5.1.53V710.1h-11.13l-13.71-1.3h24.84v-1.6h-41.72l-15.29-1.45h57v-1.5h-72.83l-17.4-1.65h77l13.25,1.35v-.42l-8.85-.93h8.85v-1.2H.54v1.2H76.83l-17.65,1.65H.54v1.5H43.12L27.61,707.2H.54v1.6h9.94l-9.94.93v2.17H68.75L48.27,714H.54v2H28.78l-19.5,2H.54v2H83.88l-27.07,3H.54v2H38.77l-21.65,2.4H.54v3l7.24-.82h103.6l-28.94,3.65H.54v2.5H62.61l-27.75,3.5H.54v2.5H15L.54,743.58v1.07l22.71-2.9H139.6l-30.87,4.5H.54v2.5h91L61.74,753.1H.54v2.8h42L.7,762H.54v3H124.25l-35.14,6H.54v3h71l-52.13,8.9H.54v3.2H.67l-.13,0v1.94l11.31-2H169.3l-47.54,9.8H.54v3.2h105.7l-58.33,12H.54v3.75H29.71l-29.17,6v3l43.14-9H228.37l-57.4,15H.54v3.25h158l-74.62,19.5H.54v4H68.62L.54,874.42V885h245.2l-84.28,31H.54v6H145.15L31.65,963.75H.54v6.5H14L.54,975.19v14.73l51.05-19.67H380.72l-97.27,58.58H.54v10.34H266.28L198.48,1080H241l63.7-40.83H707L682.6,1080h42.51l20.3-40.83h408.41l19.75,40.83h42.51l-23.85-40.83H1593.4l62.91,40.83h42.51l-67-40.83h288.72v-10.34Zm220.42-65.08H1508L1439.53,922h287.38ZM496.85,916l48.36-31H799.1l-18.52,31ZM777,922l-24.94,41.75H422.36L487.49,922Zm224.85-197,1.16,2.4H900.37l1.19-2.4Zm-99.28-2,1.49-3h95.37l1.45,3ZM1059,811.13l-7-12h171.52l18.52,12Zm188.79,3.75,23.11,15H1070l-8.76-15ZM1035.59,771l-3.51-6H1171l9.24,6Zm149.25,3,13.72,8.9h-156l-5.2-8.9ZM676.19,729.6H780.31l-6.06,3.65H666.72Zm-2-2.2H571.76l8.79-2.4H680.72Zm339.13,21.35,2.1,4.35H887.6l2.16-4.35ZM891,746.25l2.24-4.5h116.7l2.18,4.5Zm336.55-16.65,9.47,3.65H1129.77l-6-3.65ZM1223,725h99.64l8.79,2.4h-101.9Zm-203.27,37H883.17l3-6.1h130.57Zm-1.24-20.25h116.66l6.93,4.5h-121Zm2.69,23.25,2.9,6H878.7l3-6Zm4.35,9,4.31,8.9H872.78l4.43-8.9Zm1.23-18.1H1157l9.4,6.1h-136Zm-1.64-2.8-2.54-4.35h123.35l6.7,4.35Zm126-6.85-7.38-4.5h115.36l11.68,4.5Zm-11.49-7-5.74-3.5h109.64l9.08,3.5Zm-13.7-3.5,5.39,3.5H1017l-2-3.5Zm-239.74,3.5H772.6l5.46-3.5h110.2Zm-116.07-3.5-5.81,3.5H651.14l9.09-3.5Zm-1.4,6h116l-2.69,4.5H761.68Zm111.8,7-2.6,4.35H751l6.79-4.35Zm-4.28,7.15-3.64,6.1H737.11l9.51-6.1Zm155.17,30.2,4.74,9.8H866.32l4.87-9.8ZM1177,762l-10-6.1h128.87l15.83,6.1Zm-14.61-8.9-7.14-4.35h122l11.29,4.35Zm106.21-11.35H1384l16.48,4.5h-119.7Zm-6.8-2.5-9.51-3.5H1362l12.82,3.5Zm-16.31-6-9.92-3.65h104l13.37,3.65Zm85.63-8.25h98l11.23,2.4H1340.26Zm-7.66-2-11.49-3h93.76l14,3Zm80.78-5-9.78-2h89.82l11.54,2Zm-7.87,0h-92.06l-7.66-2H1387Zm-92,2,11,3h-97.75l-8.15-3Zm-82.5,7.4H1120.17l-3.94-2.4h99.38Zm-105.4,2.2,5.62,3.65H1013.54l-2.14-3.65Zm-106.32-2.2-1.4-2.4h100.63l3.7,2.4Zm-1.39,11.85H894.48l1.74-3.5H1007ZM893.25,727.4H791.08l3.75-2.4h99.85Zm-1.31,2.2-2.18,3.65H782l5.69-3.65Zm-108-2.2H681.9l6.23-2.4H788Zm-97.8-4.4H587.88l11-3h95.45Zm-180.62-5,9.54-2h91.61L599,718Zm-5.9,0H405.37l11.56-2h92.41Zm91.74,2-11.48,3H481.7L496,720Zm-19.13,5-9.18,2.4H460.73l11.44-2.4Zm-8.55,4.6H668.22l-9.92,3.65h-108Zm87.8,6.15-9.52,3.5H528.34l12.82-3.5Zm-6.84,6H760.14l-7.48,4.5H633Zm103.85,7-7.22,4.35H615.2l11.29-4.35Zm-11.87,7.15L726.51,762H592.1l15.83-6.1Zm-4.21,9.1H870.79l-3.59,6H723.06Zm133,9-5.32,8.9H704.5l13.88-8.9Zm-.68,25.1h173l5.82,12H858.76Zm180.58,15.78,7.26,15H849.44l7.45-15Zm4.82-19-5.72-9.8h159.08l15.1,9.8ZM1196.64,774h146.14l23.1,8.9H1211.25Zm-4.92-3-9.85-6h137.55l15.58,6ZM1307,755.9h128.8l22.34,6.1H1323.6Zm-7.62-2.8-11.82-4.35h122.06l15.93,4.35Zm95.81-11.35H1507.5l21.07,4.5H1412.45Zm-9.57-2.5-13.41-3.5h107.18l16.39,3.5Zm-23-6-14-3.65h101.94l17.09,3.65Zm87.47-5.85L1438.4,725h97.78l13.86,2.4Zm-21.51-4.4L1414,720h93.36l17.32,3Zm73.43-5-11.75-2h91.31l13.6,2Zm-23.51-4-12.35-2.1h87.54L1568,714Zm-5.86,0h-88l-10.27-2.1h86.19Zm-95.09,0h-88.65l-8-2.1h86.86Zm-87.9,2,7.32,2h-93l-5.44-2Zm-87.06,4,7.79,3H1113l-4.93-3Zm-97.89-2-3.28-2h90.79l5.19,2Zm-3.1,2,4.63,3h-98.72l-1.75-3Zm-95.81,13.25H897.46l1.82-3.65h104.78ZM895.88,723H798l4.68-3h95Zm-96.31-5H706.3l5.19-2h91.4Zm-3.32,2-5,3H693.32l7.79-3Zm-96.49-2H606.2l7.33-2h91.66Zm-175.15-4,10-2.1h87.74l-8,2.1ZM519,714H428.48l12.14-2.1h88.61ZM423,714H335.3l14.27-2.1h85.7Zm-11.72,2-11.71,2H308.12l13.59-2Zm78.69,4-14.55,3H376.48l17.33-3Zm-24.26,5L454,727.4h-103l13.87-2.4Zm89,4.6-14,3.65H432.84l17.4-3.65Zm-23.53,6.15-13.39,3.5H404.23l16.69-3.5Zm-11.94,6h116L623,746.25H502.69Zm97,7-11.83,4.35H477.59l15.94-4.35Zm-19.44,7.15L580.13,762H445l22.35-6.1ZM584.31,765H721.53l-10,6H568.74Zm122.28,9-14.78,8.9h-154L561,774Zm-7.08,12.1H858.18l-5.85,9.8H684.22Zm150.9,13-7.18,12H660.47l18.76-12Zm-2.59,34h206.32l9.44,19.5H838.13Zm217.69,23.5,11.43,23.62H824.4l11.74-23.62Zm6.37-23.5h204.06l30,19.5H1083.27Zm191.84-18.25h185.15l38.93,15H1288.34Zm-6.15-3.75-19.74-12h170.1l31.21,12Zm-25-15.23-16.08-9.8h157.69l25.43,9.8ZM1356.22,774h145.89l32.6,8.9H1380.42Zm-8.15-3-16.31-6h137.39l22,6Zm101.33-15.1h124.34l28.56,6.1H1472.76Zm-10.72-2.8L1422,748.75h118.25l20.37,4.35Zm81.59-11.35h112.6l26,4.5H1542.26Zm-12.22-2.5-17.11-3.5h107.3l20.2,3.5Zm-29.33-6-17.84-3.65h101.86l21.07,3.65Zm78.6-5.85-14.11-2.4h99.6l16.32,2.4Zm-25.87-4.4-17.64-3h95l20.4,3Zm70.72-5-13.9-2h89.83l15.67,2Zm-27.8-4-14.59-2.1H1646l16.46,2.1Zm63.86-3.9-10.47-1.3h82.6l11.27,1.3Zm-6.36,0h-84.6l-9-1.3h83.45Zm-90.38,0h-85.88l-7.65-1.3h84.69Zm-91.32,0h-84.6l-6.35-1.3h83.44Zm-90.84,0H1274l-5-1.3h84.22Zm-84.66,1.8,7.69,2.1h-89.25l-5.71-2.1Zm-92.17-1.8-3.53-1.3h84.35l4.76,1.3Zm-.89,1.8,5.45,2.1h-88.88l-3.45-2.1Zm-86.13,4.1,3.08,2h-93.93l-1.17-2Zm-93.19-2-1.22-2.1h88.09l3.24,2.1Zm-101,0H812l3.28-2.1h87.24Zm-1.2,2-1.19,2H805.75l3.12-2Zm-93.85-2H716.68l5.45-2.1H809.7Zm-85-3.9H635.15l4.76-1.3h84.86Zm-4.89,1.8-5.71,2.1H620.86l7.69-2.1Zm-87.08-1.8h-86l6.2-1.3h84.83Zm-91.3,0H451l7.51-1.3h85.74Zm-92.15,0h-84l8.84-1.3h82.8Zm-89.12,0H271.34l10.18-1.3h84.09Zm-90.67,0H179.5L191,708.8h85.38Zm78.33,1.8L329.94,714H240.77l16.46-2.1ZM316.22,716l-13.72,2H209.41l15.68-2Zm71.61,4-17.58,3h-96.1l20.38-3Zm-29.29,5-14.06,2.4H244.26l16.3-2.4Zm84.83,4.6-17.71,3.65H317.25l21.09-3.65Zm-29.83,6.15-17,3.5h-114l20.22-3.5Zm94.62,6-17.22,4.5H370.86l21.45-4.5Zm-26.78,7-16.65,4.35H338.2l20.74-4.35ZM454,755.9,430.68,762H295.77l29.08-6.1ZM434,765H572l-16.31,6H412Zm113.52,9-24.19,8.9H368.4L401,774Zm-18,12.1H686.49l-16.27,9.8H504.11Zm135.36,13-20,12H464.6l31.21-12Zm-10.29,15.78H841l-9,15H631.21Zm175.47,18.25-11.65,19.5H595.72l30.42-19.5Zm-14,23.5-14.12,23.62H552.62l36.86-23.62ZM822,885h257.2l15,31H806.63Zm263.56-28.37h226.55l36.4,23.62H1099.4Zm246.64,0h225l61.32,23.62H1371Zm-6.56-4-32-19.5h202.57l50.61,19.5Zm141.67-37.75h184.47l54.94,15H1508.13Zm-10.2-3.75-32.69-12H1594l44,12Zm-41.39-15.23-26.64-9.8h157.31l35.89,9.8Zm103-21.9h139.76l41.67,8.9H1552.81Zm-11.49-3-23-6h132.1l28.09,6Zm82.2-15.1h125.13l35.21,6.1H1619.25Zm-13.68-2.8-21.27-4.35h118.8l25.11,4.35Zm92.4-6.85-26.46-4.5h115l30.6,4.5Zm-41.15-7-20.58-3.5h109.49l23.8,3.5Zm-35.28-6-21.46-3.65h103.83l24.82,3.65Zm75.78-5.85-16.68-2.4h97.79l18.8,2.4Zm-30.58-4.4-20.85-3h93.37l23.5,3Zm64.95-5-16.11-2h87l17.34,2Zm-32.22-4-16.92-2.1h84.5l18.21,2.1Zm59.12-3.9-11.68-1.3h84.51l12.65,1.3Zm-26.06-2.9-13-1.45h82.23L1786,707.2Zm-6.22,0h-81.62l-11.68-1.45h80.73Zm-87.34,0h-82L1517,705.75h80.75Zm-87.38,0h-83.21l-8.53-1.45h81.88Zm-88.34,0h-82l-7.09-1.45h80.75Zm-87.68,0H1262.9l-5.56-1.45H1339Zm-88.29,0h-82.84l-3.94-1.45h81.47Zm-83.9,1.6,3.37,1.3h-85.15l-2.14-1.3ZM1087,707.2l-2.38-1.45h81l3.77,1.45Zm-.63,2.9H1000l-.76-1.3h85.14Zm-88.07-2.9-.85-1.45h82.22l2.23,1.45Zm-.84,8.8,1,2H905l1-2Zm-92.16-8.8H822.6l2.26-1.45h81.32Zm-1,1.6-.77,1.3H818.07l2-1.3Zm-86.86-1.6H734.33l3.76-1.45h81.82Zm-2.65,1.6-2.16,1.3H726.8l3.38-1.3Zm-85.73-1.6H645.77l5.31-1.45h82Zm-88.76,0H557l6.92-1.45h82Zm-88.33,0H467.78l8.38-1.45h82.9Zm-89.23,0H381.5l9.85-1.45h79.94Zm-86.21,0H294.07l11.36-1.45h81.1Zm-87.57,0H205l12.77-1.45h82.72Zm-89.68,0H120.2L134,705.75h78.38Zm-14.43,1.6-11.73,1.3H92.53l12.4-1.3Zm66.84,3.1L235.09,714H145.15l18.5-2.1ZM219.23,716l-15.86,2H109.93l17.61-2Zm69.56,4-20.58,3h-98l23.52-3Zm-34.3,5L238,727.4H135.73l18.81-2.4Zm77.11,4.6-21.38,3.65H204.51l24.8-3.65Zm-36,6.15-20.5,3.5H163.75l23.78-3.5Zm88.85,6-21.83,4.5H242.13l26-4.5Zm-33.95,7-21.1,4.35H202.54l25.14-4.35Zm-34.69,7.15L286.2,762H151.12l35.24-6.1ZM419.2,765l-23,6H252.86l28.6-6Zm-34.44,9-34.05,8.9H196.12l42.43-8.9Zm-28.09,12.1h158L488,795.9H320.77Zm122.6,13-32.69,12H265l44.06-12Zm-24.41,15.78H638.71l-24.9,15H415.93Zm153.55,18.25L576,852.63H356.88l50.62-19.5Zm-39,23.5-39.23,23.62h-245l61.31-23.62ZM803.64,922h293.5l20.19,41.75H782.89Zm298.54-37h253.69l47.76,31H1120.29Zm310.69,37,64.33,41.75h-329L1123.79,922Zm298.47-6H1429.68l-50.87-31h252.07Zm179.92-35.75H1645.08l-64.23-23.62h223.88Zm-101.18-27.62H1570l-53-19.5h201.7Zm130-22.75H1732.71l-57.45-15h174.58Zm-87.78-18.75H1660.9l-46.05-12H1776ZM1761,795.9H1602.59l-37.53-9.8h150.07Zm58-21.9,51.38,8.9h-149l-43.5-8.9Zm-17.32-3H1663.24l-29.33-6h133.18Zm51.21-15.1,41.48,6.1H1760.76l-35.87-6.1Zm-19-2.8H1708.43l-25.58-4.35h121.46Zm45.95-11.35,35.26,4.5H1798.49l-31.27-4.5Zm-47-6,27.43,3.5H1749.85l-24.33-3.5Zm-19.58-2.5h-105.1l-25.37-3.65h101.87Zm37.54-8.25,20.81,2.4h-94l-19.33-2.4Zm-17.34-2h-91.3L1718,720h89.47Zm38.23-7,19.46,2h-91.38l-18-2Zm-19.47-2h-88.39l-18.88-2.1h86.83Zm33.16-5.2,12.61,1.3h-75.24l-13.28-1.3Zm-29.58-3,14.06,1.45h-76.74l-14.81-1.45Zm-30.56-3.15,16,1.65H1763l-16.86-1.65Zm-84,0,16.06,1.65H1676.2l-14.83-1.65Zm-84.64,0,14.31,1.65h-79.81l-13.29-1.65Zm-83.5,0,12.93,1.65h-79.42l-11.47-1.65Zm-82.62,0,11.22,1.65h-80.5l-9.7-1.65Zm-83.62,0,9.53,1.65H1337l-8.07-1.65Zm-82.65,0,7.72,1.65H1251.6l-6.32-1.65Zm-83.61,0,6,1.65H1166.6l-4.49-1.65Zm-83.14,0,4.28,1.65h-79.58l-2.7-1.65Zm-82.63,0,2.54,1.65H996.6l-1-1.65Zm-162.14,0H991l.8,1.65H911.88Zm-1.57,3.15h81.39l.71,1.45H910.41Zm-1.51,3H994l.63,1.3H909Zm85.88,3.1,1,2.1H907l1.05-2.1Zm-165.73-9.3h78.3l-1,1.65H827.2Zm-83.5,0h78.87l-2.74,1.65H742Zm-4.65,0-4.48,1.65H656.58l6-1.65Zm-83.66,0-6.32,1.65H571.1L579,702.6Zm-83.62,0-8,1.65H484.82l9.54-1.65Zm-84.6,0-9.66,1.65H401.54l11.21-1.65Zm-81.6,0-11.32,1.65H317.19l12.93-1.65Zm-82.64,0-13.09,1.65H231l14.53-1.65Zm-84.66,0L226,704.25H148.35l15.75-1.65Zm-159.2,0H159.4l-16.08,1.65H64.63Zm-32.47,3.15H128.7l-14.14,1.45H34.22ZM4.32,710.1l13.4-1.3H99l-12.68,1.3Zm71,1.8H157L138,714H55.31ZM17.14,718l19.09-2H120l-18,2Zm75.18,2h95.19l-23.79,3H65.9Zm-65.16,7.4L48.29,725h99.57l-19,2.4Zm91.33,2.2H222.94l-25,3.65h-108Zm-75.64,9.65,27.43-3.5H180.75l-24,3.5Zm103.92,2.5H260.43l-26.35,4.5H116.19Zm-47.56,7H219.43L194,753.1H69.65ZM9.19,762l41.44-6.1H177.55L141.83,762Zm124.59,3H271.65l-29.1,6H99.11ZM30.35,782.9,81.77,774H228l-43.17,8.9Zm150.52,3.2h157.6L301,795.9H134.14Zm-119.31,25,57.33-12H288.72l-46,12Zm189.68,3.75H436.39l-40.78,15H196.28Zm-66.87,18.25h202.4l-53,19.5H112.92ZM11.7,880.25l86.56-23.62H322.88l-64.22,23.62ZM272.86,885H522.27L470.8,916H192.4ZM68.46,963.75,176.83,922h284l-69.33,41.75Zm644.71,65.08H320.83l91.39-58.58H748.16Zm37.37,0,29.12-58.58h340.82l28.33,58.58Zm435.65,0L1152,970.25h335.24l90.26,58.58Z" transform="translate(9.25)"/></g><path id="mountain" d="M1921.75,701H-9.25s103-46,146-65c17.5-6.5,69.5,59.5,171.5,34.5,39-9,46-19,60-19s98,14,202,0,198-5,278-67c64-32,86-14,134-29,26,12,65,71,174,49,31-9,74-2,115-29s249,89,658,96Z" transform="translate(9.25)"/></svg>