<svg id="blue" xmlns="http://www.w3.org/2000/svg" viewBox="0 0 224.63 139"><defs><style>.cls-1{fill:#1183bb;}.cls-1,.cls-2,.cls-3{stroke:#353535;stroke-miterlimit:10;stroke-width:2px;}.cls-2,.cls-6{fill:#c62637;}.cls-3,.cls-4{fill:#273037;}.cls-5{fill:#bababa;}</style></defs><title>blue-right-bottom</title><g id="blue-right-bottom"><path class="cls-1" d="M426.49,140v40.3H230v13.32H370.52a5.54,5.54,0,0,1,5.24,4.55l17,75.82H230v3H444.06a8.56,8.56,0,0,0,8.56-8.56V140Zm14.79,132.27a5.14,5.14,0,1,1,5.14-5.13A5.14,5.14,0,0,1,441.28,272.27Z" transform="translate(-228.99 -139)"/><polygon class="cls-2" points="145.16 2.76 93.3 2.76 1 2.76 1 41.3 197.49 41.3 197.49 1 145.16 1 145.16 2.76"/><path class="cls-3" d="M235.13,205.28a5.14,5.14,0,0,1-5.14,5.14V274H392.75l-17-75.82a5.54,5.54,0,0,0-5.24-4.55H230v6.52A5.14,5.14,0,0,1,235.13,205.28Zm130,51.58A5.14,5.14,0,1,1,360,262,5.14,5.14,0,0,1,365.13,256.86Zm-44.65-23.05a5.14,5.14,0,1,1-5.14,5.14A5.14,5.14,0,0,1,320.48,233.81Z" transform="translate(-228.99 -139)"/><circle class="cls-4" cx="212.29" cy="128.14" r="5.14"/><circle class="cls-5" cx="365.13" cy="262" r="5.14" transform="translate(-245.65 360.07) rotate(-67.5)"/><circle class="cls-6" cx="91.49" cy="99.95" r="5.14"/><path class="cls-6" d="M235.13,205.28a5.14,5.14,0,0,0-5.14-5.14v10.28A5.14,5.14,0,0,0,235.13,205.28Z" transform="translate(-228.99 -139)"/></g></svg>