<svg id="blue" xmlns="http://www.w3.org/2000/svg" viewBox="0 0 224.63 139"><defs><style>.cls-1{fill:#1183bb;}.cls-1,.cls-2,.cls-3{stroke:#353535;stroke-miterlimit:10;stroke-width:2px;}.cls-2,.cls-6{fill:#c62637;}.cls-3,.cls-4{fill:#273037;}.cls-5{fill:#bababa;}</style></defs><title>blue-left-bottom</title><g id="blue-left-bottom"><path class="cls-1" d="M68.5,274l17-75.82a5.54,5.54,0,0,1,5.24-4.55H230V180.3H33.5V140H7.36V268.44A8.57,8.57,0,0,0,15.93,277H230v-3Zm-49.8-1.72a5.14,5.14,0,1,1,5.14-5.13A5.14,5.14,0,0,1,18.7,272.27Z" transform="translate(-6.36 -139)"/><polygon class="cls-2" points="131.31 2.76 79.45 2.76 79.45 1 27.13 1 27.13 41.3 223.63 41.3 223.63 2.76 131.31 2.76"/><path class="cls-3" d="M85.49,198.17,68.5,274H230V210.42a5.14,5.14,0,0,1,0-10.28v-6.52H90.73A5.54,5.54,0,0,0,85.49,198.17Zm55.28,35.64a5.14,5.14,0,1,1-5.14,5.14A5.14,5.14,0,0,1,140.77,233.81ZM94.84,256.86A5.14,5.14,0,1,1,89.7,262,5.14,5.14,0,0,1,94.84,256.86Z" transform="translate(-6.36 -139)"/><circle class="cls-4" cx="18.7" cy="267.14" r="5.14" transform="translate(-189.78 -47.53) rotate(-45)"/><circle class="cls-5" cx="94.84" cy="262" r="5.14" transform="translate(-47.11 -120.43) rotate(-9.22)"/><circle class="cls-6" cx="140.77" cy="238.95" r="5.14" transform="translate(-134.1 30.53) rotate(-45)"/><path class="cls-6" d="M224.85,205.28a5.14,5.14,0,0,0,5.14,5.14V200.14A5.14,5.14,0,0,0,224.85,205.28Z" transform="translate(-6.36 -139)"/></g></svg>