<svg id="Boom_Box" data-name="Boom Box" xmlns="http://www.w3.org/2000/svg" xmlns:xlink="http://www.w3.org/1999/xlink" viewBox="0 0 703.49 352.95" width="703.49" height="352.95">
  <defs>
    <style>.cls-1,.cls-7{fill:none;}.cls-10,.cls-2,.cls-3,.cls-4,.cls-8{fill:#36184c;}.cls-3,.cls-7{stroke:#1cc8b2;}.cls-10,.cls-12,.cls-15,.cls-16,.cls-17,.cls-18,.cls-19,.cls-21,.cls-23,.cls-3,.cls-4,.cls-5,.cls-6,.cls-7,.cls-8{stroke-miterlimit:10;}.cls-10,.cls-12,.cls-3,.cls-7{stroke-width:2.18px;}.cls-10,.cls-23,.cls-4,.cls-8{stroke:#fff;}.cls-4{stroke-width:0.73px;}.cls-5{fill:#e2e2e2;stroke-width:2.55px;}.cls-5,.cls-6{stroke:#36184c;}.cls-15,.cls-16,.cls-17,.cls-18,.cls-19,.cls-21,.cls-6{fill:#b7b7b7;}.cls-6{stroke-width:3.64px;}.cls-8{stroke-width:4.37px;}.cls-9{fill:#1cc8b2;}.cls-11{fill:#fff;}.cls-12{fill:#f2f2f2;stroke:#a0a0a0;}.cls-13{fill:#9f3335;}.cls-14{fill:#666;}.cls-15,.cls-16,.cls-17,.cls-18,.cls-19,.cls-21{stroke:#231f20;}.cls-15{stroke-width:1.07px;}.cls-16{stroke-width:1.13px;}.cls-17{stroke-width:1.32px;}.cls-18{stroke-width:1.26px;}.cls-19{stroke-width:1.33px;}.cls-20,.cls-23{fill:#231f20;}.cls-21{stroke-width:1.24px;}.cls-22{clip-path:url(#clip-path);}.cls-23{stroke-width:0.1px;}</style>
    <clipPath id="clip-path" transform="translate(-84.93 -62.05)">
      <rect class="cls-1" x="412.98" y="200.12" width="47.42" height="26.78" />
    </clipPath>
  </defs>
  <title>boom_box</title>
  <g id="handle">
    <rect id="right_handle" data-name="right handle" class="cls-2" x="665.4" y="22.93" width="8.73" height="41.37" />
    <rect id="left_handle" data-name="left handle" class="cls-2" x="21.78" y="22.93" width="8.73" height="41.37" />
    <path id="main_handle" data-name="main handle" class="cls-3" d="M3.64,1.09H698a2.55,2.55,0,0,1,2.55,2.55V5.35a17.57,17.57,0,0,1-17.57,17.57H15.28A14.19,14.19,0,0,1,1.09,8.74V3.64A2.55,2.55,0,0,1,3.64,1.09Z" />
  </g>
  <g id="buttons">
    <rect class="cls-4" x="288.99" y="62.34" width="22.31" height="11.48" />
    <rect class="cls-4" x="316.66" y="62.34" width="22.31" height="11.48" />
    <rect class="cls-4" x="344.46" y="62.34" width="22.31" height="11.48" />
    <rect class="cls-4" x="372.19" y="62.34" width="22.31" height="11.48" />
    <rect class="cls-4" x="400.75" y="62.34" width="22.31" height="11.48" />
  </g>
  <rect id="main" class="cls-5" x="191.42" y="72.71" width="321.24" height="278.96" />
  <g id="left_speaker" data-name="left speaker">
    <rect id="speaker_main" data-name="speaker main" class="cls-6" x="2.24" y="64.3" width="191.21" height="286.78" />
    <rect id="speaker_line" data-name="speaker line" class="cls-7" x="9.43" y="72.23" width="176.83" height="270.19" />
    <g id="bottom_speaker" data-name="bottom speaker">
      <circle id="out_circle" data-name="out circle" class="cls-8" cx="97.2" cy="251.38" r="75.42" />
      <circle id="middle_circle" data-name="middle circle" class="cls-9" cx="97.2" cy="251.38" r="59.97" />
      <circle id="inner_circle" data-name="inner circle" class="cls-10" cx="97.2" cy="251.38" r="27.71" />
      <path id="shadow" class="cls-11" d="M162.93,309.24A11.9,11.9,0,1,0,182,295c-3.93-5.26-9.94-4.4-15.21-.46S159,304,162.93,309.24Z" transform="translate(-84.93 -62.05)" />
    </g>
    <g id="top_speaker" data-name="top speaker">
      <circle id="out_circle-2" data-name="out circle" class="cls-8" cx="95.99" cy="118.34" r="37.52" />
      <circle id="middle_circle-2" data-name="middle circle" class="cls-9" cx="95.99" cy="118.34" r="28.92" />
      <circle id="inner_circle-2" data-name="inner circle" class="cls-10" cx="95.99" cy="118.34" r="13.79" />
      <path id="shadow-2" data-name="shadow" class="cls-11" d="M172.51,179.32a6.25,6.25,0,1,0,10-7.49c-2.07-2.77-5.22-2.31-8-.24S170.44,176.55,172.51,179.32Z" transform="translate(-84.93 -62.05)" />
    </g>
  </g>
  <g id="right_speaker" data-name="right speaker">
    <rect id="speaker_main-2" data-name="speaker main" class="cls-6" x="510.45" y="64.3" width="191.21" height="286.78" />
    <rect id="speaker_line-2" data-name="speaker line" class="cls-7" x="517.65" y="72.23" width="176.83" height="270.19" />
    <g id="bottom_speaker-2" data-name="bottom speaker">
      <circle id="out_circle-3" data-name="out circle" class="cls-8" cx="605.42" cy="251.38" r="75.42" />
      <circle id="middle_circle-3" data-name="middle circle" class="cls-9" cx="605.42" cy="251.38" r="59.97" />
      <circle id="inner_circle-3" data-name="inner circle" class="cls-10" cx="605.42" cy="251.38" r="27.71" />
      <path id="shadow-3" data-name="shadow" class="cls-11" d="M671,309.24A11.9,11.9,0,1,0,690.07,295c-3.93-5.26-9.94-4.4-15.21-.46S667.07,304,671,309.24Z" transform="translate(-84.93 -62.05)" />
    </g>
    <g id="top_speaker-2" data-name="top speaker">
      <circle id="out_circle-4" data-name="out circle" class="cls-8" cx="604.21" cy="118.34" r="37.52" />
      <circle id="middle_circle-4" data-name="middle circle" class="cls-9" cx="604.21" cy="118.34" r="28.92" />
      <circle id="inner_circle-4" data-name="inner circle" class="cls-10" cx="604.21" cy="118.34" r="13.79" />
      <path id="shadow-4" data-name="shadow" class="cls-11" d="M680.59,179.32a6.25,6.25,0,1,0,10-7.49c-2.07-2.77-5.22-2.31-8-.24S678.52,176.55,680.59,179.32Z" transform="translate(-84.93 -62.05)" />
    </g>
  </g>
  <g id="knobs">
    <circle id="knob1" class="cls-2" cx="289.26" cy="333.15" r="10.77" />
    <path id="point1" class="cls-9" d="M382,387.75,375.84,393l.78.9,6.18-5.21-.45-.55C382.22,388,382.09,387.88,382,387.75Z" transform="translate(-84.93 -62.05)" />
    <circle id="knob2" class="cls-2" cx="328.94" cy="328.18" r="15.81" />
    <path id="point2" class="cls-9" d="M425.28,379.28l-9,7.76,1.14,1.33,9.07-7.64q-.3-.39-.66-.81C425.66,379.69,425.47,379.48,425.28,379.28Z" transform="translate(-84.93 -62.05)" />
    <circle id="knob3" class="cls-2" cx="374.29" cy="325.27" r="19.85" />
    <path id="point3" class="cls-9" d="M473.73,373.77l-12,10.38,1.14,1.32L475,375.23l-.66-.82Z" transform="translate(-84.93 -62.05)" />
    <circle id="knob4" class="cls-2" cx="414.81" cy="331.89" r="10.77" />
    <path id="point4" class="cls-9" d="M507.51,386.48l-6.11,5.29.77.91,6.18-5.21-.45-.55Z" transform="translate(-84.93 -62.05)" />
  </g>
  <g id="radio_signal" data-name="radio signal">
    <rect class="cls-12" x="238.45" y="272.14" width="226.26" height="22.39" />
    <rect class="cls-13" x="262.57" y="275.67" width="0.92" height="17.76" />
    <rect class="cls-14" x="276.06" y="280.39" width="0.55" height="13.12" />
    <rect class="cls-14" x="278.43" y="286.18" width="0.55" height="7.32" />
    <rect class="cls-14" x="280.75" y="280.38" width="0.55" height="13.12" />
    <rect class="cls-14" x="282.86" y="286.18" width="0.55" height="7.32" />
    <rect class="cls-14" x="285.39" y="280.38" width="0.55" height="13.12" />
    <rect class="cls-14" x="287.92" y="286.18" width="0.55" height="7.32" />
    <rect class="cls-14" x="290.44" y="280.39" width="0.55" height="13.12" />
    <rect class="cls-14" x="292.81" y="286.18" width="0.55" height="7.32" />
    <rect class="cls-14" x="295.14" y="280.39" width="0.55" height="13.12" />
    <rect class="cls-14" x="297.25" y="286.18" width="0.55" height="7.32" />
    <rect class="cls-14" x="299.78" y="280.39" width="0.55" height="13.12" />
    <rect class="cls-14" x="302.3" y="286.18" width="0.55" height="7.32" />
    <rect class="cls-14" x="304.83" y="280.39" width="0.55" height="13.12" />
    <rect class="cls-14" x="307.2" y="286.18" width="0.55" height="7.32" />
    <rect class="cls-14" x="309.52" y="280.38" width="0.55" height="13.12" />
    <rect class="cls-14" x="311.64" y="286.18" width="0.55" height="7.32" />
    <rect class="cls-14" x="314.16" y="280.38" width="0.55" height="13.12" />
    <rect class="cls-14" x="316.69" y="286.18" width="0.55" height="7.32" />
    <rect class="cls-14" x="319.22" y="280.4" width="0.55" height="13.12" />
    <rect class="cls-14" x="321.59" y="286.19" width="0.55" height="7.32" />
    <rect class="cls-14" x="323.91" y="280.39" width="0.55" height="13.12" />
    <rect class="cls-14" x="326.03" y="286.19" width="0.55" height="7.32" />
    <rect class="cls-14" x="328.55" y="280.39" width="0.55" height="13.12" />
    <rect class="cls-14" x="331.08" y="286.19" width="0.55" height="7.32" />
    <rect class="cls-14" x="333.6" y="280.4" width="0.55" height="13.12" />
    <rect class="cls-14" x="335.98" y="286.19" width="0.55" height="7.32" />
    <rect class="cls-14" x="338.3" y="280.39" width="0.55" height="13.12" />
    <rect class="cls-14" x="340.41" y="286.19" width="0.55" height="7.32" />
    <rect class="cls-14" x="342.94" y="280.39" width="0.55" height="13.12" />
    <rect class="cls-14" x="345.47" y="286.19" width="0.55" height="7.32" />
    <rect class="cls-14" x="347.99" y="280.41" width="0.55" height="13.12" />
    <rect class="cls-14" x="350.36" y="286.2" width="0.55" height="7.32" />
    <rect class="cls-14" x="352.69" y="280.4" width="0.55" height="13.12" />
    <rect class="cls-14" x="354.8" y="286.2" width="0.55" height="7.32" />
    <rect class="cls-14" x="357.33" y="280.4" width="0.55" height="13.12" />
    <rect class="cls-14" x="359.85" y="286.2" width="0.55" height="7.32" />
    <rect class="cls-14" x="362.38" y="280.42" width="0.55" height="13.12" />
    <rect class="cls-14" x="364.75" y="286.21" width="0.55" height="7.32" />
    <rect class="cls-14" x="367.07" y="280.41" width="0.55" height="13.12" />
    <rect class="cls-14" x="369.19" y="286.21" width="0.55" height="7.32" />
    <rect class="cls-14" x="371.71" y="280.41" width="0.55" height="13.12" />
    <rect class="cls-14" x="374.24" y="286.21" width="0.55" height="7.32" />
    <rect class="cls-14" x="377.19" y="280.41" width="0.55" height="13.12" />
    <rect class="cls-14" x="379.56" y="286.2" width="0.55" height="7.32" />
    <rect class="cls-14" x="381.89" y="280.4" width="0.55" height="13.12" />
    <rect class="cls-14" x="384" y="286.2" width="0.55" height="7.32" />
    <rect class="cls-14" x="386.53" y="280.4" width="0.55" height="13.12" />
    <rect class="cls-14" x="389.05" y="286.2" width="0.55" height="7.32" />
    <rect class="cls-14" x="391.63" y="280.41" width="0.55" height="13.12" />
    <rect class="cls-14" x="394" y="286.2" width="0.55" height="7.32" />
    <rect class="cls-14" x="396.32" y="280.4" width="0.55" height="13.12" />
    <rect class="cls-14" x="398.43" y="286.2" width="0.55" height="7.32" />
    <rect class="cls-14" x="400.96" y="280.4" width="0.55" height="13.12" />
    <rect class="cls-14" x="403.49" y="286.2" width="0.55" height="7.32" />
    <rect class="cls-14" x="406.01" y="280.41" width="0.55" height="13.12" />
    <rect class="cls-14" x="408.38" y="286.2" width="0.55" height="7.32" />
    <rect class="cls-14" x="410.71" y="280.4" width="0.55" height="13.12" />
    <rect class="cls-14" x="412.82" y="286.2" width="0.55" height="7.32" />
    <rect class="cls-14" x="415.35" y="280.4" width="0.55" height="13.12" />
    <rect class="cls-14" x="417.87" y="286.2" width="0.55" height="7.32" />
    <rect class="cls-14" x="420.4" y="280.4" width="0.55" height="13.12" />
    <rect class="cls-14" x="422.77" y="286.19" width="0.55" height="7.32" />
    <rect class="cls-14" x="425.09" y="280.4" width="0.55" height="13.12" />
    <rect class="cls-14" x="427.21" y="286.19" width="0.55" height="7.32" />
    <rect class="cls-14" x="429.74" y="280.4" width="0.55" height="13.12" />
    <rect class="cls-14" x="432.26" y="286.19" width="0.55" height="7.32" />
    <rect class="cls-14" x="434.87" y="280.4" width="0.55" height="13.12" />
    <rect class="cls-14" x="437.4" y="286.19" width="0.55" height="7.32" />
    <rect class="cls-14" x="439.92" y="280.4" width="0.55" height="13.12" />
    <rect class="cls-14" x="442.29" y="286.19" width="0.55" height="7.32" />
    <rect class="cls-14" x="444.62" y="280.39" width="0.55" height="13.12" />
    <rect class="cls-14" x="446.73" y="286.19" width="0.55" height="7.32" />
    <rect class="cls-14" x="449.26" y="280.39" width="0.55" height="13.12" />
    <rect class="cls-14" x="451.78" y="286.19" width="0.55" height="7.32" />
    <rect class="cls-14" x="454.3" y="280.39" width="0.55" height="13.12" />
    <rect class="cls-14" x="456.41" y="286.19" width="0.55" height="7.32" />
    <rect class="cls-14" x="458.94" y="280.39" width="0.55" height="13.12" />
    <rect class="cls-14" x="461.46" y="286.19" width="0.55" height="7.32" />
    <rect class="cls-14" x="261.88" y="280.39" width="0.55" height="13.12" />
    <rect class="cls-14" x="264.25" y="286.18" width="0.55" height="7.32" />
    <rect class="cls-14" x="266.58" y="280.38" width="0.55" height="13.12" />
    <rect class="cls-14" x="268.69" y="286.18" width="0.55" height="7.32" />
    <rect class="cls-14" x="271.22" y="280.38" width="0.55" height="13.12" />
    <rect class="cls-14" x="273.74" y="286.18" width="0.55" height="7.32" />
    <rect class="cls-14" x="247.78" y="280.39" width="0.55" height="13.12" />
    <rect class="cls-14" x="250.15" y="286.18" width="0.55" height="7.32" />
    <rect class="cls-14" x="252.47" y="280.38" width="0.55" height="13.12" />
    <rect class="cls-14" x="254.59" y="286.18" width="0.55" height="7.32" />
    <rect class="cls-14" x="257.11" y="280.38" width="0.55" height="13.12" />
    <rect class="cls-14" x="259.64" y="286.18" width="0.55" height="7.32" />
    <rect class="cls-14" x="243.22" y="280.39" width="0.55" height="13.12" />
    <rect class="cls-14" x="245.59" y="286.18" width="0.55" height="7.32" />
    <rect class="cls-14" x="240.9" y="286.17" width="0.55" height="7.32" />
  </g>
  <g id="blue_tape" data-name="blue tape">
    <rect class="cls-15" x="217.37" y="93.71" width="268.01" height="164.93" rx="5.15" />
    <rect class="cls-16" x="233.1" y="102.5" width="236.55" height="97.93" />
    <path class="cls-17" d="M534.28,318.87H339.1l10.23-45.63a3.34,3.34,0,0,1,3.15-2.74H520.9a3.34,3.34,0,0,1,3.15,2.74Z" transform="translate(-84.93 -62.05)" />
    <path class="cls-18" d="M380.74,187.73H491.87a25.78,25.78,0,0,1,25.78,25.78h0a25.78,25.78,0,0,1-25.78,25.78H380.74A25.78,25.78,0,0,1,355,213.51h0A25.78,25.78,0,0,1,380.74,187.73Z" transform="translate(-84.93 -62.05)" />
    <circle class="cls-19" cx="297.67" cy="151.46" r="17.01" />
    <circle class="cls-19" cx="405.85" cy="151.46" r="17.01" />
    <g id="outside-4">
      <circle class="cls-20" cx="224.2" cy="99.41" r="3.09" />
      <circle class="cls-20" cx="478.56" cy="99.41" r="3.09" />
      <circle class="cls-20" cx="224.2" cy="252.7" r="3.09" />
      <circle class="cls-20" cx="478.56" cy="252.7" r="3.09" />
    </g>
    <g id="inside-4">
      <circle class="cls-20" cx="351.38" cy="215.47" r="3.09" />
      <circle class="cls-20" cx="270.03" cy="249.61" r="3.09" />
      <circle class="cls-20" cx="297.67" cy="235.73" r="3.09" />
      <circle class="cls-20" cx="405.85" cy="235.73" r="3.09" />
      <circle class="cls-20" cx="432.72" cy="249.61" r="3.09" />
    </g>
    <path id="left-4" class="cls-20" d="M385.82,225.69l-1.74-1.61a2.31,2.31,0,0,0-3.09,0l-1.75,1.59a2.29,2.29,0,0,1-3.88-1.86l.17-2.34a2.29,2.29,0,0,0-1.95-2.41l-2.35-.36a2.26,2.26,0,0,1-.94-4.12l2-1.3a2.26,2.26,0,0,0,.69-3l-1.19-2.06a2.26,2.26,0,0,1,.82-3.09,2.28,2.28,0,0,1,1.84-.19l2.27.7a2.29,2.29,0,0,0,2.78-1.3l.88-2.18a2.3,2.3,0,0,1,3-1.27,2.28,2.28,0,0,1,1.26,1.27l.88,2.18a2.3,2.3,0,0,0,2.82,1.41l2.28-.68a2.28,2.28,0,0,1,2.66,3.3l-1.18,2.06a2.25,2.25,0,0,0,.69,3l2,1.34a2.26,2.26,0,0,1,.68,3.11,2.28,2.28,0,0,1-1.63,1l-2.35.25a2.24,2.24,0,0,0-1.94,2.39l.18,2.34a2.29,2.29,0,0,1-2.16,2.42A2.34,2.34,0,0,1,385.82,225.69Z" transform="translate(-84.93 -62.05)" />
    <path id="right-4" class="cls-20" d="M494.09,225.69l-1.76-1.61a2.31,2.31,0,0,0-3.09,0l-1.74,1.59a2.32,2.32,0,0,1-3.27,0,2.36,2.36,0,0,1-.64-1.81l.18-2.34a2.3,2.3,0,0,0-1.94-2.41l-2.35-.36a2.27,2.27,0,0,1-1-4.12l2-1.3a2.24,2.24,0,0,0,.69-3L480,208.22a2.26,2.26,0,0,1,2.65-3.28l2.28.7a2.31,2.31,0,0,0,2.81-1.32l.86-2.19a2.31,2.31,0,0,1,4.27,0l.88,2.19a2.3,2.3,0,0,0,2.82,1.43l2.27-.68a2.28,2.28,0,0,1,2.66,3.3l-1.19,2.06a2.26,2.26,0,0,0,.7,3l2,1.34a2.25,2.25,0,0,1-1,4.13l-2.35.35a2.26,2.26,0,0,0-1.93,2.39l.17,2.34a2.29,2.29,0,0,1-3.83,1.71Z" transform="translate(-84.93 -62.05)" />
    <rect class="cls-21" x="328.05" y="138.07" width="47.42" height="26.78" />
    <g class="cls-22">
      <circle class="cls-20" cx="383.91" cy="151.46" r="36.74" />
      <circle class="cls-23" cx="383.91" cy="151.46" r="32.44" />
      <circle class="cls-23" cx="383.91" cy="151.46" r="26.78" />
      <circle class="cls-23" cx="383.91" cy="151.46" r="20.3" />
      <circle class="cls-23" cx="383.91" cy="151.46" r="13.01" />
    </g>
    <g class="cls-22">
      <circle class="cls-20" cx="303.67" cy="151.46" r="36.74" />
      <circle class="cls-23" cx="303.67" cy="151.46" r="32.44" />
      <circle class="cls-23" cx="303.67" cy="151.46" r="26.78" />
      <circle class="cls-23" cx="303.67" cy="151.46" r="20.3" />
      <circle class="cls-23" cx="303.67" cy="151.46" r="13.01" />
    </g>
  </g>
</svg>