<svg id="green" xmlns="http://www.w3.org/2000/svg" xmlns:xlink="http://www.w3.org/1999/xlink" viewBox="0 0 224.63 139"><defs><style>.cls-1{fill:#9ccb47;}.cls-1,.cls-2,.cls-4,.cls-5{stroke:#353535;}.cls-1,.cls-2,.cls-4,.cls-5,.cls-7,.cls-8,.cls-9{stroke-miterlimit:10;}.cls-1,.cls-8{stroke-width:2px;}.cls-2{fill:#e9efba;}.cls-3{fill:url(#linear-gradient);}.cls-4{fill:#b0b0b0;}.cls-5{fill:#d6e37f;stroke-width:2.21px;}.cls-6{fill:#353535;}.cls-7,.cls-8{fill:#fff;stroke:#6e2a84;}.cls-7{stroke-width:3px;}.cls-9{stroke:#fff;stroke-width:0.17px;}</style><linearGradient id="linear-gradient" x1="85.58" y1="56.12" x2="85.58" y2="141.76" gradientUnits="userSpaceOnUse"><stop offset="0.33" stop-color="#ee3431"/><stop offset="0.33" stop-color="#4dc6dd"/><stop offset="0.66" stop-color="#52c6d6"/><stop offset="0.66" stop-color="#4ab347"/></linearGradient></defs><title>green-left-top</title><g id="green-left-top"><path class="cls-1" d="M33.5,56.12V17.61H230V3H15.93a8.57,8.57,0,0,0-8.57,8.56V140H33.5ZM18.7,17.61a5.14,5.14,0,1,1,5.14-5.14A5.14,5.14,0,0,1,18.7,17.61Z" transform="translate(-6.36 -2)"/><polygon class="cls-2" points="131.31 54.12 223.63 54.12 223.63 15.61 27.13 15.61 27.13 54.12 131.31 54.12"/><path class="cls-2" d="M125.5,140a42.82,42.82,0,0,1,12.17-83.88H33.5V140Z" transform="translate(-6.36 -2)"/><path class="cls-3" d="M125.5,140a42.82,42.82,0,0,1,12.17-83.88H33.5V140Z" transform="translate(-6.36 -2)"/><path class="cls-4" d="M230,140V121.2H191.24V76.71H230V56.12H137.67A42.82,42.82,0,0,0,125.5,140ZM140.77,70.69A28.26,28.26,0,1,1,112.51,99,28.26,28.26,0,0,1,140.77,70.69Z" transform="translate(-6.36 -2)"/><path class="cls-5" d="M112.51,99a28.26,28.26,0,1,0,28.26-28.26A28.26,28.26,0,0,0,112.51,99Zm23.07-15.24L137,80.08a3.82,3.82,0,0,1,7.07,0l1.45,3.63a3.85,3.85,0,0,0,4.7,2.35L154,84.93a3.78,3.78,0,0,1,4.42,5.48l-2,3.42a3.75,3.75,0,0,0,1.15,5l3.27,2.23a3.73,3.73,0,0,1-1.58,6.85l-3.9.43a3.72,3.72,0,0,0-3.22,4l.29,3.89a3.8,3.8,0,0,1-3.58,4,3.84,3.84,0,0,1-2.81-1l-2.89-2.68a3.87,3.87,0,0,0-5.14,0l-2.89,2.64a3.82,3.82,0,0,1-6.46-3.08l.29-3.89a3.82,3.82,0,0,0-3.23-4l-3.91-.59a3.77,3.77,0,0,1-1.57-6.86l3.28-2.15a3.74,3.74,0,0,0,1.15-5l-2-3.42a3.75,3.75,0,0,1,4.42-5.45L131,85.87A3.81,3.81,0,0,0,135.58,83.71Z" transform="translate(-6.36 -2)"/><circle class="cls-6" cx="18.7" cy="12.47" r="5.14" transform="translate(-9.7 14.88) rotate(-45)"/><path class="cls-7" d="M124.13,85a3.76,3.76,0,0,0-1.36,5.13l2,3.42a3.74,3.74,0,0,1-1.15,5l-3.28,2.15a3.77,3.77,0,0,0,1.57,6.86l3.91.59a3.82,3.82,0,0,1,3.23,4l-.29,3.89a3.82,3.82,0,0,0,6.46,3.08l2.89-2.64a3.87,3.87,0,0,1,5.14,0l2.89,2.68a3.84,3.84,0,0,0,2.81,1,3.8,3.8,0,0,0,3.58-4l-.29-3.89a3.72,3.72,0,0,1,3.22-4l3.9-.43a3.73,3.73,0,0,0,1.58-6.85l-3.27-2.23a3.75,3.75,0,0,1-1.15-5l2-3.42A3.78,3.78,0,0,0,154,84.93l-3.78,1.13a3.85,3.85,0,0,1-4.7-2.35l-1.45-3.63a3.82,3.82,0,0,0-7.07,0l-1.46,3.63A3.81,3.81,0,0,1,131,85.87l-3.77-1.17A3.77,3.77,0,0,0,124.13,85Z" transform="translate(-6.36 -2)"/><path class="cls-8" d="M227.2,76.71H207.57a61,61,0,0,1,0,44.49H227.2a61,61,0,0,1,0-44.49Z" transform="translate(-6.36 -2)"/><path d="M223,99a60.92,60.92,0,0,0,4.2,22.25H230V76.71H227.2A60.83,60.83,0,0,0,223,99Z" transform="translate(-6.36 -2)"/><path d="M207.57,76.71h-7.75a53.84,53.84,0,0,1,0,44.49h7.75a61,61,0,0,0,0-44.49Z" transform="translate(-6.36 -2)"/><path class="cls-9" d="M199.82,76.71h-8.58v3.83a44.47,44.47,0,0,1,0,36.82v3.84h8.58a53.84,53.84,0,0,0,0-44.49Z" transform="translate(-6.36 -2)"/><path class="cls-9" d="M191.24,80.54v36.82a44.47,44.47,0,0,0,0-36.82Z" transform="translate(-6.36 -2)"/></g></svg>