<svg id="white_tape" data-name="white tape" xmlns="http://www.w3.org/2000/svg" viewBox="0 0 131.13 81.07"><defs><style>.cls-1,.cls-3{fill:#59bf8f;}.cls-1,.cls-2,.cls-3,.cls-4,.cls-5{stroke:#231f20;}.cls-1,.cls-2,.cls-3,.cls-4,.cls-5,.cls-6{stroke-miterlimit:10;}.cls-1{stroke-width:1.04px;}.cls-2{fill:#0a3858;stroke-width:1.1px;}.cls-3{stroke-width:1.22px;}.cls-4,.cls-5{fill:#fff;}.cls-4{stroke-width:1.29px;}.cls-5{stroke-width:1.2px;}.cls-6{stroke:#fff;stroke-width:0.1px;}</style></defs><title>green-left top</title><g id="green-left_top" data-name="green-left top"><path class="cls-1" d="M17.39,11H132.13V2.5H7.13a5,5,0,0,0-5,5v75H17.39ZM8.74,11a3,3,0,1,1,3-3A3,3,0,0,1,8.74,11Z" transform="translate(-1.61 -1.98)"/><path class="cls-2" d="M132.13,82.5v-1H78.22a25.08,25.08,0,0,1-25-25h0a25.09,25.09,0,0,1,25-25h53.91V11H17.39V82.5Z" transform="translate(-1.61 -1.98)"/><path class="cls-3" d="M78.22,31.52a25.09,25.09,0,0,0-25,25h0a25.08,25.08,0,0,0,25,25h53.91v-12H109.5v-26h22.63v-12Zm-14.69,25A16.5,16.5,0,1,1,80,73,16.5,16.5,0,0,1,63.53,56.53Z" transform="translate(-1.61 -1.98)"/><path class="cls-4" d="M96.53,56.53A16.5,16.5,0,1,0,80,73,16.5,16.5,0,0,0,96.53,56.53ZM76.75,68.31A2.23,2.23,0,0,1,73,66.52l.17-2.27a2.23,2.23,0,0,0-1.89-2.34L69,61.56a2.2,2.2,0,0,1-.92-4L70,56.3a2.18,2.18,0,0,0,.67-2.91l-1.15-2a2.19,2.19,0,0,1,2.58-3.18l2.2.68A2.22,2.22,0,0,0,77,47.63l.85-2.12a2.23,2.23,0,0,1,4.13,0l.85,2.12A2.24,2.24,0,0,0,85.57,49l2.21-.66a2.21,2.21,0,0,1,2.58,3.2l-1.15,2a2.19,2.19,0,0,0,.67,2.91l1.91,1.3a2.18,2.18,0,0,1-.92,4L88.59,62a2.18,2.18,0,0,0-1.88,2.32l.17,2.27a2.22,2.22,0,0,1-3.73,1.76l-1.69-1.56a2.25,2.25,0,0,0-3,0Z" transform="translate(-1.61 -1.98)"/><circle cx="7.14" cy="6.05" r="3"/><path d="M81.46,66.78l1.69,1.56a2.22,2.22,0,0,0,3.73-1.76l-.17-2.27A2.18,2.18,0,0,1,88.59,62l2.28-.34a2.18,2.18,0,0,0,.92-4l-1.91-1.3a2.19,2.19,0,0,1-.67-2.91l1.15-2a2.21,2.21,0,0,0-2.58-3.2L85.57,49a2.24,2.24,0,0,1-2.72-1.31L82,45.53a2.23,2.23,0,0,0-4.13,0L77,47.63a2.22,2.22,0,0,1-2.72,1.28l-2.2-.68a2.19,2.19,0,0,0-2.58,3.18l1.15,2A2.18,2.18,0,0,1,70,56.3l-1.9,1.27a2.2,2.2,0,0,0,.92,4l2.28.35a2.23,2.23,0,0,1,1.89,2.34L73,66.52a2.23,2.23,0,0,0,3.73,1.79l1.69-1.54A2.25,2.25,0,0,1,81.46,66.78Z" transform="translate(-1.61 -1.98)"/><path class="cls-5" d="M130.51,43.54H119a35.66,35.66,0,0,1,0,26h11.47a35.53,35.53,0,0,1,0-26Z" transform="translate(-1.61 -1.98)"/><path d="M130.51,43.54a35.53,35.53,0,0,0,0,26h1.62v-26Z" transform="translate(-1.61 -1.98)"/><path d="M119,43.54h-4.53a31.43,31.43,0,0,1,0,26H119a35.66,35.66,0,0,0,0-26Z" transform="translate(-1.61 -1.98)"/><path class="cls-6" d="M114.51,43.54h-5v2.24a26,26,0,0,1,0,21.5v2.24h5a31.43,31.43,0,0,0,0-26Z" transform="translate(-1.61 -1.98)"/><path class="cls-6" d="M109.5,45.78v21.5a26,26,0,0,0,0-21.5Z" transform="translate(-1.61 -1.98)"/></g></svg>