<svg id="Boombox" xmlns="http://www.w3.org/2000/svg" xmlns:xlink="http://www.w3.org/1999/xlink" viewBox="0 0 1168.72 586.36"><defs><style>.cls-1,.cls-7{fill:none;}.cls-2{fill:#1cc8b2;}.cls-11,.cls-3,.cls-4,.cls-8,.cls-9{fill:#36184c;}.cls-3,.cls-7{stroke:#1cc8b2;}.cls-12,.cls-15,.cls-16,.cls-17,.cls-18,.cls-19,.cls-21,.cls-24,.cls-3,.cls-4,.cls-5,.cls-6,.cls-7,.cls-8,.cls-9{stroke-miterlimit:10;}.cls-12,.cls-3,.cls-7,.cls-9{stroke-width:3.63px;}.cls-24,.cls-4,.cls-8,.cls-9{stroke:#fff;}.cls-4{stroke-width:1.21px;}.cls-5{fill:#e2e2e2;stroke-width:4.23px;}.cls-5,.cls-6{stroke:#36184c;}.cls-21,.cls-6{fill:#b7b7b7;}.cls-6{stroke-width:6.05px;}.cls-8{stroke-width:7.26px;}.cls-10{fill:#fff;}.cls-12{fill:#f2f2f2;stroke:#a0a0a0;}.cls-13{fill:#9f3335;}.cls-14{fill:#666;}.cls-15,.cls-16,.cls-17,.cls-18,.cls-19{fill:#c1c1c1;}.cls-15,.cls-16,.cls-17,.cls-18,.cls-19,.cls-21{stroke:#686868;}.cls-15{stroke-width:1.78px;}.cls-16{stroke-width:1.88px;}.cls-17{stroke-width:2.19px;}.cls-18{stroke-width:2.09px;}.cls-19{stroke-width:2.21px;}.cls-20{fill:#565656;}.cls-21{stroke-width:2.06px;}.cls-22{clip-path:url(#clip-path);}.cls-23,.cls-24{fill:#3f3f3f;}.cls-24{stroke-width:0.17px;}</style><clipPath id="clip-path" transform="translate(-426.42 -228.76)"><rect class="cls-1" x="971.42" y="510.51" width="78.78" height="44.49"/></clipPath></defs><title>boombox</title><g id="handle"><rect id="right_handle" data-name="right handle" class="cls-2" x="1105.44" y="38.09" width="14.51" height="68.73"/><rect id="left_handle" data-name="left handle" class="cls-2" x="36.19" y="38.09" width="14.51" height="68.73"/><path id="main_handle" data-name="main handle" class="cls-3" d="M4.36,1.81H1161.25a2.55,2.55,0,0,1,2.55,2.55V20.52a17.57,17.57,0,0,1-17.57,17.57H16A14.19,14.19,0,0,1,1.81,23.9V4.36A2.55,2.55,0,0,1,4.36,1.81Z"/></g><g id="buttons"><rect class="cls-4" x="480.1" y="103.56" width="37.06" height="19.07"/><rect class="cls-4" x="526.08" y="103.56" width="37.06" height="19.07"/><rect class="cls-4" x="572.26" y="103.56" width="37.06" height="19.07"/><rect class="cls-4" x="618.34" y="103.56" width="37.06" height="19.07"/><rect class="cls-4" x="665.78" y="103.56" width="37.06" height="19.07"/></g><rect id="main" class="cls-5" x="318.01" y="120.79" width="533.68" height="463.45"/><g id="left_speaker" data-name="left speaker"><rect id="speaker_main" data-name="speaker main" class="cls-6" x="3.72" y="106.83" width="317.66" height="476.44"/><rect id="speaker_line" data-name="speaker line" class="cls-7" x="15.66" y="120" width="293.77" height="448.87"/><g id="bottom_speaker" data-name="bottom speaker"><circle id="out_circle" data-name="out circle" class="cls-8" cx="161.49" cy="417.62" r="125.3"/><circle id="middle_circle" data-name="middle circle" class="cls-2" cx="161.49" cy="417.62" r="99.64"/><circle id="inner_circle" data-name="inner circle" class="cls-9" cx="161.49" cy="417.62" r="46.04"/><path id="shadow" class="cls-10" d="M556,639.43a19.78,19.78,0,0,0,31.67-23.7c-6.54-8.74-16.52-7.31-25.27-.76S549.46,630.68,556,639.43Z" transform="translate(-426.42 -228.76)"/></g><g id="top_speaker" data-name="top speaker"><circle id="out_circle-2" data-name="out circle" class="cls-8" cx="159.48" cy="196.61" r="62.34"/><circle id="middle_circle-2" data-name="middle circle" class="cls-2" cx="159.48" cy="196.61" r="48.05"/><circle id="inner_circle-2" data-name="inner circle" class="cls-9" cx="159.48" cy="196.61" r="22.9"/><path id="shadow-2" data-name="shadow" class="cls-10" d="M571.92,423.57a10.38,10.38,0,1,0,16.63-12.44c-3.44-4.59-8.68-3.84-13.27-.4S568.48,419,571.92,423.57Z" transform="translate(-426.42 -228.76)"/></g></g><g id="right_speaker" data-name="right speaker"><rect id="speaker_main-2" data-name="speaker main" class="cls-6" x="848.03" y="106.83" width="317.66" height="476.44"/><rect id="speaker_line-2" data-name="speaker line" class="cls-7" x="859.98" y="120" width="293.77" height="448.87"/><g id="bottom_speaker-2" data-name="bottom speaker"><circle id="out_circle-3" data-name="out circle" class="cls-8" cx="1005.81" cy="417.62" r="125.3"/><circle id="middle_circle-3" data-name="middle circle" class="cls-2" cx="1005.81" cy="417.62" r="99.64"/><circle id="inner_circle-3" data-name="inner circle" class="cls-9" cx="1005.81" cy="417.62" r="46.04"/><path id="shadow-3" data-name="shadow" class="cls-10" d="M1400.09,639.43a19.78,19.78,0,0,0,31.67-23.7c-6.54-8.74-16.52-7.31-25.27-.76S1393.55,630.68,1400.09,639.43Z" transform="translate(-426.42 -228.76)"/></g><g id="top_speaker-2" data-name="top speaker"><circle id="out_circle-4" data-name="out circle" class="cls-8" cx="1003.79" cy="196.61" r="62.34"/><circle id="middle_circle-4" data-name="middle circle" class="cls-2" cx="1003.79" cy="196.61" r="48.05"/><circle id="inner_circle-4" data-name="inner circle" class="cls-9" cx="1003.79" cy="196.61" r="22.9"/><path id="shadow-4" data-name="shadow" class="cls-10" d="M1416,423.57a10.38,10.38,0,1,0,16.63-12.44c-3.44-4.59-8.68-3.84-13.27-.4S1412.57,419,1416,423.57Z" transform="translate(-426.42 -228.76)"/></g></g><g id="knobs"><circle id="knob1" class="cls-11" cx="480.56" cy="553.48" r="17.89"/><path id="point1" class="cls-2" d="M919.88,769.84l-10.16,8.79,1.29,1.51,10.27-8.66c-.23-.29-.48-.6-.75-.91Z" transform="translate(-426.42 -228.76)"/><circle id="knob2" class="cls-11" cx="546.48" cy="545.21" r="26.26"/><path id="point2" class="cls-2" d="M991.85,755.77l-14.92,12.91,1.89,2.21,15.08-12.71c-.34-.43-.71-.88-1.1-1.34Z" transform="translate(-426.42 -228.76)"/><circle id="knob3" class="cls-11" cx="621.82" cy="540.38" r="32.98"/><path id="point3" class="cls-2" d="M1072.35,746.63l-20,17.23,1.89,2.21,20.13-17c-.34-.44-.7-.89-1.1-1.35S1072.66,747,1072.35,746.63Z" transform="translate(-426.42 -228.76)"/><circle id="knob4" class="cls-11" cx="689.14" cy="551.38" r="17.89"/><path id="point4" class="cls-2" d="M1128.47,767.74l-10.16,8.79,1.29,1.51,10.27-8.65c-.24-.3-.49-.61-.76-.92S1128.68,768,1128.47,767.74Z" transform="translate(-426.42 -228.76)"/></g><g id="radio_signal" data-name="radio signal"><rect class="cls-12" x="396.14" y="144.77" width="375.9" height="37.2"/><rect class="cls-13" x="436.22" y="150.63" width="1.53" height="29.51"/><rect class="cls-14" x="458.62" y="158.48" width="0.91" height="21.79"/><rect class="cls-14" x="462.56" y="168.09" width="0.91" height="12.16"/><rect class="cls-14" x="466.42" y="158.46" width="0.91" height="21.79"/><rect class="cls-14" x="469.93" y="168.09" width="0.91" height="12.16"/><rect class="cls-14" x="474.13" y="158.46" width="0.91" height="21.79"/><rect class="cls-14" x="478.32" y="168.09" width="0.91" height="12.16"/><rect class="cls-14" x="482.52" y="158.48" width="0.91" height="21.79"/><rect class="cls-14" x="486.46" y="168.1" width="0.91" height="12.16"/><rect class="cls-14" x="490.32" y="158.47" width="0.91" height="21.79"/><rect class="cls-14" x="493.83" y="168.1" width="0.91" height="12.16"/><rect class="cls-14" x="498.03" y="158.47" width="0.91" height="21.79"/><rect class="cls-14" x="502.23" y="168.1" width="0.91" height="12.16"/><rect class="cls-14" x="506.42" y="158.48" width="0.91" height="21.79"/><rect class="cls-14" x="510.36" y="168.09" width="0.91" height="12.16"/><rect class="cls-14" x="514.22" y="158.46" width="0.91" height="21.79"/><rect class="cls-14" x="517.73" y="168.09" width="0.91" height="12.16"/><rect class="cls-14" x="521.93" y="158.46" width="0.91" height="21.79"/><rect class="cls-14" x="526.13" y="168.09" width="0.91" height="12.16"/><rect class="cls-14" x="530.33" y="158.49" width="0.91" height="21.79"/><rect class="cls-14" x="534.27" y="168.11" width="0.91" height="12.16"/><rect class="cls-14" x="538.12" y="158.48" width="0.91" height="21.79"/><rect class="cls-14" x="541.64" y="168.11" width="0.91" height="12.16"/><rect class="cls-14" x="545.83" y="158.48" width="0.91" height="21.79"/><rect class="cls-14" x="550.03" y="168.11" width="0.91" height="12.16"/><rect class="cls-14" x="554.23" y="158.49" width="0.91" height="21.79"/><rect class="cls-14" x="558.17" y="168.11" width="0.91" height="12.16"/><rect class="cls-14" x="562.03" y="158.48" width="0.91" height="21.79"/><rect class="cls-14" x="565.54" y="168.11" width="0.91" height="12.16"/><rect class="cls-14" x="569.74" y="158.48" width="0.91" height="21.79"/><rect class="cls-14" x="573.93" y="168.11" width="0.91" height="12.16"/><rect class="cls-14" x="578.13" y="158.51" width="0.91" height="21.79"/><rect class="cls-14" x="582.07" y="168.13" width="0.91" height="12.16"/><rect class="cls-14" x="585.93" y="158.5" width="0.91" height="21.79"/><rect class="cls-14" x="589.44" y="168.13" width="0.91" height="12.16"/><rect class="cls-14" x="593.64" y="158.5" width="0.91" height="21.79"/><rect class="cls-14" x="597.84" y="168.13" width="0.91" height="12.16"/><rect class="cls-14" x="602.03" y="158.52" width="0.91" height="21.79"/><rect class="cls-14" x="605.97" y="168.14" width="0.91" height="12.16"/><rect class="cls-14" x="609.83" y="158.51" width="0.91" height="21.79"/><rect class="cls-14" x="613.34" y="168.14" width="0.91" height="12.16"/><rect class="cls-14" x="617.54" y="158.51" width="0.91" height="21.79"/><rect class="cls-14" x="621.74" y="168.14" width="0.91" height="12.16"/><rect class="cls-14" x="626.64" y="158.51" width="0.91" height="21.79"/><rect class="cls-14" x="630.58" y="168.13" width="0.91" height="12.16"/><rect class="cls-14" x="634.44" y="158.5" width="0.91" height="21.79"/><rect class="cls-14" x="637.95" y="168.13" width="0.91" height="12.16"/><rect class="cls-14" x="642.15" y="158.5" width="0.91" height="21.79"/><rect class="cls-14" x="646.35" y="168.13" width="0.91" height="12.16"/><rect class="cls-14" x="650.62" y="158.51" width="0.91" height="21.79"/><rect class="cls-14" x="654.56" y="168.12" width="0.91" height="12.16"/><rect class="cls-14" x="658.42" y="158.49" width="0.91" height="21.79"/><rect class="cls-14" x="661.93" y="168.12" width="0.91" height="12.16"/><rect class="cls-14" x="666.13" y="158.49" width="0.91" height="21.79"/><rect class="cls-14" x="670.33" y="168.12" width="0.91" height="12.16"/><rect class="cls-14" x="674.52" y="158.51" width="0.91" height="21.79"/><rect class="cls-14" x="678.46" y="168.13" width="0.91" height="12.16"/><rect class="cls-14" x="682.32" y="158.5" width="0.91" height="21.79"/><rect class="cls-14" x="685.83" y="168.13" width="0.91" height="12.16"/><rect class="cls-14" x="690.03" y="158.5" width="0.91" height="21.79"/><rect class="cls-14" x="694.23" y="168.13" width="0.91" height="12.16"/><rect class="cls-14" x="698.43" y="158.5" width="0.91" height="21.79"/><rect class="cls-14" x="702.36" y="168.12" width="0.91" height="12.16"/><rect class="cls-14" x="706.22" y="158.49" width="0.91" height="21.79"/><rect class="cls-14" x="709.74" y="168.12" width="0.91" height="12.16"/><rect class="cls-14" x="713.93" y="158.49" width="0.91" height="21.79"/><rect class="cls-14" x="718.13" y="168.12" width="0.91" height="12.16"/><rect class="cls-14" x="722.46" y="158.49" width="0.91" height="21.79"/><rect class="cls-14" x="726.66" y="168.12" width="0.91" height="12.16"/><rect class="cls-14" x="730.86" y="158.49" width="0.91" height="21.79"/><rect class="cls-14" x="734.8" y="168.11" width="0.91" height="12.16"/><rect class="cls-14" x="738.65" y="158.48" width="0.91" height="21.79"/><rect class="cls-14" x="742.17" y="168.11" width="0.91" height="12.16"/><rect class="cls-14" x="746.36" y="158.48" width="0.91" height="21.79"/><rect class="cls-14" x="750.56" y="168.11" width="0.91" height="12.16"/><rect class="cls-14" x="754.74" y="158.48" width="0.91" height="21.79"/><rect class="cls-14" x="758.25" y="168.11" width="0.91" height="12.16"/><rect class="cls-14" x="762.45" y="158.48" width="0.91" height="21.79"/><rect class="cls-14" x="766.64" y="168.11" width="0.91" height="12.16"/><rect class="cls-14" x="435.07" y="158.48" width="0.91" height="21.79"/><rect class="cls-14" x="439.01" y="168.09" width="0.91" height="12.16"/><rect class="cls-14" x="442.87" y="158.46" width="0.91" height="21.79"/><rect class="cls-14" x="446.38" y="168.09" width="0.91" height="12.16"/><rect class="cls-14" x="450.58" y="158.46" width="0.91" height="21.79"/><rect class="cls-14" x="454.78" y="168.09" width="0.91" height="12.16"/><rect class="cls-14" x="411.64" y="158.47" width="0.91" height="21.79"/><rect class="cls-14" x="415.58" y="168.09" width="0.91" height="12.16"/><rect class="cls-14" x="419.44" y="158.46" width="0.91" height="21.79"/><rect class="cls-14" x="422.95" y="168.09" width="0.91" height="12.16"/><rect class="cls-14" x="427.15" y="158.46" width="0.91" height="21.79"/><rect class="cls-14" x="431.35" y="168.09" width="0.91" height="12.16"/><rect class="cls-14" x="404.07" y="158.48" width="0.91" height="21.79"/><rect class="cls-14" x="408.01" y="168.09" width="0.91" height="12.16"/><rect class="cls-14" x="400.21" y="168.08" width="0.91" height="12.16"/></g><g id="blue_tape" data-name="blue tape"><rect class="cls-15" x="361.13" y="208.04" width="445.25" height="274" rx="8.56"/><rect class="cls-16" x="387.26" y="222.65" width="392.99" height="162.69"/><path class="cls-17" d="M1172.93,707.79H848.69l17-75.81a5.56,5.56,0,0,1,5.24-4.56H1150.7a5.54,5.54,0,0,1,5.24,4.56Z" transform="translate(-426.42 -228.76)"/><path class="cls-18" d="M917.85,489.92h184.63a42.84,42.84,0,0,1,42.83,42.83h0a42.83,42.83,0,0,1-42.83,42.82H917.85A42.83,42.83,0,0,1,875,532.75h0A42.84,42.84,0,0,1,917.85,489.92Z" transform="translate(-426.42 -228.76)"/><circle class="cls-19" cx="494.53" cy="304" r="28.26"/><circle class="cls-19" cx="674.25" cy="304" r="28.26"/><g id="outside-4"><circle class="cls-20" cx="372.47" cy="217.51" r="5.14"/><circle class="cls-20" cx="795.05" cy="217.51" r="5.14"/><circle class="cls-20" cx="372.47" cy="472.18" r="5.14"/><circle class="cls-20" cx="795.05" cy="472.18" r="5.14"/></g><g id="inside-4"><circle class="cls-20" cx="583.76" cy="410.33" r="5.14"/><circle class="cls-20" cx="448.6" cy="467.05" r="5.14"/><circle class="cls-20" cx="494.53" cy="443.99" r="5.14"/><circle class="cls-20" cx="674.25" cy="443.99" r="5.14"/><circle class="cls-20" cx="718.89" cy="467.05" r="5.14"/></g><path id="left-4" class="cls-20" d="M926.3,553l-2.9-2.67a3.85,3.85,0,0,0-5.14,0l-2.89,2.63a3.81,3.81,0,0,1-5.4-.09,3.85,3.85,0,0,1-1.06-3l.3-3.89a3.81,3.81,0,0,0-3.24-4l-3.91-.6a3.77,3.77,0,0,1-1.57-6.85l3.29-2.16a3.72,3.72,0,0,0,1.14-5L903,524a3.74,3.74,0,0,1,4.42-5.44l3.77,1.16a3.79,3.79,0,0,0,4.62-2.16l1.46-3.63a3.82,3.82,0,0,1,7.07,0l1.46,3.63a3.83,3.83,0,0,0,4.69,2.35l3.79-1.13a3.78,3.78,0,0,1,4.73,2.49,3.73,3.73,0,0,1-.32,3l-2,3.42a3.77,3.77,0,0,0,1.15,5l3.27,2.22a3.73,3.73,0,0,1-1.57,6.85l-3.91.43a3.74,3.74,0,0,0-3.22,4l.29,3.89a3.8,3.8,0,0,1-6.38,3Z" transform="translate(-426.42 -228.76)"/><path id="right-4" class="cls-20" d="M1106.16,553l-2.91-2.67a3.85,3.85,0,0,0-5.14,0l-2.89,2.63a3.83,3.83,0,0,1-6.49-3.08L1089,546a3.81,3.81,0,0,0-3.22-4l-3.9-.6a3.77,3.77,0,0,1-1.6-6.85l3.29-2.16a3.73,3.73,0,0,0,1.15-5l-2-3.43a3.76,3.76,0,0,1,4.42-5.44l3.78,1.16a3.82,3.82,0,0,0,4.66-2.19l1.44-3.63a3.84,3.84,0,0,1,7.09,0l1.45,3.63a3.85,3.85,0,0,0,4.7,2.38l3.76-1.13a3.79,3.79,0,0,1,4.42,5.48l-2,3.42a3.76,3.76,0,0,0,1.17,5l3.25,2.22a3.73,3.73,0,0,1-1.57,6.85l-3.91.59a3.77,3.77,0,0,0-3.22,4l.29,3.89a3.8,3.8,0,0,1-6.37,2.84Z" transform="translate(-426.42 -228.76)"/><rect class="cls-21" x="545" y="281.75" width="78.78" height="44.49"/><g class="cls-22"><circle class="cls-23" cx="637.8" cy="304" r="61.03"/><circle class="cls-24" cx="637.8" cy="304" r="53.89"/><circle class="cls-24" cx="637.8" cy="304" r="44.49"/><circle class="cls-24" cx="637.8" cy="304" r="33.72"/><circle class="cls-24" cx="637.8" cy="304" r="21.61"/></g><g class="cls-22"><circle class="cls-23" cx="504.5" cy="304" r="61.03"/><circle class="cls-24" cx="504.5" cy="304" r="53.89"/><circle class="cls-24" cx="504.5" cy="304" r="44.49"/><circle class="cls-24" cx="504.5" cy="304" r="33.72"/><circle class="cls-24" cx="504.5" cy="304" r="21.61"/></g></g></svg>