<?xml version="1.0" encoding="utf-8"?>
<!-- Generator: Adobe Illustrator 22.1.0, SVG Export Plug-In . SVG Version: 6.00 Build 0)  -->
<svg version="1.1" id="Layer_2_1_" xmlns="http://www.w3.org/2000/svg" xmlns:xlink="http://www.w3.org/1999/xlink" x="0px" y="0px"
	 viewBox="0 0 1922.1 1080" style="enable-background:new 0 0 1922.1 1080;" xml:space="preserve">
<style type="text/css">
	.st0{fill:url(#sky_1_);}
	.st1{fill:url(#SVGID_1_);}
	.st2{fill:url(#SVGID_2_);}
	.st3{fill:url(#SVGID_3_);}
	.st4{fill:url(#SVGID_4_);}
	.st5{fill:url(#SVGID_5_);}
	.st6{fill:url(#SVGID_6_);}
	.st7{fill:url(#SVGID_7_);}
	.st8{fill:url(#SVGID_8_);}
	.st9{fill:url(#SVGID_9_);}
	.st10{fill:url(#SVGID_10_);}
	.st11{fill:url(#SVGID_11_);}
	.st12{fill:url(#SVGID_12_);}
	.st13{fill:url(#SVGID_13_);}
	.st14{fill:url(#SVGID_14_);}
	.st15{fill:url(#SVGID_15_);}
	.st16{fill:url(#SVGID_16_);}
	.st17{fill:url(#SVGID_17_);}
	.st18{fill:url(#SVGID_18_);}
	.st19{fill:url(#SVGID_19_);}
	.st20{fill:url(#SVGID_20_);}
	.st21{fill:url(#SVGID_21_);}
	.st22{fill:none;}
	.st23{opacity:0.8;fill:#A25ED3;enable-background:new    ;}
</style>
<title>background</title>
<linearGradient id="sky_1_" gradientUnits="userSpaceOnUse" x1="961.5" y1="380" x2="961.5" y2="1080" gradientTransform="matrix(1 0 0 -1 0 1080)">
	<stop  offset="0" style="stop-color:#3F0048"/>
	<stop  offset="1" style="stop-color:#220021"/>
</linearGradient>
<rect id="sky" class="st0" width="1923" height="700"/>
<g id="moon">
	
		<linearGradient id="SVGID_1_" gradientUnits="userSpaceOnUse" x1="952.25" y1="1005" x2="952.25" y2="155" gradientTransform="matrix(1 0 0 -1 9.25 1080)">
		<stop  offset="0" style="stop-color:#DE58FD"/>
		<stop  offset="1" style="stop-color:#FF8085"/>
	</linearGradient>
	<path class="st1" d="M521.5,500c0,5.3,0.1,10.7,0.3,16h879.4c0.2-5.3,0.3-10.7,0.3-16c0-6.4-0.1-12.7-0.4-19H521.9
		C521.6,487.3,521.5,493.6,521.5,500z"/>
	
		<linearGradient id="SVGID_2_" gradientUnits="userSpaceOnUse" x1="952.275" y1="1005" x2="952.275" y2="155" gradientTransform="matrix(1 0 0 -1 9.25 1080)">
		<stop  offset="0" style="stop-color:#DE58FD"/>
		<stop  offset="1" style="stop-color:#FF8085"/>
	</linearGradient>
	<path class="st2" d="M533.3,598h856.5c2.8-11.5,5.1-23.2,7-35H526.3C528.1,574.8,530.4,586.5,533.3,598z"/>
	
		<linearGradient id="SVGID_3_" gradientUnits="userSpaceOnUse" x1="952.25" y1="1005" x2="952.25" y2="155" gradientTransform="matrix(1 0 0 -1 9.25 1080)">
		<stop  offset="0" style="stop-color:#DE58FD"/>
		<stop  offset="1" style="stop-color:#FF8085"/>
	</linearGradient>
	<path class="st3" d="M525.4,557h872.1c1.6-11.5,2.7-23.2,3.3-35H522.1C522.7,533.8,523.8,545.5,525.4,557z"/>
	
		<linearGradient id="SVGID_4_" gradientUnits="userSpaceOnUse" x1="952.25" y1="1005" x2="952.25" y2="155" gradientTransform="matrix(1 0 0 -1 9.25 1080)">
		<stop  offset="0" style="stop-color:#DE58FD"/>
		<stop  offset="1" style="stop-color:#FF8085"/>
	</linearGradient>
	<path class="st4" d="M522.3,475h878.5c-0.7-11.8-1.9-23.5-3.6-35H525.8C524.2,451.5,523,463.2,522.3,475z"/>
	
		<linearGradient id="SVGID_5_" gradientUnits="userSpaceOnUse" x1="952.25" y1="1005" x2="952.25" y2="155" gradientTransform="matrix(1 0 0 -1 9.25 1080)">
		<stop  offset="0" style="stop-color:#DE58FD"/>
		<stop  offset="1" style="stop-color:#FF8085"/>
	</linearGradient>
	<path class="st5" d="M548.9,352h825.2c-4.6-11.9-9.7-23.6-15.3-35H564.3C558.6,328.4,553.5,340.1,548.9,352z"/>
	
		<linearGradient id="SVGID_6_" gradientUnits="userSpaceOnUse" x1="952.25" y1="1005" x2="952.25" y2="155" gradientTransform="matrix(1 0 0 -1 9.25 1080)">
		<stop  offset="0" style="stop-color:#DE58FD"/>
		<stop  offset="1" style="stop-color:#FF8085"/>
	</linearGradient>
	<path class="st6" d="M535.6,393h851.9c-3.2-11.9-6.9-23.5-11.1-35H546.7C542.5,369.4,538.8,381.1,535.6,393z"/>
	
		<linearGradient id="SVGID_7_" gradientUnits="userSpaceOnUse" x1="952.25" y1="1005" x2="952.25" y2="155" gradientTransform="matrix(1 0 0 -1 9.25 1080)">
		<stop  offset="0" style="stop-color:#DE58FD"/>
		<stop  offset="1" style="stop-color:#FF8085"/>
	</linearGradient>
	<path class="st7" d="M526.8,434h869.4c-1.9-11.8-4.3-23.5-7.2-35H534C531.1,410.5,528.7,422.2,526.8,434z"/>
	
		<linearGradient id="SVGID_8_" gradientUnits="userSpaceOnUse" x1="952.25" y1="1005.0142" x2="952.25" y2="154.9994" gradientTransform="matrix(1 0 0 -1 9.25 1080)">
		<stop  offset="0" style="stop-color:#DE58FD"/>
		<stop  offset="1" style="stop-color:#FF8085"/>
	</linearGradient>
	<path class="st8" d="M961.5,925c59.2,0.1,117.9-11.5,172.7-34H788.8C843.6,913.5,902.3,925.1,961.5,925z"/>
	
		<linearGradient id="SVGID_9_" gradientUnits="userSpaceOnUse" x1="952.25" y1="1005" x2="952.25" y2="155" gradientTransform="matrix(1 0 0 -1 9.25 1080)">
		<stop  offset="0" style="stop-color:#DE58FD"/>
		<stop  offset="1" style="stop-color:#FF8085"/>
	</linearGradient>
	<path class="st9" d="M703.1,844h516.9c15.3-10.7,29.9-22.4,43.7-35H659.4C673.2,821.6,687.8,833.3,703.1,844z"/>
	
		<linearGradient id="SVGID_10_" gradientUnits="userSpaceOnUse" x1="952.2501" y1="1005" x2="952.2501" y2="155" gradientTransform="matrix(1 0 0 -1 9.25 1080)">
		<stop  offset="0" style="stop-color:#DE58FD"/>
		<stop  offset="1" style="stop-color:#FF8085"/>
	</linearGradient>
	<path class="st10" d="M545.6,639h831.8c4.1-11.5,7.7-23.1,10.8-35H534.8C537.9,615.9,541.5,627.5,545.6,639z"/>
	
		<linearGradient id="SVGID_11_" gradientUnits="userSpaceOnUse" x1="952.25" y1="1005" x2="952.25" y2="155" gradientTransform="matrix(1 0 0 -1 9.25 1080)">
		<stop  offset="0" style="stop-color:#DE58FD"/>
		<stop  offset="1" style="stop-color:#FF8085"/>
	</linearGradient>
	<path class="st11" d="M567.3,311h788.4c-6.2-12-12.9-23.7-20.2-35h-748C580.2,287.3,573.5,299,567.3,311z"/>
	
		<linearGradient id="SVGID_12_" gradientUnits="userSpaceOnUse" x1="952.25" y1="1005" x2="952.25" y2="155" gradientTransform="matrix(1 0 0 -1 9.25 1080)">
		<stop  offset="0" style="stop-color:#DE58FD"/>
		<stop  offset="1" style="stop-color:#FF8085"/>
	</linearGradient>
	<path class="st12" d="M774.9,885h373.2c21.9-9.9,43-21.6,63.1-35H711.8C731.9,863.4,753,875.1,774.9,885z"/>
	
		<linearGradient id="SVGID_13_" gradientUnits="userSpaceOnUse" x1="952.24" y1="1005" x2="952.24" y2="155" gradientTransform="matrix(1 0 0 -1 9.25 1080)">
		<stop  offset="0" style="stop-color:#DE58FD"/>
		<stop  offset="1" style="stop-color:#FF8085"/>
	</linearGradient>
	<path class="st13" d="M562.8,680h797.4c5.5-11.4,10.5-23.1,15-35H547.8C552.3,656.9,557.3,668.6,562.8,680z"/>
	
		<linearGradient id="SVGID_14_" gradientUnits="userSpaceOnUse" x1="952.2499" y1="1005" x2="952.2499" y2="155" gradientTransform="matrix(1 0 0 -1 9.25 1080)">
		<stop  offset="0" style="stop-color:#DE58FD"/>
		<stop  offset="1" style="stop-color:#FF8085"/>
	</linearGradient>
	<path class="st14" d="M585.6,721h751.8c7.2-11.3,13.8-23,19.8-35H565.8C571.8,698,578.4,709.7,585.6,721z"/>
	
		<linearGradient id="SVGID_15_" gradientUnits="userSpaceOnUse" x1="952.28" y1="1005" x2="952.28" y2="155" gradientTransform="matrix(1 0 0 -1 9.25 1080)">
		<stop  offset="0" style="stop-color:#DE58FD"/>
		<stop  offset="1" style="stop-color:#FF8085"/>
	</linearGradient>
	<path class="st15" d="M653,803H1270c11.6-11,22.7-22.7,33-35H620C630.4,780.3,641.4,792,653,803z"/>
	
		<linearGradient id="SVGID_16_" gradientUnits="userSpaceOnUse" x1="952.25" y1="1005" x2="952.25" y2="155" gradientTransform="matrix(1 0 0 -1 9.25 1080)">
		<stop  offset="0" style="stop-color:#DE58FD"/>
		<stop  offset="1" style="stop-color:#FF8085"/>
	</linearGradient>
	<path class="st16" d="M615,762H1308c9.1-11.2,17.6-22.9,25.5-35h-744C597.4,739.1,605.9,750.8,615,762z"/>
	
		<linearGradient id="SVGID_17_" gradientUnits="userSpaceOnUse" x1="952.25" y1="1005.0005" x2="952.25" y2="155.0005" gradientTransform="matrix(1 0 0 -1 9.25 1080)">
		<stop  offset="0" style="stop-color:#DE58FD"/>
		<stop  offset="1" style="stop-color:#FF8085"/>
	</linearGradient>
	<path class="st17" d="M961.5,75c-56.5-0.1-112.6,10.4-165.3,31h330.5C1074.1,85.4,1018,74.9,961.5,75z"/>
	
		<linearGradient id="SVGID_18_" gradientUnits="userSpaceOnUse" x1="952.25" y1="1005" x2="952.25" y2="155" gradientTransform="matrix(1 0 0 -1 9.25 1080)">
		<stop  offset="0" style="stop-color:#DE58FD"/>
		<stop  offset="1" style="stop-color:#FF8085"/>
	</linearGradient>
	<path class="st18" d="M591.4,270h740.1c-8.1-12.1-16.8-23.8-26.1-35h-688C608.2,246.2,599.5,257.9,591.4,270z"/>
	
		<linearGradient id="SVGID_19_" gradientUnits="userSpaceOnUse" x1="952.275" y1="1005" x2="952.275" y2="155" gradientTransform="matrix(1 0 0 -1 9.25 1080)">
		<stop  offset="0" style="stop-color:#DE58FD"/>
		<stop  offset="1" style="stop-color:#FF8085"/>
	</linearGradient>
	<path class="st19" d="M622.5,229h678c-10.5-12.3-21.8-24-33.6-35H656.2C644.3,205,633.1,216.7,622.5,229z"/>
	
		<linearGradient id="SVGID_20_" gradientUnits="userSpaceOnUse" x1="952.25" y1="1005" x2="952.25" y2="155" gradientTransform="matrix(1 0 0 -1 9.25 1080)">
		<stop  offset="0" style="stop-color:#DE58FD"/>
		<stop  offset="1" style="stop-color:#FF8085"/>
	</linearGradient>
	<path class="st20" d="M662.7,188h597.5c-14.1-12.6-29-24.3-44.7-35H707.4C691.8,163.7,676.9,175.4,662.7,188z"/>
	
		<linearGradient id="SVGID_21_" gradientUnits="userSpaceOnUse" x1="952.2501" y1="1005" x2="952.2501" y2="155" gradientTransform="matrix(1 0 0 -1 9.25 1080)">
		<stop  offset="0" style="stop-color:#DE58FD"/>
		<stop  offset="1" style="stop-color:#FF8085"/>
	</linearGradient>
	<path class="st21" d="M781.7,112c-22.7,9.8-44.5,21.5-65.3,35h490.2c-20.7-13.5-42.6-25.2-65.3-35H781.7z"/>
</g>
<polygon id="bottom_bg" points="0,700 1923,698 1923,1080 0,1080 "/>
<g id="road">
	<polygon class="st22" points="1375.9,711.9 1386.1,714 1474.2,714 1462.1,711.9 	"/>
	<polygon class="st22" points="1467.7,711.9 1480,714 1569.5,714 1555.2,711.9 	"/>
	<polygon class="st22" points="1282.4,711.9 1290.4,714 1379.1,714 1369.3,711.9 	"/>
	<polygon class="st22" points="813.5,714 902.8,714 904,711.9 816.8,711.9 	"/>
	<polygon class="st22" points="1647.5,711.9 1561.3,711.9 1575.9,714 1663.9,714 	"/>
	<polygon class="st22" points="406.9,718 501.1,718 510.8,716 418.4,716 	"/>
	<polygon class="st22" points="1439.9,725 1451.6,727.4 1551.5,727.4 1537.7,725 	"/>
	<polygon class="st22" points="1564.2,729.6 1462.4,729.6 1480.2,733.2 1585.3,733.2 	"/>
	<polygon class="st22" points="1610.3,720 1515.3,720 1532.9,723 1630.7,723 	"/>
	<polygon class="st22" points="1205.5,718 1298.5,718 1291.2,716 1200,716 	"/>
	<polygon class="st22" points="694.8,723 792.8,723 797.8,720 702.6,720 	"/>
	<polygon class="st22" points="707.8,718 801.1,718 804.4,716 713,716 	"/>
	<polygon class="st22" points="607.7,718 701.2,718 706.7,716 615,716 	"/>
	<polygon class="st22" points="536.1,711.9 526.1,714 615.8,714 623.9,711.9 	"/>
	<polygon class="st22" points="1009,723 1107.8,723 1103.1,720 1007.3,720 	"/>
	<polygon class="st22" points="1114.4,723 1211.9,723 1204.1,720 1109.5,720 	"/>
	<polygon class="st22" points="430,714 520.5,714 530.7,711.9 442.1,711.9 	"/>
	<polygon class="st22" points="900.8,729.6 899,733.2 1007.3,733.2 1005.6,729.6 	"/>
	<polygon class="st22" points="799.5,723 897.4,723 899.2,720 804.1,720 	"/>
	<polygon class="st22" points="1103,716 1106.2,718 1198.9,718 1193.8,716 	"/>
	<polygon class="st22" points="593.6,762 728,762 738.1,755.9 609.4,755.9 	"/>
	<polygon class="st22" points="754.2,746.2 761.6,741.8 646.2,741.8 634.5,746.2 	"/>
	<polygon class="st22" points="616.7,753.1 742.8,753.1 750,748.8 628,748.8 	"/>
	<polygon class="st22" points="872.3,765 733.9,765 724.6,771 868.7,771 	"/>
	<polygon class="st22" points="462.2,727.4 564.6,727.4 573.8,725 473.7,725 	"/>
	<polygon class="st22" points="529.8,739.2 643.5,739.2 653,735.8 542.7,735.8 	"/>
	<polygon class="st22" points="706,782.9 861.6,782.9 866.9,774 719.9,774 	"/>
	<polygon class="st22" points="581.4,723 592.9,720 497.5,720 483.2,723 	"/>
	<polygon class="st22" points="659.8,733.2 669.7,729.6 565.2,729.6 551.8,733.2 	"/>
	<polygon class="st22" points="1183.4,765 1193.2,771 1336.5,771 1320.9,765 	"/>
	<polygon class="st22" points="1509,741.8 1396.7,741.8 1413.9,746.2 1530.1,746.2 	"/>
	<polygon class="st22" points="1437.3,755.9 1308.5,755.9 1325.1,762 1459.7,762 	"/>
	<polygon class="st22" points="1344.3,774 1198.1,774 1212.8,782.9 1367.4,782.9 	"/>
	<polygon class="st22" points="1289.1,748.8 1300.9,753.1 1427.1,753.1 1411.1,748.8 	"/>
	<polygon class="st22" points="1039.2,799.1 866.2,799.1 860.3,811.1 1045,811.1 	"/>
	<polygon class="st22" points="850.9,829.9 1054.1,829.9 1046.8,814.9 858.4,814.9 	"/>
	<polygon class="st22" points="1045.9,786.1 1051.6,795.9 1220.1,795.9 1205,786.1 	"/>
	<polygon class="st22" points="1243.5,811.1 1225,799.1 1053.5,799.1 1060.5,811.1 	"/>
	<polygon class="st22" points="1491.8,716 1503.6,718 1596.7,718 1583.1,716 	"/>
	<polygon class="st22" points="1675.6,729.6 1571.8,729.6 1593.2,733.2 1700.4,733.2 	"/>
	<polygon class="st22" points="1710.9,720 1617.6,720 1638.4,723 1734.4,723 	"/>
	<polygon class="st22" points="1738.7,711.9 1654.2,711.9 1671.2,714 1756.9,714 	"/>
	<polygon class="st22" points="1589.8,716 1603.7,718 1695.3,718 1679.6,716 	"/>
	<polygon class="st22" points="1544.7,725 1558.8,727.4 1660.6,727.4 1644.3,725 	"/>
	<polygon class="st22" points="1575.2,755.9 1450.9,755.9 1474.3,762 1603.8,762 	"/>
	<polygon class="st22" points="1423.5,748.8 1440.2,753.1 1562.1,753.1 1541.8,748.8 	"/>
	<polygon class="st22" points="1492.4,735.8 1509.6,739.2 1619.9,739.2 1599.7,735.8 	"/>
	<polygon class="st22" points="1634.4,741.8 1521.8,741.8 1543.8,746.2 1660.3,746.2 	"/>
	<polygon class="st22" points="1002.6,711.9 1003.8,714 1093.9,714 1090.7,711.9 	"/>
	<polygon class="st22" points="1629.3,708.8 1639.7,710.1 1723.1,710.1 1711.9,708.8 	"/>
	<polygon class="st22" points="1099.7,714 1188.6,714 1183.1,711.9 1096.2,711.9 	"/>
	<polygon class="st22" points="1006.1,718 1100.1,718 1097,716 1005,716 	"/>
	<polygon class="st22" points="1333.3,765 1349.6,771 1492.6,771 1470.7,765 	"/>
	<polygon class="st22" points="1180.5,708.8 1184,710.1 1269.6,710.1 1264.8,708.8 	"/>
	<polygon class="st22" points="336.8,714 424.5,714 436.8,711.9 351.1,711.9 	"/>
	<polygon class="st22" points="1194.6,714 1283.9,714 1276.2,711.9 1188.9,711.9 	"/>
	<polygon class="st22" points="1360.7,708.8 1367.1,710.1 1451.7,710.1 1444.2,708.8 	"/>
	<polygon class="st22" points="1270.5,708.8 1275.5,710.1 1360.8,710.1 1354.7,708.8 	"/>
	<polygon class="st22" points="1539.7,708.8 1548.8,710.1 1633.4,710.1 1623.2,708.8 	"/>
	<polygon class="st22" points="405.7,739.2 519.2,739.2 532.6,735.8 422.4,735.8 	"/>
	<polygon class="st22" points="479.1,753.1 605.8,753.1 617.7,748.8 495,748.8 	"/>
	<polygon class="st22" points="624.5,746.2 636.7,741.8 520.7,741.8 504.2,746.2 	"/>
	<polygon class="st22" points="446.5,762 581.6,762 598.2,755.9 468.8,755.9 	"/>
	<polygon class="st22" points="309.6,718 401,718 412.8,716 323.2,716 	"/>
	<polygon class="st22" points="713.1,771 723,765 585.8,765 570.2,771 	"/>
	<polygon class="st22" points="476.9,723 491.4,720 395.3,720 378,723 	"/>
	<polygon class="st22" points="352.5,727.4 455.5,727.4 467.2,725 366.4,725 	"/>
	<polygon class="st22" points="542.2,733.2 556.2,729.6 451.7,729.6 434.3,733.2 	"/>
	<polygon class="st22" points="1249.3,814.9 1062.7,814.9 1071.5,829.9 1272.4,829.9 	"/>
	<polygon class="st22" points="1503.6,774 1357.7,774 1381.9,782.9 1536.2,782.9 	"/>
	<polygon class="st22" points="1409.4,799.1 1239.3,799.1 1259.1,811.1 1440.6,811.1 	"/>
	<polygon class="st22" points="1218,786.1 1234.1,795.9 1401.1,795.9 1375.7,786.1 	"/>
	<polygon class="st22" points="825.9,880.2 1078.4,880.2 1067,856.6 837.6,856.6 	"/>
	<polygon class="st22" points="662,811.1 844.7,811.1 851.9,799.1 680.7,799.1 	"/>
	<polygon class="st22" points="853.8,795.9 859.7,786.1 701,786.1 685.7,795.9 	"/>
	<polygon class="st22" points="1065.1,852.6 1055.6,833.1 849.3,833.1 839.6,852.6 	"/>
	<polygon class="st22" points="539.3,782.9 693.3,782.9 708.1,774 562.5,774 	"/>
	<polygon class="st22" points="1373.7,735.8 1387.1,739.2 1497.3,739.2 1480.9,735.8 	"/>
	<polygon class="st22" points="33.2,963.8 146.6,922 2,922 2,963.8 	"/>
	<polygon class="st22" points="1103.7,885 1121.8,916 1405.1,916 1357.4,885 	"/>
	<polygon class="st22" points="15.5,970.2 2,970.2 2,975.2 	"/>
	<polygon class="st22" points="285,1028.8 382.2,970.2 53.1,970.2 2,989.9 2,1028.8 	"/>
	<polygon class="st22" points="163,916 247.2,885 2,885 2,916 	"/>
	<polygon class="st22" points="85.4,852.6 160,833.1 2,833.1 2,852.6 	"/>
	<polygon class="st22" points="31.2,814.9 2,814.9 2,820.9 	"/>
	<polygon class="st22" points="70.1,856.6 2,856.6 2,874.4 	"/>
	<polygon class="st22" points="172.5,829.9 229.9,814.9 45.2,814.9 2,823.9 2,829.9 	"/>
	<polygon class="st22" points="1200.1,782.9 1186.3,774 1038.8,774 1044,782.9 	"/>
	<polygon class="st22" points="1478.7,963.8 1414.4,922 1125.3,922 1149.7,963.8 	"/>
	<polygon class="st22" points="582,725 573.3,727.4 675.7,727.4 682.2,725 	"/>
	<polygon class="st22" points="1033.6,765 1037.1,771 1181.7,771 1172.5,765 	"/>
	<polygon class="st22" points="775.8,733.2 781.8,729.6 677.7,729.6 668.2,733.2 	"/>
	<polygon class="st22" points="423.9,963.8 753.5,963.8 778.5,922 489,922 	"/>
	<polygon class="st22" points="800.6,885 546.7,885 498.4,916 782.1,916 	"/>
	<polygon class="st22" points="905.5,720 904.1,723 1002.4,723 1000.9,720 	"/>
	<polygon class="st22" points="901.9,727.4 1004.5,727.4 1003.3,725 903.1,725 	"/>
	<polygon class="st22" points="49.8,714 70.2,711.9 2,711.9 2,714 	"/>
	<polygon class="st22" points="10.8,718 30.3,716 2,716 2,718 	"/>
	<polygon class="st22" points="36.4,739.2 64.1,735.8 2,735.8 2,739.2 	"/>
	<polygon class="st22" points="58.3,723 85.4,720 2,720 2,723 	"/>
	<polygon class="st22" points="83.9,733.2 112.9,729.6 9.3,729.6 2,730.4 2,733.2 	"/>
	<polygon class="st22" points="516.6,716 507,718 600.5,718 608.2,716 	"/>
	<polygon class="st22" points="49.4,811.1 107.7,799.1 2,799.1 2,811.1 	"/>
	<polygon class="st22" points="60.7,704.2 78.3,702.6 2,702.6 2,704.2 	"/>
	<polygon class="st22" points="29.1,707.2 44.6,705.8 2,705.8 2,707.2 	"/>
	<polygon class="st22" points="12,708.8 2,708.8 2,709.7 	"/>
	<polygon class="st22" points="889.1,753.1 1016.9,753.1 1014.8,748.8 891.3,748.8 	"/>
	<polygon class="st22" points="2.2,786.1 2,786.1 2,786.1 	"/>
	<polygon class="st22" points="20.9,782.9 73,774 2,774 2,782.9 	"/>
	<polygon class="st22" points="90.6,771 125.8,765 2,765 2,771 	"/>
	<polygon class="st22" points="123.3,795.9 170.8,786.1 13.4,786.1 2,788.1 2,795.9 	"/>
	<polygon class="st22" points="110.2,746.2 141.1,741.8 24.8,741.8 2,744.7 2,746.2 	"/>
	<polygon class="st22" points="2.2,762 44,755.9 2,755.9 2,762 	"/>
	<polygon class="st22" points="16.5,741.8 2,741.8 2,743.6 	"/>
	<polygon class="st22" points="63.2,753.1 93.1,748.8 2,748.8 2,753.1 	"/>
	<polygon class="st22" points="18.6,727.4 40.3,725 2,725 2,727.4 	"/>
	<polygon class="st22" points="1332.6,725 1341.8,727.4 1441.8,727.4 1430.6,725 	"/>
	<polygon class="st22" points="1508.8,720 1415.5,720 1430.1,723 1526.1,723 	"/>
	<polygon class="st22" points="1452.1,729.6 1350.2,729.6 1364.2,733.2 1469.2,733.2 	"/>
	<polygon class="st22" points="1395.9,716 1405.7,718 1497.3,718 1485.7,716 	"/>
	<polygon class="st22" points="1253.7,735.8 1263.2,739.2 1376.3,739.2 1363.5,735.8 	"/>
	<polygon class="st22" points="1297.3,755.9 1168.4,755.9 1178.4,762 1313.1,762 	"/>
	<polygon class="st22" points="1156.7,748.8 1163.8,753.1 1290,753.1 1278.8,748.8 	"/>
	<polygon class="st22" points="1298.1,716 1305.8,718 1397.8,718 1388.4,716 	"/>
	<polygon class="st22" points="1385.5,741.8 1270.1,741.8 1282.3,746.2 1402,746.2 	"/>
	<polygon class="st22" points="792.6,727.4 894.8,727.4 896.2,725 796.3,725 	"/>
	<polygon class="st22" points="783.5,733.2 891.2,733.2 893.4,729.6 789.2,729.6 	"/>
	<polygon class="st22" points="683.4,727.4 785.5,727.4 789.5,725 689.6,725 	"/>
	<polygon class="st22" points="1219.1,723 1316.8,723 1305.8,720 1210.9,720 	"/>
	<polygon class="st22" points="600.4,720 589.4,723 687.7,723 695.8,720 	"/>
	<polygon class="st22" points="1037.6,795.9 1032.9,786.1 872.7,786.1 867.8,795.9 	"/>
	<polygon class="st22" points="1121.7,727.4 1223.3,727.4 1217.1,725 1117.7,725 	"/>
	<polygon class="st22" points="1015,733.2 1123.6,733.2 1117.9,729.6 1012.9,729.6 	"/>
	<polygon class="st22" points="897.7,735.8 896,739.2 1010.2,739.2 1008.5,735.8 	"/>
	<polygon class="st22" points="1010.2,725 1011.6,727.4 1114.6,727.4 1110.8,725 	"/>
	<polygon class="st22" points="1143.6,746.2 1136.7,741.8 1020,741.8 1022.6,746.2 	"/>
	<polygon class="st22" points="1260.6,741.8 1145.2,741.8 1152.6,746.2 1272.3,746.2 	"/>
	<polygon class="st22" points="874.3,782.9 1031.3,782.9 1027,774 878.7,774 	"/>
	<polygon class="st22" points="880.2,771 1025.6,771 1022.7,765 883.2,765 	"/>
	<polygon class="st22" points="1024.1,748.8 1026.6,753.1 1154.1,753.1 1147.4,748.8 	"/>
	<polygon class="st22" points="1167.9,762 1158.5,755.9 1028.3,755.9 1031.8,762 	"/>
	<polygon class="st22" points="1407.2,720 1313.4,720 1324.9,723 1421.2,723 	"/>
	<polygon class="st22" points="894.7,741.8 892.5,746.2 1013.6,746.2 1011.4,741.8 	"/>
	<polygon class="st22" points="1231,727.4 1332.9,727.4 1324.2,725 1224.5,725 	"/>
	<polygon class="st22" points="887.7,755.9 884.7,762 1021.2,762 1018.3,755.9 	"/>
	<polygon class="st22" points="752.5,753.1 879.4,753.1 882,748.8 759.3,748.8 	"/>
	<polygon class="st22" points="774.1,739.2 887.7,739.2 889.8,735.8 779.6,735.8 	"/>
	<polygon class="st22" points="886.2,741.8 770.2,741.8 763.2,746.2 883.5,746.2 	"/>
	<polygon class="st22" points="652.6,739.2 765.8,739.2 771.6,735.8 661.7,735.8 	"/>
	<polygon class="st22" points="738.6,762 874.1,762 877.7,755.9 748.1,755.9 	"/>
	<polygon class="st22" points="1341,729.6 1237,729.6 1246.9,733.2 1354.4,733.2 	"/>
	<polygon class="st22" points="1018.5,739.2 1132.8,739.2 1127.4,735.8 1016.5,735.8 	"/>
	<polygon class="st22" points="1135.4,735.8 1141.1,739.2 1254.1,739.2 1245,735.8 	"/>
	<polygon class="st22" points="1131.3,733.2 1238.5,733.2 1229.1,729.6 1125.3,729.6 	"/>
	<polygon class="st22" points="1449.5,708.8 1457.1,710.1 1543,710.1 1534.2,708.8 	"/>
	<polygon class="st22" points="1842.7,704.2 1826.7,702.6 1747.6,702.6 1764.5,704.2 	"/>
	<polygon class="st22" points="1783.3,716 1801.3,718 1892.6,718 1873.2,716 	"/>
	<polygon class="st22" points="1672.4,704.2 1658.1,702.6 1579.3,702.6 1592.6,704.2 	"/>
	<polygon class="st22" points="1587.5,704.2 1574.6,702.6 1496.7,702.6 1508.1,704.2 	"/>
	<polygon class="st22" points="1824.2,710.1 1899.5,710.1 1886.9,708.8 1811,708.8 	"/>
	<polygon class="st22" points="1925,704.2 1908.8,702.6 1831.8,702.6 1849.2,704.2 	"/>
	<polygon class="st22" points="1503.2,704.2 1492,702.6 1413,702.6 1422.7,704.2 	"/>
	<polygon class="st22" points="1779.8,705.8 1794.6,707.2 1871.3,707.2 1857.3,705.8 	"/>
	<polygon class="st22" points="909.6,702.6 831.3,702.6 828.7,704.2 908.6,704.2 	"/>
	<polygon class="st22" points="992.5,702.6 914.2,702.6 913.4,704.2 993.3,704.2 	"/>
	<polygon class="st22" points="994,705.8 912.6,705.8 911.9,707.2 994.7,707.2 	"/>
	<polygon class="st22" points="995.5,708.8 911.1,708.8 910.5,710.1 996.1,710.1 	"/>
	<polygon class="st22" points="998,714 997,711.9 909.6,711.9 908.5,714 	"/>
	<polygon class="st22" points="1248.2,704.2 1242.1,702.6 1163.6,702.6 1168.1,704.2 	"/>
	<polygon class="st22" points="1417.9,704.2 1408.4,702.6 1330.4,702.6 1338.5,704.2 	"/>
	<polygon class="st22" points="1333.4,704.2 1325.7,702.6 1246.8,702.6 1253.1,704.2 	"/>
	<polygon class="st22" points="1078.9,704.2 1076.3,702.6 997.1,702.6 998.1,704.2 	"/>
	<polygon class="st22" points="1163.2,704.2 1159,702.6 1081,702.6 1083.7,704.2 	"/>
	<polygon class="st22" points="1758.8,704.2 1742.8,702.6 1662.9,702.6 1677.7,704.2 	"/>
	<polygon class="st22" points="1558.7,856.6 1333.7,856.6 1372.5,880.2 1620.1,880.2 	"/>
	<polygon class="st22" points="489.5,795.9 516.1,786.1 358.2,786.1 322.3,795.9 	"/>
	<polygon class="st22" points="1566.6,786.1 1604.1,795.9 1762.5,795.9 1716.6,786.1 	"/>
	<polygon class="st22" points="1098.6,922 805.1,922 784.4,963.8 1118.8,963.8 	"/>
	<polygon class="st22" points="615.3,829.9 640.2,814.9 456.4,814.9 417.4,829.9 	"/>
	<polygon class="st22" points="266.5,811.1 448.1,811.1 480.8,799.1 310.5,799.1 	"/>
	<polygon class="st22" points="358.4,852.6 577.5,852.6 609.9,833.1 409,833.1 	"/>
	<polygon class="st22" points="286.7,880.2 531.7,880.2 570.9,856.6 348,856.6 	"/>
	<polygon class="st22" points="1826.2,733.2 1923.8,733.2 1892.2,729.6 1796.8,729.6 	"/>
	<polygon class="st22" points="1800,746.2 1916.6,746.2 1881.3,741.8 1768.7,741.8 	"/>
	<polygon class="st22" points="1727,735.8 1751.3,739.2 1861.8,739.2 1834.3,735.8 	"/>
	<polygon class="st22" points="1759.8,725 1779.1,727.4 1873.1,727.4 1852.3,725 	"/>
	<polygon class="st22" points="1722.9,782.9 1871.9,782.9 1820.5,774 1679.4,774 	"/>
	<polygon class="st22" points="1684.3,748.8 1709.9,753.1 1835.4,753.1 1805.8,748.8 	"/>
	<polygon class="st22" points="1635.4,765 1664.7,771 1803.2,771 1768.6,765 	"/>
	<polygon class="st22" points="1762.3,762 1895.9,762 1854.4,755.9 1726.4,755.9 	"/>
	<polygon class="st22" points="1295.2,833.1 1327.2,852.6 1548.3,852.6 1497.7,833.1 	"/>
	<polygon class="st22" points="462.3,922 178.3,922 70,963.8 393,963.8 	"/>
	<polygon class="st22" points="388.3,833.1 185.9,833.1 114.4,852.6 335.3,852.6 	"/>
	<polygon class="st22" points="437.9,814.9 252.7,814.9 197.8,829.9 397.1,829.9 	"/>
	<polygon class="st22" points="523.8,885 274.4,885 193.9,916 472.3,916 	"/>
	<polygon class="st22" points="807.2,718 900.4,718 901.6,716 810.4,716 	"/>
	<polygon class="st22" points="826.6,702.6 747.8,702.6 743.5,704.2 823.9,704.2 	"/>
	<polygon class="st22" points="273.1,765 135.3,765 100.6,771 244.1,771 	"/>
	<polygon class="st22" points="340,786.1 182.4,786.1 135.6,795.9 302.5,795.9 	"/>
	<polygon class="st22" points="290.2,799.1 120.4,799.1 63.1,811.1 244.2,811.1 	"/>
	<polygon class="st22" points="229.5,774 83.3,774 31.8,782.9 186.3,782.9 	"/>
	<polygon class="st22" points="322.3,1028.8 714.7,1028.8 749.7,970.2 413.7,970.2 	"/>
	<polygon class="st22" points="781.2,970.2 752,1028.8 1150.3,1028.8 1122,970.2 	"/>
	<polygon class="st22" points="1153.5,970.2 1187.7,1028.8 1579,1028.8 1488.7,970.2 	"/>
	<polygon class="st22" points="179.1,755.9 52.1,755.9 10.7,762 143.3,762 	"/>
	<polygon class="st22" points="227.5,704.2 242.3,702.6 165.6,702.6 149.9,704.2 	"/>
	<polygon class="st22" points="130.2,705.8 50.7,705.8 35.7,707.2 116.1,707.2 	"/>
	<polygon class="st22" points="313.9,704.2 327,702.6 247,702.6 232.5,704.2 	"/>
	<polygon class="st22" points="160.9,702.6 83.1,702.6 66.1,704.2 144.8,704.2 	"/>
	<polygon class="st22" points="398.3,704.2 409.6,702.6 331.6,702.6 318.7,704.2 	"/>
	<polygon class="st22" points="738.6,704.2 743.1,702.6 664.1,702.6 658.1,704.2 	"/>
	<polygon class="st22" points="653.1,704.2 659.5,702.6 580.5,702.6 572.6,704.2 	"/>
	<polygon class="st22" points="481.6,704.2 491.2,702.6 414.2,702.6 403,704.2 	"/>
	<polygon class="st22" points="567.8,704.2 575.8,702.6 495.9,702.6 486.3,704.2 	"/>
	<polygon class="st22" points="121.5,716 37.7,716 18.6,718 103.4,718 	"/>
	<polygon class="st22" points="149.4,725 49.8,725 28.7,727.4 130.3,727.4 	"/>
	<polygon class="st22" points="182.2,735.8 71.8,735.8 44.3,739.2 158.2,739.2 	"/>
	<polygon class="st22" points="224.4,729.6 120,729.6 91.4,733.2 199.4,733.2 	"/>
	<polygon class="st22" points="261.9,741.8 148.3,741.8 117.7,746.2 235.6,746.2 	"/>
	<polygon class="st22" points="100.5,708.8 19.2,708.8 5.8,710.1 87.8,710.1 	"/>
	<polygon class="st22" points="158.4,711.9 76.8,711.9 56.8,714 139.5,714 	"/>
	<polygon class="st22" points="189,720 93.8,720 67.4,723 165.2,723 	"/>
	<polygon class="st22" points="220.9,748.8 100.7,748.8 71.2,753.1 195.4,753.1 	"/>
	<polygon class="st22" points="324.4,856.6 99.8,856.6 13.2,880.2 260.1,880.2 	"/>
	<polygon class="st22" points="1080.7,885 823.5,885 808.1,916 1095.7,916 	"/>
	<polygon class="st22" points="1350.1,880.2 1313.7,856.6 1087.1,856.6 1100.9,880.2 	"/>
	<polygon class="st22" points="554.1,880.2 803.4,880.2 817.5,856.6 591,856.6 	"/>
	<polygon class="st22" points="1073.4,833.1 1084.8,852.6 1307.5,852.6 1277.4,833.1 	"/>
	<polygon class="st22" points="597.2,852.6 819.9,852.6 831.6,833.1 627.6,833.1 	"/>
	<polygon class="st22" points="197.6,782.9 352.2,782.9 386.3,774 240.1,774 	"/>
	<polygon class="st22" points="1450.4,814.9 1265.2,814.9 1289.8,829.9 1489.3,829.9 	"/>
	<polygon class="st22" points="671.7,795.9 688,786.1 531,786.1 505.6,795.9 	"/>
	<polygon class="st22" points="833.5,829.9 842.5,814.9 656.1,814.9 632.7,829.9 	"/>
	<polygon class="st22" points="1595.6,799.1 1426,799.1 1458.7,811.1 1639.6,811.1 	"/>
	<polygon class="st22" points="1607.9,735.8 1628.5,739.2 1741.2,739.2 1717.4,735.8 	"/>
	<polygon class="st22" points="1758.2,741.8 1643.2,741.8 1669.7,746.2 1788.8,746.2 	"/>
	<polygon class="st22" points="1786.2,729.6 1684.3,729.6 1709.7,733.2 1814.8,733.2 	"/>
	<polygon class="st22" points="1556,748.8 1577.2,753.1 1699.9,753.1 1674.8,748.8 	"/>
	<polygon class="st22" points="1660,774 1520.2,774 1554.3,782.9 1701.7,782.9 	"/>
	<polygon class="st22" points="369.9,782.9 524.8,782.9 549,774 402.5,774 	"/>
	<polygon class="st22" points="1390.6,786.1 1417.3,795.9 1583.8,795.9 1547.9,786.1 	"/>
	<polygon class="st22" points="1485.8,765 1508.7,771 1645.9,771 1617.8,765 	"/>
	<polygon class="st22" points="1716.1,755.9 1590.9,755.9 1620.8,762 1751.3,762 	"/>
	<polygon class="st22" points="452.5,710.1 539.5,710.1 545.8,708.8 460,708.8 	"/>
	<polygon class="st22" points="363.3,710.1 447.3,710.1 454.9,708.8 372.1,708.8 	"/>
	<polygon class="st22" points="272.8,710.1 358.2,710.1 367.1,708.8 283,708.8 	"/>
	<polygon class="st22" points="557.2,771 573.5,765 435.5,765 413.5,771 	"/>
	<polygon class="st22" points="1652.3,725 1669,727.4 1768.9,727.4 1750.1,725 	"/>
	<polygon class="st22" points="636.7,710.1 722.7,710.1 726.3,708.8 641.4,708.8 	"/>
	<polygon class="st22" points="544.7,710.1 630.8,710.1 635.7,708.8 550.9,708.8 	"/>
	<polygon class="st22" points="331.4,714 345.9,711.9 258.7,711.9 242.3,714 	"/>
	<polygon class="st22" points="718.2,714 807.7,714 811.2,711.9 723.6,711.9 	"/>
	<polygon class="st22" points="622.4,714 712.1,714 717.8,711.9 630,711.9 	"/>
	<polygon class="st22" points="181,710.1 267.5,710.1 277.8,708.8 192.4,708.8 	"/>
	<polygon class="st22" points="284.1,739.2 398.1,739.2 415,735.8 304.3,735.8 	"/>
	<polygon class="st22" points="210.9,718 304,718 317.7,716 226.6,716 	"/>
	<polygon class="st22" points="492.4,746.2 509.7,741.8 393.8,741.8 372.4,746.2 	"/>
	<polygon class="st22" points="297.3,762 432.2,762 455.5,755.9 326.4,755.9 	"/>
	<polygon class="st22" points="339.7,753.1 466.2,753.1 482.9,748.8 360.4,748.8 	"/>
	<polygon class="st22" points="427.2,733.2 444.9,729.6 339.8,729.6 318.8,733.2 	"/>
	<polygon class="st22" points="371.8,723 389.3,720 296,720 275.6,723 	"/>
	<polygon class="st22" points="245.8,727.4 346,727.4 360,725 262.1,725 	"/>
	<polygon class="st22" points="466.1,811.1 646.4,811.1 666.4,799.1 497.3,799.1 	"/>
	<polygon class="st22" points="121.7,707.2 200.8,707.2 213.9,705.8 135.5,705.8 	"/>
	<polygon class="st22" points="1808.9,720 1719.5,720 1743.7,723 1834.9,723 	"/>
	<polygon class="st22" points="295.6,707.2 378.1,707.2 388,705.8 306.9,705.8 	"/>
	<polygon class="st22" points="94,710.1 174.7,710.1 186.4,708.8 106.4,708.8 	"/>
	<polygon class="st22" points="206.5,707.2 290.5,707.2 302,705.8 219.3,705.8 	"/>
	<polygon class="st22" points="137.2,727.4 239.5,727.4 256,725 156,725 	"/>
	<polygon class="st22" points="383,707.2 464.3,707.2 472.8,705.8 392.9,705.8 	"/>
	<polygon class="st22" points="236.6,714 253.2,711.9 165.1,711.9 146.6,714 	"/>
	<polygon class="st22" points="269.7,723 290.3,720 195.2,720 171.7,723 	"/>
	<polygon class="st22" points="311.7,733.2 333.1,729.6 230.8,729.6 206,733.2 	"/>
	<polygon class="st22" points="111.4,718 204.9,718 220.7,716 129,716 	"/>
	<polygon class="st22" points="824.1,707.2 906.8,707.2 907.7,705.8 826.4,705.8 	"/>
	<polygon class="st22" points="906.5,718 1000,718 999,716 907.5,716 	"/>
	<polygon class="st22" points="999,705.8 999.8,707.2 1083.4,707.2 1081.2,705.8 	"/>
	<polygon class="st22" points="819.6,710.1 905.1,710.1 905.9,708.8 821.6,708.8 	"/>
	<polygon class="st22" points="728.3,710.1 814.2,710.1 816.3,708.8 731.7,708.8 	"/>
	<polygon class="st22" points="558.5,707.2 641.9,707.2 647.4,705.8 565.5,705.8 	"/>
	<polygon class="st22" points="647.3,707.2 730.6,707.2 734.6,705.8 652.6,705.8 	"/>
	<polygon class="st22" points="735.8,707.2 819,707.2 821.4,705.8 739.6,705.8 	"/>
	<polygon class="st22" points="469.3,707.2 553.5,707.2 560.6,705.8 477.7,705.8 	"/>
	<polygon class="st22" points="1093.3,710.1 1178.4,710.1 1175.1,708.8 1091.1,708.8 	"/>
	<polygon class="st22" points="1431.5,705.8 1440.1,707.2 1523.3,707.2 1513.4,705.8 	"/>
	<polygon class="st22" points="1518.5,705.8 1528.6,707.2 1610.7,707.2 1599.3,705.8 	"/>
	<polygon class="st22" points="1604.7,705.8 1616.4,707.2 1698,707.2 1685.4,705.8 	"/>
	<polygon class="st22" points="1258.8,705.8 1264.4,707.2 1347.3,707.2 1340.5,705.8 	"/>
	<polygon class="st22" points="1345.8,705.8 1352.9,707.2 1434.9,707.2 1426.6,705.8 	"/>
	<polygon class="st22" points="1691.2,705.8 1704.2,707.2 1787.5,707.2 1773.4,705.8 	"/>
	<polygon class="st22" points="1833.3,711.9 1746.4,711.9 1765.3,714 1853.7,714 	"/>
	<polygon class="st22" points="1687.3,716 1703.4,718 1791.6,718 1774.3,716 	"/>
	<polygon class="st22" points="1718.6,708.8 1730.3,710.1 1815.8,710.1 1803.1,708.8 	"/>
	<polygon class="st22" points="204,753.1 330.9,753.1 352,748.8 229.2,748.8 	"/>
	<polygon class="st22" points="165.2,739.2 276.6,739.2 297.1,735.8 189,735.8 	"/>
	<polygon class="st22" points="152.6,762 287.7,762 317.3,755.9 187.9,755.9 	"/>
	<polygon class="st22" points="364.1,746.2 385.9,741.8 269.6,741.8 243.6,746.2 	"/>
	<polygon class="st22" points="1086.1,705.8 1088.5,707.2 1170.9,707.2 1167.1,705.8 	"/>
	<polygon class="st22" points="1172.2,705.8 1176.1,707.2 1259,707.2 1253.6,705.8 	"/>
	<polygon class="st22" points="1000.8,708.8 1001.5,710.1 1087.9,710.1 1085.9,708.8 	"/>
	<polygon class="st22" points="397.7,771 420.7,765 283,765 254.4,771 	"/>
	<polygon class="st22" points="1103,716 1106.2,718 1198.9,718 1193.8,716 	"/>
	<polygon class="st22" points="1205.5,718 1298.5,718 1291.2,716 1200,716 	"/>
	<polygon class="st22" points="900.8,729.6 899,733.2 1007.3,733.2 1005.6,729.6 	"/>
	<polygon class="st22" points="1009,723 1107.8,723 1103.1,720 1007.3,720 	"/>
	<polygon class="st22" points="352.5,727.4 455.5,727.4 467.2,725 366.4,725 	"/>
	<polygon class="st22" points="1467.7,711.9 1480,714 1569.5,714 1555.2,711.9 	"/>
	<polygon class="st22" points="1583.1,716 1491.8,716 1503.6,718 1596.7,718 	"/>
	<polygon class="st22" points="1282.4,711.9 1290.4,714 1379.1,714 1369.3,711.9 	"/>
	<polygon class="st22" points="1375.9,711.9 1386.1,714 1474.2,714 1462.1,711.9 	"/>
	<polygon class="st22" points="476.9,723 491.4,720 395.3,720 378,723 	"/>
	<polygon class="st22" points="430,714 520.5,714 530.7,711.9 442.1,711.9 	"/>
	<polygon class="st22" points="309.6,718 401,718 412.8,716 323.2,716 	"/>
	<polygon class="st22" points="336.8,714 424.5,714 436.8,711.9 351.1,711.9 	"/>
	<polygon class="st22" points="1415.5,720 1430.1,723 1526.1,723 1508.8,720 	"/>
	<polygon class="st22" points="799.5,723 897.4,723 899.2,720 804.1,720 	"/>
	<polygon class="st22" points="707.8,718 801.1,718 804.4,716 713,716 	"/>
	<polygon class="st22" points="694.8,723 792.8,723 797.8,720 702.6,720 	"/>
	<polygon class="st22" points="607.7,718 701.2,718 706.7,716 615,716 	"/>
	<polygon class="st22" points="536.1,711.9 526.1,714 615.8,714 623.9,711.9 	"/>
	<polygon class="st22" points="1114.4,723 1211.9,723 1204.1,720 1109.5,720 	"/>
	<polygon class="st22" points="593.6,762 728,762 738.1,755.9 609.4,755.9 	"/>
	<polygon class="st22" points="872.3,765 733.9,765 724.6,771 868.7,771 	"/>
	<polygon class="st22" points="706,782.9 861.6,782.9 866.9,774 719.9,774 	"/>
	<polygon class="st22" points="850.9,829.9 1054.1,829.9 1046.8,814.9 858.4,814.9 	"/>
	<polygon class="st22" points="1039.2,799.1 866.2,799.1 860.3,811.1 1045,811.1 	"/>
	<polygon class="st22" points="1537.7,725 1439.9,725 1451.6,727.4 1551.5,727.4 	"/>
	<polygon class="st22" points="529.8,739.2 643.5,739.2 653,735.8 542.7,735.8 	"/>
	<polygon class="st22" points="462.2,727.4 564.6,727.4 573.8,725 473.7,725 	"/>
	<polygon class="st22" points="616.7,753.1 742.8,753.1 750,748.8 628,748.8 	"/>
	<polygon class="st22" points="659.8,733.2 669.7,729.6 565.2,729.6 551.8,733.2 	"/>
	<polygon class="st22" points="1289.1,748.8 1300.9,753.1 1427.1,753.1 1411.1,748.8 	"/>
	<polygon class="st22" points="1373.7,735.8 1387.1,739.2 1497.3,739.2 1480.9,735.8 	"/>
	<polygon class="st22" points="1509,741.8 1396.7,741.8 1413.9,746.2 1530.1,746.2 	"/>
	<polygon class="st22" points="1045.9,786.1 1051.6,795.9 1220.1,795.9 1205,786.1 	"/>
	<polygon class="st22" points="1350.2,729.6 1364.2,733.2 1469.2,733.2 1452.1,729.6 	"/>
	<polygon class="st22" points="1437.3,755.9 1308.5,755.9 1325.1,762 1459.7,762 	"/>
	<polygon class="st22" points="1344.3,774 1198.1,774 1212.8,782.9 1367.4,782.9 	"/>
	<polygon class="st22" points="1183.4,765 1193.2,771 1336.5,771 1320.9,765 	"/>
	<polygon class="st22" points="754.2,746.2 761.6,741.8 646.2,741.8 634.5,746.2 	"/>
	<polygon class="st22" points="1711.9,708.8 1629.3,708.8 1639.7,710.1 1723.1,710.1 	"/>
	<polygon class="st22" points="1634.4,741.8 1521.8,741.8 1543.8,746.2 1660.3,746.2 	"/>
	<polygon class="st22" points="1561.3,711.9 1575.9,714 1663.9,714 1647.5,711.9 	"/>
	<polygon class="st22" points="1539.7,708.8 1548.8,710.1 1633.4,710.1 1623.2,708.8 	"/>
	<polygon class="st22" points="1449.5,708.8 1457.1,710.1 1543,710.1 1534.2,708.8 	"/>
	<polygon class="st22" points="1462.4,729.6 1480.2,733.2 1585.3,733.2 1564.2,729.6 	"/>
	<polygon class="st22" points="1492.4,735.8 1509.6,739.2 1619.9,739.2 1599.7,735.8 	"/>
	<polygon class="st22" points="1515.3,720 1532.9,723 1630.7,723 1610.3,720 	"/>
	<polygon class="st22" points="1644.3,725 1544.7,725 1558.8,727.4 1660.6,727.4 	"/>
	<polygon class="st22" points="1679.6,716 1589.8,716 1603.7,718 1695.3,718 	"/>
	<polygon class="st22" points="1002.6,711.9 1003.8,714 1093.9,714 1090.7,711.9 	"/>
	<polygon class="st22" points="1006.1,718 1100.1,718 1097,716 1005,716 	"/>
	<polygon class="st22" points="813.5,714 902.8,714 904,711.9 816.8,711.9 	"/>
	<polygon class="st22" points="807.2,718 900.4,718 901.6,716 810.4,716 	"/>
	<polygon class="st22" points="1270.5,708.8 1275.5,710.1 1360.8,710.1 1354.7,708.8 	"/>
	<polygon class="st22" points="1360.7,708.8 1367.1,710.1 1451.7,710.1 1444.2,708.8 	"/>
	<polygon class="st22" points="1099.7,714 1188.6,714 1183.1,711.9 1096.2,711.9 	"/>
	<polygon class="st22" points="1194.6,714 1283.9,714 1276.2,711.9 1188.9,711.9 	"/>
	<polygon class="st22" points="1180.5,708.8 1184,710.1 1269.6,710.1 1264.8,708.8 	"/>
	<polygon class="st22" points="1333.3,765 1349.6,771 1492.6,771 1470.7,765 	"/>
	<polygon class="st22" points="853.8,795.9 859.7,786.1 701,786.1 685.7,795.9 	"/>
	<polygon class="st22" points="539.3,782.9 693.3,782.9 708.1,774 562.5,774 	"/>
	<polygon class="st22" points="713.1,771 723,765 585.8,765 570.2,771 	"/>
	<polygon class="st22" points="662,811.1 844.7,811.1 851.9,799.1 680.7,799.1 	"/>
	<polygon class="st22" points="624.5,746.2 636.7,741.8 520.7,741.8 504.2,746.2 	"/>
	<polygon class="st22" points="446.5,762 581.6,762 598.2,755.9 468.8,755.9 	"/>
	<polygon class="st22" points="405.7,739.2 519.2,739.2 532.6,735.8 422.4,735.8 	"/>
	<polygon class="st22" points="1065.1,852.6 1055.6,833.1 849.3,833.1 839.6,852.6 	"/>
	<polygon class="st22" points="479.1,753.1 605.8,753.1 617.7,748.8 495,748.8 	"/>
	<polygon class="st22" points="1503.6,774 1357.7,774 1381.9,782.9 1536.2,782.9 	"/>
	<polygon class="st22" points="1218,786.1 1234.1,795.9 1401.1,795.9 1375.7,786.1 	"/>
	<polygon class="st22" points="542.2,733.2 556.2,729.6 451.7,729.6 434.3,733.2 	"/>
	<polygon class="st22" points="1423.5,748.8 1440.2,753.1 1562.1,753.1 1541.8,748.8 	"/>
	<polygon class="st22" points="1575.2,755.9 1450.9,755.9 1474.3,762 1603.8,762 	"/>
	<polygon class="st22" points="825.9,880.2 1078.4,880.2 1067,856.6 837.6,856.6 	"/>
	<polygon class="st22" points="1239.3,799.1 1259.1,811.1 1440.6,811.1 1409.4,799.1 	"/>
	<polygon class="st22" points="1307.5,852.6 1277.4,833.1 1073.4,833.1 1084.8,852.6 	"/>
	<polygon class="st22" points="1450.4,814.9 1265.2,814.9 1289.8,829.9 1489.3,829.9 	"/>
	<polygon class="st22" points="1200.1,782.9 1186.3,774 1038.8,774 1044,782.9 	"/>
	<polygon class="st22" points="1913.2,702.6 1922,703.5 1922,702.6 	"/>
	<polygon class="st22" points="1908.8,702.6 1831.8,702.6 1849.2,704.2 1922,704.2 1922,704 	"/>
	<polygon class="st22" points="1865,705.8 1880.3,707.2 1922,707.2 1922,705.8 	"/>
	<polygon class="st22" points="800.6,885 546.7,885 498.4,916 782.1,916 	"/>
	<polygon class="st22" points="1916.9,711.9 1842.6,711.9 1864.1,714 1922,714 1922,712.4 	"/>
	<polygon class="st22" points="1912.1,720 1819.2,720 1846.2,723 1922,723 1922,721 	"/>
	<polygon class="st22" points="1884.5,716 1904.9,718 1922,718 1922,716 	"/>
	<polygon class="st22" points="1897.2,708.8 1910.9,710.1 1922,710.1 1922,708.8 	"/>
	<polygon class="st22" points="894.7,741.8 892.5,746.2 1013.6,746.2 1011.4,741.8 	"/>
	<polygon class="st22" points="901.9,727.4 1004.5,727.4 1003.3,725 903.1,725 	"/>
	<polygon class="st22" points="1864.2,725 1885.7,727.4 1922,727.4 1922,725 	"/>
	<polygon class="st22" points="775.8,733.2 781.8,729.6 677.7,729.6 668.2,733.2 	"/>
	<polygon class="st22" points="582,725 573.3,727.4 675.7,727.4 682.2,725 	"/>
	<polygon class="st22" points="889.1,753.1 1016.9,753.1 1014.8,748.8 891.3,748.8 	"/>
	<polygon class="st22" points="718.2,714 807.7,714 811.2,711.9 723.6,711.9 	"/>
	<polygon class="st22" points="1053.5,799.1 1060.5,811.1 1243.5,811.1 1225,799.1 	"/>
	<polygon class="st22" points="1033.6,765 1037.1,771 1181.7,771 1172.5,765 	"/>
	<polygon class="st22" points="905.5,720 904.1,723 1002.4,723 1000.9,720 	"/>
	<polygon class="st22" points="1272.4,829.9 1249.3,814.9 1062.7,814.9 1071.5,829.9 	"/>
	<polygon class="st22" points="423.9,963.8 753.5,963.8 778.5,922 489,922 	"/>
	<polygon class="st22" points="1922,878.9 1922,856.6 1836.7,856.6 	"/>
	<polygon class="st22" points="581.4,723 592.9,720 497.5,720 483.2,723 	"/>
	<polygon class="st22" points="1821.3,852.6 1922,852.6 1922,833.1 1746.7,833.1 	"/>
	<polygon class="st22" points="1802.1,799.1 1860.9,811.1 1922,811.1 1922,799.1 	"/>
	<polygon class="st22" points="1659.5,885 1743.8,916 1922,916 1922,888.2 1910.2,885 	"/>
	<polygon class="st22" points="1922,981.6 1922,970.2 1891.3,970.2 	"/>
	<polygon class="st22" points="1520.2,970.2 1616.3,1028.8 1922,1028.8 1922,996.6 1853.6,970.2 	"/>
	<polygon class="st22" points="1890.4,786.1 1738.5,786.1 1786.4,795.9 1922,795.9 1922,791.6 	"/>
	<polygon class="st22" points="1873.6,963.8 1922,963.8 1922,922 1760.1,922 	"/>
	<polygon class="st22" points="1905.5,729.6 1922,731.4 1922,729.6 	"/>
	<polygon class="st22" points="1817.4,748.8 1847.6,753.1 1922,753.1 1922,748.8 	"/>
	<polygon class="st22" points="1894.7,741.8 1922,745.1 1922,741.8 	"/>
	<polygon class="st22" points="1846.4,735.8 1874.6,739.2 1922,739.2 1922,735.8 	"/>
	<polygon class="st22" points="1892.2,729.6 1796.8,729.6 1826.2,733.2 1922,733.2 1922,733 	"/>
	<polygon class="st22" points="1832.8,774 1885.1,782.9 1922,782.9 1922,774 	"/>
	<polygon class="st22" points="1867.1,755.9 1909.4,762 1922,762 1922,755.9 	"/>
	<polygon class="st22" points="1903.9,786.1 1922,789.2 1922,786.1 	"/>
	<polygon class="st22" points="1916.3,765 1779.9,765 1815.2,771 1922,771 1922,765.8 	"/>
	<polygon class="st22" points="1879.2,814.9 1922,823.6 1922,814.9 	"/>
	<polygon class="st22" points="1485.7,716 1395.9,716 1405.7,718 1497.3,718 	"/>
	<polygon class="st22" points="1298.1,716 1305.8,718 1397.8,718 1388.4,716 	"/>
	<polygon class="st22" points="1219.1,723 1316.8,723 1305.8,720 1210.9,720 	"/>
	<polygon class="st22" points="1121.7,727.4 1223.3,727.4 1217.1,725 1117.7,725 	"/>
	<polygon class="st22" points="1015,733.2 1123.6,733.2 1117.9,729.6 1012.9,729.6 	"/>
	<polygon class="st22" points="1131.3,733.2 1238.5,733.2 1229.1,729.6 1125.3,729.6 	"/>
	<polygon class="st22" points="1237,729.6 1246.9,733.2 1354.4,733.2 1341,729.6 	"/>
	<polygon class="st22" points="1313.4,720 1324.9,723 1421.2,723 1407.2,720 	"/>
	<polygon class="st22" points="1430.6,725 1332.6,725 1341.8,727.4 1441.8,727.4 	"/>
	<polygon class="st22" points="897.7,735.8 896,739.2 1010.2,739.2 1008.5,735.8 	"/>
	<polygon class="st22" points="683.4,727.4 785.5,727.4 789.5,725 689.6,725 	"/>
	<polygon class="st22" points="516.6,716 507,718 600.5,718 608.2,716 	"/>
	<polygon class="st22" points="1010.2,725 1011.6,727.4 1114.6,727.4 1110.8,725 	"/>
	<polygon class="st22" points="406.9,718 501.1,718 510.8,716 418.4,716 	"/>
	<polygon class="st22" points="600.4,720 589.4,723 687.7,723 695.8,720 	"/>
	<polygon class="st22" points="783.5,733.2 891.2,733.2 893.4,729.6 789.2,729.6 	"/>
	<polygon class="st22" points="1385.5,741.8 1270.1,741.8 1282.3,746.2 1402,746.2 	"/>
	<polygon class="st22" points="792.6,727.4 894.8,727.4 896.2,725 796.3,725 	"/>
	<polygon class="st22" points="1253.7,735.8 1263.2,739.2 1376.3,739.2 1363.5,735.8 	"/>
	<polygon class="st22" points="1024.1,748.8 1026.6,753.1 1154.1,753.1 1147.4,748.8 	"/>
	<polygon class="st22" points="1167.9,762 1158.5,755.9 1028.3,755.9 1031.8,762 	"/>
	<polygon class="st22" points="1260.6,741.8 1145.2,741.8 1152.6,746.2 1272.3,746.2 	"/>
	<polygon class="st22" points="874.3,782.9 1031.3,782.9 1027,774 878.7,774 	"/>
	<polygon class="st22" points="1332.9,727.4 1324.2,725 1224.5,725 1231,727.4 	"/>
	<polygon class="st22" points="880.2,771 1025.6,771 1022.7,765 883.2,765 	"/>
	<polygon class="st22" points="887.7,755.9 884.7,762 1021.2,762 1018.3,755.9 	"/>
	<polygon class="st22" points="1156.7,748.8 1163.8,753.1 1290,753.1 1278.8,748.8 	"/>
	<polygon class="st22" points="1143.6,746.2 1136.7,741.8 1020,741.8 1022.6,746.2 	"/>
	<polygon class="st22" points="1135.4,735.8 1141.1,739.2 1254.1,739.2 1245,735.8 	"/>
	<polygon class="st22" points="1018.5,739.2 1132.8,739.2 1127.4,735.8 1016.5,735.8 	"/>
	<polygon class="st22" points="752.5,753.1 879.4,753.1 882,748.8 759.3,748.8 	"/>
	<polygon class="st22" points="738.6,762 874.1,762 877.7,755.9 748.1,755.9 	"/>
	<polygon class="st22" points="1297.3,755.9 1168.4,755.9 1178.4,762 1313.1,762 	"/>
	<polygon class="st22" points="1037.6,795.9 1032.9,786.1 872.7,786.1 867.8,795.9 	"/>
	<polygon class="st22" points="774.1,739.2 887.7,739.2 889.8,735.8 779.6,735.8 	"/>
	<polygon class="st22" points="652.6,739.2 765.8,739.2 771.6,735.8 661.7,735.8 	"/>
	<polygon class="st22" points="886.2,741.8 770.2,741.8 763.2,746.2 883.5,746.2 	"/>
	<polygon class="st22" points="437.9,814.9 252.7,814.9 197.8,829.9 397.1,829.9 	"/>
	<polygon class="st22" points="1824.2,710.1 1899.5,710.1 1886.9,708.8 1811,708.8 	"/>
	<polygon class="st22" points="1746.4,711.9 1765.3,714 1853.7,714 1833.3,711.9 	"/>
	<polygon class="st22" points="1842.7,704.2 1826.7,702.6 1747.6,702.6 1764.5,704.2 	"/>
	<polygon class="st22" points="1794.6,707.2 1871.3,707.2 1857.3,705.8 1779.8,705.8 	"/>
	<polygon class="st22" points="1801.3,718 1892.6,718 1873.2,716 1783.3,716 	"/>
	<polygon class="st22" points="1751.3,739.2 1861.8,739.2 1834.3,735.8 1727,735.8 	"/>
	<polygon class="st22" points="1800,746.2 1916.6,746.2 1881.3,741.8 1768.7,741.8 	"/>
	<polygon class="st22" points="1779.1,727.4 1873.1,727.4 1852.3,725 1759.8,725 	"/>
	<polygon class="st22" points="1719.5,720 1743.7,723 1834.9,723 1808.9,720 	"/>
	<polygon class="st22" points="1684.3,729.6 1709.7,733.2 1814.8,733.2 1786.2,729.6 	"/>
	<polygon class="st22" points="1333.4,704.2 1325.7,702.6 1246.8,702.6 1253.1,704.2 	"/>
	<polygon class="st22" points="1248.2,704.2 1242.1,702.6 1163.6,702.6 1168.1,704.2 	"/>
	<polygon class="st22" points="1163.2,704.2 1159,702.6 1081,702.6 1083.7,704.2 	"/>
	<polygon class="st22" points="1758.8,704.2 1742.8,702.6 1662.9,702.6 1677.7,704.2 	"/>
	<polygon class="st22" points="1417.9,704.2 1408.4,702.6 1330.4,702.6 1338.5,704.2 	"/>
	<polygon class="st22" points="1503.2,704.2 1492,702.6 1413,702.6 1422.7,704.2 	"/>
	<polygon class="st22" points="1672.4,704.2 1658.1,702.6 1579.3,702.6 1592.6,704.2 	"/>
	<polygon class="st22" points="1587.5,704.2 1574.6,702.6 1496.7,702.6 1508.1,704.2 	"/>
	<polygon class="st22" points="1478.7,963.8 1414.4,922 1125.3,922 1149.7,963.8 	"/>
	<polygon class="st22" points="266.5,811.1 448.1,811.1 480.8,799.1 310.5,799.1 	"/>
	<polygon class="st22" points="615.3,829.9 640.2,814.9 456.4,814.9 417.4,829.9 	"/>
	<polygon class="st22" points="358.4,852.6 577.5,852.6 609.9,833.1 409,833.1 	"/>
	<polygon class="st22" points="489.5,795.9 516.1,786.1 358.2,786.1 322.3,795.9 	"/>
	<polygon class="st22" points="1684.3,748.8 1709.9,753.1 1835.4,753.1 1805.8,748.8 	"/>
	<polygon class="st22" points="197.6,782.9 352.2,782.9 386.3,774 240.1,774 	"/>
	<polygon class="st22" points="152.6,762 287.7,762 317.3,755.9 187.9,755.9 	"/>
	<polygon class="st22" points="286.7,880.2 531.7,880.2 570.9,856.6 348,856.6 	"/>
	<polygon class="st22" points="397.7,771 420.7,765 283,765 254.4,771 	"/>
	<polygon class="st22" points="1722.9,782.9 1871.9,782.9 1820.5,774 1679.4,774 	"/>
	<polygon class="st22" points="204,753.1 330.9,753.1 352,748.8 229.2,748.8 	"/>
	<polygon class="st22" points="1566.6,786.1 1604.1,795.9 1762.5,795.9 1716.6,786.1 	"/>
	<polygon class="st22" points="1762.3,762 1895.9,762 1854.4,755.9 1726.4,755.9 	"/>
	<polygon class="st22" points="1405.1,916 1357.4,885 1103.7,885 1121.8,916 	"/>
	<polygon class="st22" points="1078.9,704.2 1076.3,702.6 997.1,702.6 998.1,704.2 	"/>
	<polygon class="st22" points="1098.6,922 805.1,922 784.4,963.8 1118.8,963.8 	"/>
	<polygon class="st22" points="1635.4,765 1664.7,771 1803.2,771 1768.6,765 	"/>
	<polygon class="st22" points="273.1,765 135.3,765 100.6,771 244.1,771 	"/>
	<polygon class="st22" points="229.5,774 83.3,774 31.8,782.9 186.3,782.9 	"/>
	<polygon class="st22" points="462.3,922 178.3,922 70,963.8 393,963.8 	"/>
	<polygon class="st22" points="179.1,755.9 52.1,755.9 10.7,762 143.3,762 	"/>
	<polygon class="st22" points="290.2,799.1 120.4,799.1 63.1,811.1 244.2,811.1 	"/>
	<polygon class="st22" points="220.9,748.8 100.7,748.8 71.2,753.1 195.4,753.1 	"/>
	<polygon class="st22" points="523.8,885 274.4,885 193.9,916 472.3,916 	"/>
	<polygon class="st22" points="324.4,856.6 99.8,856.6 13.2,880.2 260.1,880.2 	"/>
	<polygon class="st22" points="388.3,833.1 185.9,833.1 114.4,852.6 335.3,852.6 	"/>
	<polygon class="st22" points="340,786.1 182.4,786.1 135.6,795.9 302.5,795.9 	"/>
	<polygon class="st22" points="189,720 93.8,720 67.4,723 165.2,723 	"/>
	<polygon class="st22" points="121.5,716 37.7,716 18.6,718 103.4,718 	"/>
	<polygon class="st22" points="158.4,711.9 76.8,711.9 56.8,714 139.5,714 	"/>
	<polygon class="st22" points="100.5,708.8 19.2,708.8 5.8,710.1 87.8,710.1 	"/>
	<polygon class="st22" points="182.2,735.8 71.8,735.8 44.3,739.2 158.2,739.2 	"/>
	<polygon class="st22" points="261.9,741.8 148.3,741.8 117.7,746.2 235.6,746.2 	"/>
	<polygon class="st22" points="224.4,729.6 120,729.6 91.4,733.2 199.4,733.2 	"/>
	<polygon class="st22" points="149.4,725 49.8,725 28.7,727.4 130.3,727.4 	"/>
	<polygon class="st22" points="636.7,710.1 722.7,710.1 726.3,708.8 641.4,708.8 	"/>
	<polygon class="st22" points="322.3,1028.8 714.7,1028.8 749.7,970.2 413.7,970.2 	"/>
	<polygon class="st22" points="567.8,704.2 575.8,702.6 495.9,702.6 486.3,704.2 	"/>
	<polygon class="st22" points="738.6,704.2 743.1,702.6 664.1,702.6 658.1,704.2 	"/>
	<polygon class="st22" points="653.1,704.2 659.5,702.6 580.5,702.6 572.6,704.2 	"/>
	<polygon class="st22" points="826.6,702.6 747.8,702.6 743.5,704.2 823.9,704.2 	"/>
	<polygon class="st22" points="998,714 997,711.9 909.6,711.9 908.5,714 	"/>
	<polygon class="st22" points="994,705.8 912.6,705.8 911.9,707.2 994.7,707.2 	"/>
	<polygon class="st22" points="130.2,705.8 50.7,705.8 35.7,707.2 116.1,707.2 	"/>
	<polygon class="st22" points="909.6,702.6 831.3,702.6 828.7,704.2 908.6,704.2 	"/>
	<polygon class="st22" points="992.5,702.6 914.2,702.6 913.4,704.2 993.3,704.2 	"/>
	<polygon class="st22" points="160.9,702.6 83.1,702.6 66.1,704.2 144.8,704.2 	"/>
	<polygon class="st22" points="1153.5,970.2 1187.7,1028.8 1579,1028.8 1488.7,970.2 	"/>
	<polygon class="st22" points="781.2,970.2 752,1028.8 1150.3,1028.8 1122,970.2 	"/>
	<polygon class="st22" points="481.6,704.2 491.2,702.6 414.2,702.6 403,704.2 	"/>
	<polygon class="st22" points="398.3,704.2 409.6,702.6 331.6,702.6 318.7,704.2 	"/>
	<polygon class="st22" points="227.5,704.2 242.3,702.6 165.6,702.6 149.9,704.2 	"/>
	<polygon class="st22" points="313.9,704.2 327,702.6 247,702.6 232.5,704.2 	"/>
	<polygon class="st22" points="995.5,708.8 911.1,708.8 910.5,710.1 996.1,710.1 	"/>
	<polygon class="st22" points="1295.2,833.1 1327.2,852.6 1548.3,852.6 1497.7,833.1 	"/>
	<polygon class="st22" points="1350.1,880.2 1313.7,856.6 1087.1,856.6 1100.9,880.2 	"/>
	<polygon class="st22" points="1620.1,880.2 1558.7,856.6 1333.7,856.6 1372.5,880.2 	"/>
	<polygon class="st22" points="1426,799.1 1458.7,811.1 1639.6,811.1 1595.6,799.1 	"/>
	<polygon class="st22" points="1390.6,786.1 1417.3,795.9 1583.8,795.9 1547.9,786.1 	"/>
	<polygon class="st22" points="466.1,811.1 646.4,811.1 666.4,799.1 497.3,799.1 	"/>
	<polygon class="st22" points="833.5,829.9 842.5,814.9 656.1,814.9 632.7,829.9 	"/>
	<polygon class="st22" points="554.1,880.2 803.4,880.2 817.5,856.6 591,856.6 	"/>
	<polygon class="st22" points="1080.7,885 823.5,885 808.1,916 1095.7,916 	"/>
	<polygon class="st22" points="597.2,852.6 819.9,852.6 831.6,833.1 627.6,833.1 	"/>
	<polygon class="st22" points="1607.9,735.8 1628.5,739.2 1741.2,739.2 1717.4,735.8 	"/>
	<polygon class="st22" points="1571.8,729.6 1593.2,733.2 1700.4,733.2 1675.6,729.6 	"/>
	<polygon class="st22" points="1758.2,741.8 1643.2,741.8 1669.7,746.2 1788.8,746.2 	"/>
	<polygon class="st22" points="1750.1,725 1652.3,725 1669,727.4 1768.9,727.4 	"/>
	<polygon class="st22" points="1660,774 1520.2,774 1554.3,782.9 1701.7,782.9 	"/>
	<polygon class="st22" points="1485.8,765 1508.7,771 1645.9,771 1617.8,765 	"/>
	<polygon class="st22" points="1556,748.8 1577.2,753.1 1699.9,753.1 1674.8,748.8 	"/>
	<polygon class="st22" points="1716.1,755.9 1590.9,755.9 1620.8,762 1751.3,762 	"/>
	<polygon class="st22" points="371.8,723 389.3,720 296,720 275.6,723 	"/>
	<polygon class="st22" points="1617.6,720 1638.4,723 1734.4,723 1710.9,720 	"/>
	<polygon class="st22" points="331.4,714 345.9,711.9 258.7,711.9 242.3,714 	"/>
	<polygon class="st22" points="210.9,718 304,718 317.7,716 226.6,716 	"/>
	<polygon class="st22" points="272.8,710.1 358.2,710.1 367.1,708.8 283,708.8 	"/>
	<polygon class="st22" points="181,710.1 267.5,710.1 277.8,708.8 192.4,708.8 	"/>
	<polygon class="st22" points="622.4,714 712.1,714 717.8,711.9 630,711.9 	"/>
	<polygon class="st22" points="544.7,710.1 630.8,710.1 635.7,708.8 550.9,708.8 	"/>
	<polygon class="st22" points="363.3,710.1 447.3,710.1 454.9,708.8 372.1,708.8 	"/>
	<polygon class="st22" points="452.5,710.1 539.5,710.1 545.8,708.8 460,708.8 	"/>
	<polygon class="st22" points="339.7,753.1 466.2,753.1 482.9,748.8 360.4,748.8 	"/>
	<polygon class="st22" points="557.2,771 573.5,765 435.5,765 413.5,771 	"/>
	<polygon class="st22" points="297.3,762 432.2,762 455.5,755.9 326.4,755.9 	"/>
	<polygon class="st22" points="671.7,795.9 688,786.1 531,786.1 505.6,795.9 	"/>
	<polygon class="st22" points="369.9,782.9 524.8,782.9 549,774 402.5,774 	"/>
	<polygon class="st22" points="492.4,746.2 509.7,741.8 393.8,741.8 372.4,746.2 	"/>
	<polygon class="st22" points="245.8,727.4 346,727.4 360,725 262.1,725 	"/>
	<polygon class="st22" points="427.2,733.2 444.9,729.6 339.8,729.6 318.8,733.2 	"/>
	<polygon class="st22" points="284.1,739.2 398.1,739.2 415,735.8 304.3,735.8 	"/>
	<polygon class="st22" points="735.8,707.2 819,707.2 821.4,705.8 739.6,705.8 	"/>
	<polygon class="st22" points="1774.3,716 1687.3,716 1703.4,718 1791.6,718 	"/>
	<polygon class="st22" points="558.5,707.2 641.9,707.2 647.4,705.8 565.5,705.8 	"/>
	<polygon class="st22" points="383,707.2 464.3,707.2 472.8,705.8 392.9,705.8 	"/>
	<polygon class="st22" points="295.6,707.2 378.1,707.2 388,705.8 306.9,705.8 	"/>
	<polygon class="st22" points="469.3,707.2 553.5,707.2 560.6,705.8 477.7,705.8 	"/>
	<polygon class="st22" points="647.3,707.2 730.6,707.2 734.6,705.8 652.6,705.8 	"/>
	<polygon class="st22" points="364.1,746.2 385.9,741.8 269.6,741.8 243.6,746.2 	"/>
	<polygon class="st22" points="728.3,710.1 814.2,710.1 816.3,708.8 731.7,708.8 	"/>
	<polygon class="st22" points="311.7,733.2 333.1,729.6 230.8,729.6 206,733.2 	"/>
	<polygon class="st22" points="121.7,707.2 200.8,707.2 213.9,705.8 135.5,705.8 	"/>
	<polygon class="st22" points="269.7,723 290.3,720 195.2,720 171.7,723 	"/>
	<polygon class="st22" points="137.2,727.4 239.5,727.4 256,725 156,725 	"/>
	<polygon class="st22" points="165.2,739.2 276.6,739.2 297.1,735.8 189,735.8 	"/>
	<polygon class="st22" points="819.6,710.1 905.1,710.1 905.9,708.8 821.6,708.8 	"/>
	<polygon class="st22" points="111.4,718 204.9,718 220.7,716 129,716 	"/>
	<polygon class="st22" points="94,710.1 174.7,710.1 186.4,708.8 106.4,708.8 	"/>
	<polygon class="st22" points="236.6,714 253.2,711.9 165.1,711.9 146.6,714 	"/>
	<polygon class="st22" points="206.5,707.2 290.5,707.2 302,705.8 219.3,705.8 	"/>
	<polygon class="st22" points="1431.5,705.8 1440.1,707.2 1523.3,707.2 1513.4,705.8 	"/>
	<polygon class="st22" points="1518.5,705.8 1528.6,707.2 1610.7,707.2 1599.3,705.8 	"/>
	<polygon class="st22" points="1093.3,710.1 1178.4,710.1 1175.1,708.8 1091.1,708.8 	"/>
	<polygon class="st22" points="1258.8,705.8 1264.4,707.2 1347.3,707.2 1340.5,705.8 	"/>
	<polygon class="st22" points="1172.2,705.8 1176.1,707.2 1259,707.2 1253.6,705.8 	"/>
	<polygon class="st22" points="1345.8,705.8 1352.9,707.2 1434.9,707.2 1426.6,705.8 	"/>
	<polygon class="st22" points="1803.1,708.8 1718.6,708.8 1730.3,710.1 1815.8,710.1 	"/>
	<polygon class="st22" points="1604.7,705.8 1616.4,707.2 1698,707.2 1685.4,705.8 	"/>
	<polygon class="st22" points="1654.2,711.9 1671.2,714 1756.9,714 1738.7,711.9 	"/>
	<polygon class="st22" points="1691.2,705.8 1704.2,707.2 1787.5,707.2 1773.4,705.8 	"/>
	<polygon class="st22" points="1000.8,708.8 1001.5,710.1 1087.9,710.1 1085.9,708.8 	"/>
	<polygon class="st22" points="999,705.8 999.8,707.2 1083.4,707.2 1081.2,705.8 	"/>
	<polygon class="st22" points="824.1,707.2 906.8,707.2 907.7,705.8 826.4,705.8 	"/>
	<polygon class="st22" points="1086.1,705.8 1088.5,707.2 1170.9,707.2 1167.1,705.8 	"/>
	<polygon class="st22" points="906.5,718 1000,718 999,716 907.5,716 	"/>
	<path class="st23" d="M1616.3,1028.8l-96.1-58.6h333.4l68.4,26.3v-15l-30.8-11.3h30.8v-6.5h-48.4L1760.1,922h162v-6h-178.3
		l-84.3-31h250.7l11.9,3.2v-9.3l-85.4-22.3h85.4v-4h-100.7l-74.7-19.5H1922v-9.5l-42.8-8.8h42.8v-3.8h-61.2l-58.8-12h120v-3.2
		h-135.6l-47.9-9.8h151.8l31.7,5.5v-2.4l-18.1-3.1h18.1v-3.2h-36.9l-52.3-8.9h89.2v-3h-106.9l-35.3-6h136.4l5.7,0.8V762h-12.6
		l-42.4-6.1h55v-2.8h-74.4l-30.2-4.3h104.7v-3.6l-27.3-3.4h27.3v-2.5h-47.5l-28.2-3.5h75.7v-2.5h-95.8l-29.4-3.7h95.3l29.9,3.5v-1.6
		l-16.6-1.8h16.5v-2.2h-36.3l-21.6-2.4h57.9v-2h-75.8l-27-3h92.9l9.9,1v-3h-17.1l-20.4-2h37.5v-2h-58l-21.5-2.1h74.3l5.1,0.5v-2.3
		h-11.1l-13.7-1.3h24.8v-1.6h-41.7l-15.3-1.5h57v-1.5h-72.8l-17.4-1.7h77l13.2,1.3v-0.4l-8.8-0.9h8.8v-1.2H2v1.2h76.3l-17.7,1.7H2
		v1.5h42.6l-15.5,1.5H2v1.6H12L2,709.7v2.2h68.2L49.8,714H2v2h28.2l-19.5,2H2v2h83.3l-27.1,3H2v2h38.2l-21.6,2.4H2v3l7.2-0.8h103.6
		l-28.9,3.7H2v2.5h62.1l-27.8,3.5H2v2.5h14.5L2,743.6v1.1l22.7-2.9h116.4l-30.9,4.5H2v2.5h91l-29.8,4.3H2v2.8h42L2.2,762H2v3h123.7
		l-35.1,6H2v3h71l-52.1,8.9H2v3.2h0.1H2v1.9l11.3-2h157.4l-47.5,9.8H2v3.2h105.7l-58.3,12H2v3.8h29.2l-29.2,6v3l43.1-9h184.7
		l-57.4,15H2v3.2h158l-74.6,19.5H2v4h68.1L2,874.4V885h245.2L163,916H2v6h144.6L33.2,963.8H2v6.5h13.5L2,975.2v14.7l51-19.7h329.1
		l-97.3,58.6H2v10.3h265.7L200,1080h42.5l63.7-40.8h402.3l-24.4,40.8h42.5l20.3-40.8h408.4l19.8,40.8h42.5l-23.8-40.8h401.2
		l62.9,40.8h42.5l-67-40.8H1922v-10.3L1616.3,1028.8z M1836.8,963.7h-327.3L1441,922h287.4L1836.8,963.7z M498.4,916l48.4-31h253.9
		l-18.5,31H498.4z M778.5,922l-24.9,41.8H423.9L489,922H778.5z M1003.3,725l1.2,2.4H901.9l1.2-2.4H1003.3z M904.1,723l1.5-3h95.4
		l1.5,3H904.1z M1060.5,811.1l-7-12H1225l18.5,12H1060.5z M1249.3,814.9l23.1,15h-200.9l-8.8-15H1249.3z M1037.1,771l-3.5-6h138.9
		l9.2,6H1037.1z M1186.3,774l13.7,8.9h-156l-5.2-8.9H1186.3z M677.7,729.6h104.1l-6.1,3.7H668.2L677.7,729.6z M675.7,727.4H573.3
		l8.8-2.4h100.2L675.7,727.4z M1014.8,748.7l2.1,4.3H889.1l2.2-4.3H1014.8z M892.5,746.2l2.2-4.5h116.7l2.2,4.5H892.5z
		 M1229.1,729.6l9.5,3.7h-107.2l-6-3.7H1229.1z M1224.5,725h99.6l8.8,2.4H1231L1224.5,725z M1021.2,762H884.7l3-6.1h130.6
		L1021.2,762z M1020,741.8h116.7l6.9,4.5h-121L1020,741.8z M1022.7,765l2.9,6H880.2l3-6H1022.7z M1027,774l4.3,8.9H874.3l4.4-8.9
		H1027z M1028.3,755.9h130.2l9.4,6.1h-136L1028.3,755.9z M1026.6,753.1l-2.5-4.3h123.3l6.7,4.3H1026.6z M1152.6,746.3l-7.4-4.5
		h115.4l11.7,4.5H1152.6z M1141.1,739.3l-5.7-3.5H1245l9.1,3.5H1141.1z M1127.4,735.8l5.4,3.5h-114.3l-2-3.5H1127.4z M887.7,739.3
		H774.1l5.5-3.5h110.2L887.7,739.3z M771.6,735.8l-5.8,3.5H652.6l9.1-3.5H771.6z M770.2,741.8h116l-2.7,4.5H763.2L770.2,741.8z
		 M882,748.8l-2.6,4.3H752.5l6.8-4.3H882z M877.7,755.9l-3.6,6.1H738.6l9.5-6.1H877.7z M1032.9,786.1l4.7,9.8H867.8l4.9-9.8H1032.9z
		 M1178.5,762l-10-6.1h128.9l15.8,6.1H1178.5z M1163.9,753.1l-7.1-4.3h122l11.3,4.3H1163.9z M1270.1,741.8h115.4l16.5,4.5h-119.7
		L1270.1,741.8z M1263.3,739.2l-9.5-3.5h109.7l12.8,3.5H1263.3z M1247,733.2l-9.9-3.7h104l13.4,3.7H1247z M1332.6,725h98l11.2,2.4
		h-100.1L1332.6,725z M1325,723l-11.5-3h93.8l14,3H1325z M1405.7,718l-9.8-2h89.8l11.5,2H1405.7z M1397.9,718h-92.1l-7.7-2h90.4
		L1397.9,718z M1305.9,720l11,3h-97.8l-8.2-3H1305.9z M1223.4,727.4h-101.7l-3.9-2.4h99.4L1223.4,727.4z M1118,729.6l5.6,3.7H1015
		l-2.1-3.7H1118z M1011.6,727.4l-1.4-2.4h100.6l3.7,2.4H1011.6z M1010.3,739.2H896l1.7-3.5h110.8L1010.3,739.2z M894.8,727.4H792.6
		l3.8-2.4h99.8L894.8,727.4z M893.4,729.6l-2.2,3.7H783.5l5.7-3.7H893.4z M785.4,727.4h-102l6.2-2.4h99.9L785.4,727.4z M687.6,723
		h-98.3l11-3h95.5L687.6,723z M507,718l9.5-2h91.6l-7.7,2H507z M501.1,718h-94.3l11.6-2h92.4L501.1,718z M592.9,720l-11.5,3h-98.2
		l14.3-3H592.9z M573.7,725l-9.2,2.4H462.2l11.4-2.4H573.7z M565.2,729.6h104.5l-9.9,3.7h-108L565.2,729.6z M653,735.8l-9.5,3.5
		H529.8l12.8-3.5H653z M646.1,741.8h115.5l-7.5,4.5H634.5L646.1,741.8z M750,748.8l-7.2,4.3H616.7l11.3-4.3H750z M738.1,755.9
		L728,762H593.6l15.8-6.1H738.1z M733.9,765h138.4l-3.6,6H724.6L733.9,765z M866.9,774l-5.3,8.9H706l13.9-8.9H866.9z M866.2,799.1
		h173l5.8,12H860.3L866.2,799.1z M1046.8,814.9l7.3,15H850.9l7.5-15H1046.8z M1051.6,795.9l-5.7-9.8H1205l15.1,9.8H1051.6z
		 M1198.1,774h146.1l23.1,8.9h-154.6L1198.1,774z M1193.2,771l-9.8-6h137.6l15.6,6H1193.2z M1308.5,755.9h128.8l22.3,6.1h-134.5
		L1308.5,755.9z M1300.9,753.1l-11.8-4.3h122.1l15.9,4.3H1300.9z M1396.7,741.8H1509l21.1,4.5h-116.1L1396.7,741.8z M1387.1,739.3
		l-13.4-3.5h107.2l16.4,3.5H1387.1z M1364.1,733.3l-14-3.7h101.9l17.1,3.7H1364.1z M1451.6,727.4l-11.7-2.4h97.8l13.9,2.4
		L1451.6,727.4z M1430.1,723l-14.6-3h93.4l17.3,3L1430.1,723z M1503.5,718l-11.8-2h91.3l13.6,2H1503.5z M1480,714l-12.3-2.1h87.5
		l14.3,2.1L1480,714z M1474.1,714h-88l-10.3-2.1h86.2L1474.1,714z M1379.1,714h-88.7l-8-2.1h86.9L1379.1,714z M1291.2,716l7.3,2h-93
		l-5.4-2H1291.2z M1204.1,720l7.8,3h-97.4l-4.9-3H1204.1z M1106.2,718l-3.3-2h90.8l5.2,2H1106.2z M1103.1,720l4.6,3H1009l-1.8-3
		H1103.1z M1007.3,733.3H899l1.8-3.7h104.8L1007.3,733.3z M897.4,723h-97.9l4.7-3h95L897.4,723z M801.1,718h-93.3l5.2-2h91.4
		L801.1,718z M797.8,720l-5,3h-97.9l7.8-3H797.8z M701.3,718h-93.6l7.3-2h91.7L701.3,718z M526.1,714l10-2.1h87.7l-8,2.1H526.1z
		 M520.5,714H430l12.1-2.1h88.6L520.5,714z M424.5,714h-87.7l14.3-2.1h85.7L424.5,714z M412.8,716l-11.7,2h-91.5l13.6-2H412.8z
		 M491.5,720l-14.5,3H378l17.3-3H491.5z M467.2,725l-11.7,2.4h-103l13.9-2.4H467.2z M556.2,729.6l-14,3.7H434.3l17.4-3.7H556.2z
		 M532.7,735.8l-13.4,3.5H405.7l16.7-3.5H532.7z M520.7,741.8h116l-12.2,4.5H504.2L520.7,741.8z M617.7,748.8l-11.8,4.3H479.1
		l15.9-4.3H617.7z M598.3,755.9l-16.7,6.1H446.5l22.4-6.1H598.3z M585.8,765H723l-10,6H570.2L585.8,765z M708.1,774l-14.8,8.9h-154
		l23.2-8.9H708.1z M701,786.1h158.7l-5.8,9.8H685.7L701,786.1z M851.9,799.1l-7.2,12H662l18.8-12H851.9z M849.3,833.1h206.3
		l9.4,19.5H839.6L849.3,833.1z M1067,856.6l11.4,23.6H825.9l11.7-23.6H1067z M1073.4,833.1h204.1l30,19.5h-222.7L1073.4,833.1z
		 M1265.2,814.8h185.2l38.9,15h-199.5L1265.2,814.8z M1259.1,811.1l-19.7-12h170.1l31.2,12H1259.1z M1234.1,795.9l-16.1-9.8h157.7
		l25.4,9.8H1234.1z M1357.7,774h145.9l32.6,8.9h-154.3L1357.7,774z M1349.6,771l-16.3-6h137.4l22,6H1349.6z M1450.9,755.9h124.3
		l28.6,6.1h-129.5L1450.9,755.9z M1440.2,753.1l-16.7-4.4h118.2l20.4,4.3L1440.2,753.1z M1521.8,741.8h112.6l26,4.5h-116.6
		L1521.8,741.8z M1509.5,739.3l-17.1-3.5h107.3l20.2,3.5H1509.5z M1480.2,733.3l-17.8-3.7h101.9l21.1,3.7H1480.2z M1558.8,727.4
		l-14.1-2.4h99.6l16.3,2.4H1558.8z M1532.9,723l-17.6-3h95l20.4,3H1532.9z M1603.7,718l-13.9-2h89.8l15.7,2H1603.7z M1575.9,714
		l-14.6-2.1h86.2l16.5,2.1H1575.9z M1639.7,710.1l-10.5-1.3h82.6l11.3,1.3H1639.7z M1633.4,710.1h-84.6l-9-1.3h83.4L1633.4,710.1z
		 M1543,710.1h-85.9l-7.7-1.3h84.7L1543,710.1z M1451.7,710.1h-84.6l-6.3-1.3h83.4L1451.7,710.1z M1360.8,710.1h-85.3l-5-1.3h84.2
		L1360.8,710.1z M1276.2,711.9l7.7,2.1h-89.2l-5.7-2.1H1276.2z M1184,710.1l-3.5-1.3h84.3l4.8,1.3H1184z M1183.1,711.9l5.4,2.1
		h-88.9l-3.4-2.1H1183.1z M1097,716l3.1,2h-93.9l-1.2-2H1097z M1003.8,714l-1.2-2.1h88.1l3.2,2.1H1003.8z M902.8,714h-89.3l3.3-2.1
		H904L902.8,714z M901.6,716l-1.2,2h-93.1l3.1-2H901.6z M807.7,714h-89.6l5.5-2.1h87.6L807.7,714z M722.7,710.1h-86.1l4.8-1.3h84.9
		L722.7,710.1z M717.8,711.9l-5.7,2.1h-89.8l7.7-2.1H717.8z M630.8,710.1h-86l6.2-1.3h84.8L630.8,710.1z M539.5,710.1h-87l7.5-1.3
		h85.7L539.5,710.1z M447.3,710.1h-84l8.8-1.3H455L447.3,710.1z M358.2,710.1h-85.4l10.2-1.3h84.1L358.2,710.1z M267.5,710.1H181
		l11.5-1.3h85.4L267.5,710.1z M345.9,711.9l-14.4,2.1h-89.2l16.5-2.1L345.9,711.9z M317.7,716l-13.7,2h-93.1l15.7-2H317.7z
		 M389.3,720l-17.6,3h-96.1l20.4-3H389.3z M360,725l-14.1,2.4H245.8l16.3-2.4H360z M444.9,729.6l-17.7,3.7H318.8l21.1-3.7H444.9z
		 M415,735.8l-17,3.5H284l20.2-3.5H415z M509.7,741.8l-17.2,4.5H372.4l21.5-4.5H509.7z M482.9,748.8l-16.6,4.3H339.7l20.7-4.3H482.9
		z M455.5,755.9l-23.3,6.1H297.3l29.1-6.1H455.5z M435.5,765h138l-16.3,6H413.5L435.5,765z M549,774l-24.2,8.9H369.9l32.6-8.9H549z
		 M531,786.1h157l-16.3,9.8H505.6L531,786.1z M666.4,799.1l-20,12H466.1l31.2-12H666.4z M656.1,814.9h186.4l-9,15H632.7L656.1,814.9
		z M831.6,833.1l-11.7,19.5H597.2l30.4-19.5H831.6z M817.6,856.6l-14.1,23.6H554.1l36.9-23.6H817.6z M823.5,885h257.2l15,31H808.1
		L823.5,885z M1087.1,856.6h226.6l36.4,23.6h-249.1L1087.1,856.6z M1333.7,856.6h225l61.3,23.6h-247.5L1333.7,856.6z M1327.1,852.6
		l-32-19.5h202.6l50.6,19.5H1327.1z M1468.8,814.9h184.5l54.9,15h-198.6L1468.8,814.9z M1458.6,811.1l-32.7-12h169.6l44,12H1458.6z
		 M1417.2,795.9l-26.6-9.8h157.3l35.9,9.8H1417.2z M1520.2,774H1660l41.7,8.9h-147.3L1520.2,774z M1508.7,771l-23-6h132.1l28.1,6
		H1508.7z M1590.9,755.9h125.1l35.2,6.1h-130.5L1590.9,755.9z M1577.2,753.1l-21.3-4.3h118.8l25.1,4.3H1577.2z M1669.7,746.3
		l-26.5-4.5h115l30.6,4.5H1669.7z M1628.5,739.3l-20.6-3.5h109.5l23.8,3.5H1628.5z M1593.2,733.3l-21.5-3.7h103.8l24.8,3.7H1593.2z
		 M1669,727.4l-16.7-2.4h97.8l18.8,2.4H1669z M1638.4,723l-20.8-3h93.4l23.5,3H1638.4z M1703.4,718l-16.1-2h87l17.3,2H1703.4z
		 M1671.2,714l-16.9-2.1h84.5l18.2,2.1H1671.2z M1730.3,710.1l-11.7-1.3h84.5l12.7,1.3H1730.3z M1704.2,707.2l-13-1.5h82.2l14.1,1.5
		H1704.2z M1698,707.2h-81.6l-11.7-1.5h80.7L1698,707.2z M1610.7,707.2h-82l-10.2-1.5h80.8L1610.7,707.2z M1523.3,707.2h-83.2
		l-8.5-1.5h81.9L1523.3,707.2z M1434.9,707.2h-82l-7.1-1.5h80.8L1434.9,707.2z M1347.2,707.2h-82.8l-5.6-1.5h81.7L1347.2,707.2z
		 M1259,707.2h-82.8l-3.9-1.5h81.5L1259,707.2z M1175.1,708.8l3.4,1.3h-85.2l-2.1-1.3H1175.1z M1088.5,707.2l-2.4-1.5h81l3.8,1.5
		H1088.5z M1087.9,710.1h-86.4l-0.8-1.3h85.1L1087.9,710.1z M999.8,707.2l-0.8-1.5h82.2l2.2,1.5H999.8z M999,716l1,2h-93.5l1-2H999z
		 M906.8,707.2h-82.7l2.3-1.5h81.3L906.8,707.2z M905.8,708.8l-0.8,1.3h-85.5l2-1.3H905.8z M818.9,707.2h-83.1l3.8-1.5h81.8
		L818.9,707.2z M816.3,708.8l-2.2,1.3h-85.8l3.4-1.3H816.3z M730.6,707.2h-83.3l5.3-1.5h82L730.6,707.2z M641.8,707.2h-83.3l6.9-1.5
		h82L641.8,707.2z M553.5,707.2h-84.2l8.4-1.5h82.9L553.5,707.2z M464.2,707.2H383l9.9-1.5h79.9L464.2,707.2z M378,707.2h-82.5
		l11.4-1.5H388L378,707.2z M290.5,707.2h-84l12.8-1.5H302L290.5,707.2z M200.8,707.2h-79.1l13.8-1.5h78.4L200.8,707.2z M186.3,708.8
		l-11.7,1.3H94l12.4-1.3H186.3z M253.2,711.9l-16.6,2.1h-89.9l18.5-2.1L253.2,711.9z M220.7,716l-15.9,2h-93.4l17.6-2H220.7z
		 M290.3,720l-20.6,3h-98l23.5-3H290.3z M256,725l-16.5,2.4H137.2L156,725H256z M333.1,729.6l-21.4,3.7H206l24.8-3.7H333.1z
		 M297.1,735.8l-20.5,3.5H165.2l23.8-3.5H297.1z M385.9,741.8l-21.8,4.5H243.6l26-4.5H385.9z M352,748.8l-21.1,4.3H204l25.1-4.3H352
		z M317.3,755.9l-29.6,6.1H152.6l35.2-6.1H317.3z M420.7,765l-23,6H254.4l28.6-6H420.7z M386.3,774l-34,8.9H197.6L240,774H386.3z
		 M358.2,786.1h158l-26.7,9.8H322.3L358.2,786.1z M480.8,799.1l-32.7,12H266.5l44.1-12H480.8z M456.4,814.9h183.9l-24.9,15H417.4
		L456.4,814.9z M609.9,833.1l-32.4,19.5H358.4l50.6-19.5H609.9z M570.9,856.6l-39.2,23.6h-245l61.3-23.6H570.9z M805.1,922h293.5
		l20.2,41.8H784.4L805.1,922z M1103.7,885h253.7l47.8,31h-283.3L1103.7,885z M1414.4,922l64.3,41.8h-329l-24.4-41.8H1414.4z
		 M1712.8,916h-281.7l-50.9-31h252.1L1712.8,916z M1892.8,880.2h-246.2l-64.2-23.6h223.9L1892.8,880.2z M1791.6,852.6h-220.1
		l-53-19.5h201.7L1791.6,852.6z M1921.6,829.9h-187.4l-57.4-15h174.6L1921.6,829.9z M1833.8,811.1h-171.4l-46.1-12h161.2
		L1833.8,811.1z M1762.5,795.9h-158.4l-37.5-9.8h150.1L1762.5,795.9z M1820.5,774l51.4,8.9h-149l-43.5-8.9H1820.5z M1803.2,771
		h-138.4l-29.3-6h133.2L1803.2,771z M1854.4,755.9l41.5,6.1h-133.6l-35.9-6.1H1854.4z M1835.4,753.1h-125.5l-25.6-4.3h121.5
		L1835.4,753.1z M1881.3,741.8l35.3,4.5H1800l-31.3-4.5H1881.3z M1834.3,735.8l27.4,3.5h-110.4l-24.3-3.5H1834.3z M1814.8,733.3
		h-105.1l-25.4-3.7h101.9L1814.8,733.3z M1852.3,725l20.8,2.4h-94l-19.3-2.4H1852.3z M1835,723h-91.3l-24.2-3h89.5L1835,723z
		 M1873.2,716l19.5,2h-91.4l-18-2H1873.2z M1853.7,714h-88.4l-18.9-2.1h86.8L1853.7,714z M1886.9,708.8l12.6,1.3h-75.2l-13.3-1.3
		H1886.9z M1857.3,705.8l14.1,1.5h-76.7l-14.8-1.5H1857.3z M1826.7,702.7l16,1.7h-78.2l-16.9-1.7H1826.7z M1742.7,702.7l16.1,1.7
		h-81.1l-14.8-1.7H1742.7z M1658.1,702.7l14.3,1.7h-79.8l-13.3-1.7H1658.1z M1574.6,702.7l12.9,1.7h-79.4l-11.5-1.7H1574.6z
		 M1492,702.7l11.2,1.7h-80.5l-9.7-1.7H1492z M1408.4,702.7l9.5,1.7h-79.4l-8.1-1.7H1408.4z M1325.7,702.7l7.7,1.7h-80.3l-6.3-1.7
		H1325.7z M1242.1,702.7l6,1.7h-80l-4.5-1.7H1242.1z M1159,702.7l4.3,1.7h-79.6l-2.7-1.7H1159z M1076.3,702.7l2.5,1.7h-80.8l-1-1.7
		H1076.3z M914.2,702.7h78.3l0.8,1.7h-79.9L914.2,702.7z M912.6,705.8H994l0.7,1.5h-82.8L912.6,705.8z M911.1,708.8h84.4l0.6,1.3
		h-85.6L911.1,708.8z M997,711.9l1,2.1h-89.5l1-2.1H997z M831.3,702.6h78.3l-1,1.7h-79.9L831.3,702.6z M747.8,702.6h78.9l-2.7,1.7
		h-80.4L747.8,702.6z M743.1,702.6l-4.5,1.7h-80.6l6-1.7H743.1z M659.5,702.6l-6.3,1.7h-80.5l7.9-1.7L659.5,702.6z M575.8,702.6
		l-8,1.7h-81.5l9.5-1.7H575.8z M491.2,702.6l-9.7,1.7H403l11.2-1.7H491.2z M409.6,702.6l-11.3,1.7h-79.6l12.9-1.7H409.6z M327,702.6
		l-13.1,1.7h-81.4l14.5-1.7H327z M242.3,702.6l-14.8,1.6h-77.6l15.8-1.7L242.3,702.6z M83.1,702.6h77.8l-16.1,1.7H66.1L83.1,702.6z
		 M50.7,705.8h79.5l-14.1,1.5H35.7L50.7,705.8z M5.8,710.1l13.4-1.3h81.3l-12.7,1.3H5.8z M76.8,711.9h81.7l-19,2.1H56.8L76.8,711.9z
		 M18.6,718l19.1-2h83.8l-18,2H18.6z M93.8,720H189l-23.8,3H67.4L93.8,720z M28.7,727.4l21.1-2.4h99.6l-19,2.4H28.7z M120,729.6
		h104.5l-25,3.7h-108L120,729.6z M44.3,739.3l27.4-3.5h110.5l-24,3.5H44.3z M148.3,741.8h113.7l-26.4,4.5H117.7L148.3,741.8z
		 M100.7,748.8h120.2l-25.4,4.3H71.2L100.7,748.8z M10.7,762l41.4-6.1h126.9l-35.7,6.1H10.7z M135.3,765h137.9l-29.1,6H100.6
		L135.3,765z M31.9,782.9l51.4-8.9h146.2l-43.2,8.9H31.9z M182.4,786.1H340l-37.5,9.8H135.6L182.4,786.1z M63.1,811.1l57.3-12h169.8
		l-46,12H63.1z M252.7,814.9h185.2l-40.8,15H197.8L252.7,814.9z M185.9,833.1h202.4l-53,19.5H114.4L185.9,833.1z M13.2,880.2
		l86.6-23.6h224.6l-64.2,23.6H13.2z M274.4,885h249.4l-51.5,31H193.9L274.4,885z M70,963.8L178.3,922h284L393,963.8H70z
		 M714.7,1028.8H322.3l91.4-58.6h335.9L714.7,1028.8z M752,1028.8l29.1-58.6H1122l28.3,58.6H752z M1187.7,1028.8l-34.2-58.6h335.2
		l90.3,58.6H1187.7z"/>
</g>
<path id="mountain" d="M1923.2,701L0,700c0,0,95.2-45,138.2-64c17.5-6.5,69.5,59.5,171.5,34.5c39-9,46-19,60-19s98,14,202,0
	s198-5,278-67c64-32,86-14,134-29c26,12,65,71,174,49c31-9,74-2,115-29s241.2,88.8,650.2,95.8L1923.2,701z"/>
</svg>
