<svg id="pink_tape" data-name="pink tape" xmlns="http://www.w3.org/2000/svg" viewBox="0 0 131.16 81.07"><defs><style>.cls-1{fill:#e759a0;stroke-width:1.04px;}.cls-1,.cls-2,.cls-3{stroke:#231f20;stroke-miterlimit:10;}.cls-2{fill:#fff1b6;stroke-width:1.1px;}.cls-3{fill:#efa2c7;stroke-width:1.28px;}</style></defs><title>pink-right bottom</title><g id="pink-right_bottom" data-name="pink-right bottom"><path class="cls-1" d="M246.87,82.5V106H132.13v7.78h82.06a3.24,3.24,0,0,1,3.06,2.66l9.92,44.27h-95v1.76h125a5,5,0,0,0,5-5v-75Zm8.64,77.24a3,3,0,1,1,3-3A3,3,0,0,1,255.51,159.74Z" transform="translate(-131.49 -81.95)"/><rect class="cls-2" x="0.64" y="0.55" width="114.74" height="23.53"/><path class="cls-3" d="M135.13,120.62a3,3,0,0,1-3,3v37.12h95l-9.92-44.27a3.24,3.24,0,0,0-3.06-2.66H132.13v3.81A3,3,0,0,1,135.13,120.62ZM211,150.74a3,3,0,1,1-3,3A3,3,0,0,1,211,150.74ZM185,137.28a3,3,0,1,1-3,3A3,3,0,0,1,185,137.28Z" transform="translate(-131.49 -81.95)"/><circle cx="124.02" cy="74.8" r="3"/><path d="M135.13,120.62a3,3,0,0,0-3-3v6A3,3,0,0,0,135.13,120.62Z" transform="translate(-131.49 -81.95)"/><circle cx="53.48" cy="58.33" r="3"/><circle cx="79.55" cy="71.8" r="3"/></g></svg>