<svg id="sky" xmlns="http://www.w3.org/2000/svg" viewBox="0 0 224.63 139.02"><defs><style>.cls-1{fill:#76cbf2;}.cls-1,.cls-2,.cls-3,.cls-4,.cls-5{stroke:#353535;}.cls-1,.cls-2,.cls-3,.cls-4,.cls-5,.cls-7,.cls-8{stroke-miterlimit:10;}.cls-1,.cls-2,.cls-4,.cls-5{stroke-width:2px;}.cls-2{fill:#b885bb;}.cls-3{fill:#a8d165;stroke-width:2.03px;}.cls-4{fill:#f5a242;}.cls-5{fill:#b82c81;}.cls-6{fill:#353535;}.cls-7{fill:#fff;stroke:#0a4970;stroke-width:3px;}.cls-8{stroke:#fff;stroke-width:0.17px;}</style></defs><title>sky-right-top</title><g id="sky-right-top"><path class="cls-1" d="M426.49,17.61V140h26.13V11.56A8.56,8.56,0,0,0,444.06,3H230V17.61ZM441.28,7.33a5.14,5.14,0,1,1-5.14,5.14A5.14,5.14,0,0,1,441.28,7.33Z" transform="translate(-228.99 -2)"/><polygon class="cls-2" points="1 15.61 1 54.12 93.3 54.12 145.16 54.12 145.16 138 197.49 138 197.49 15.61 1 15.61"/><path class="cls-3" d="M365.13,98.94A42.84,42.84,0,0,1,334.46,140h39.69V56.12H322.3A42.83,42.83,0,0,1,365.13,98.94Z" transform="translate(-228.99 -2)"/><path class="cls-4" d="M230,76.71h40V121.2H230V140H334.46A42.82,42.82,0,0,0,322.3,56.12H230ZM348.74,99a28.26,28.26,0,1,1-28.26-28.26A28.26,28.26,0,0,1,348.74,99Z" transform="translate(-228.99 -2)"/><path class="cls-5" d="M320.48,70.69A28.26,28.26,0,1,0,348.74,99,28.27,28.27,0,0,0,320.48,70.69Zm21.4,35.51a3.71,3.71,0,0,1-2.7,1.69l-3.9.58a3.76,3.76,0,0,0-3.22,4l.29,3.88a3.8,3.8,0,0,1-3.76,3.84,3.75,3.75,0,0,1-2.61-1l-2.91-2.68a3.87,3.87,0,0,0-5.14,0l-2.9,2.64a3.84,3.84,0,0,1-6.49-3.08l.3-3.89a3.84,3.84,0,0,0-3.22-4l-3.91-.59a3.77,3.77,0,0,1-1.59-6.86l3.29-2.15a3.73,3.73,0,0,0,1.14-5l-2-3.42A3.77,3.77,0,0,1,307,84.7l3.79,1.17a3.83,3.83,0,0,0,4.66-2.19L316.88,80A3.84,3.84,0,0,1,324,80l1.46,3.64a3.84,3.84,0,0,0,4.69,2.38l3.77-1.13a3.78,3.78,0,0,1,4.74,2.48,3.83,3.83,0,0,1-.32,3l-2,3.42a3.75,3.75,0,0,0,1.16,5l3.26,2.23A3.73,3.73,0,0,1,341.88,106.2Z" transform="translate(-228.99 -2)"/><circle class="cls-6" cx="212.29" cy="10.47" r="5.14"/><path class="cls-7" d="M337.5,98.81a3.75,3.75,0,0,1-1.16-5l2-3.42a3.83,3.83,0,0,0,.32-3,3.78,3.78,0,0,0-4.74-2.48l-3.77,1.13a3.84,3.84,0,0,1-4.69-2.38L324,80a3.84,3.84,0,0,0-7.09,0l-1.43,3.64a3.83,3.83,0,0,1-4.66,2.19L307,84.7a3.77,3.77,0,0,0-4.42,5.45l2,3.42a3.73,3.73,0,0,1-1.14,5l-3.29,2.15a3.77,3.77,0,0,0,1.59,6.86l3.91.59a3.84,3.84,0,0,1,3.22,4l-.3,3.89a3.84,3.84,0,0,0,6.49,3.08l2.9-2.64a3.87,3.87,0,0,1,5.14,0l2.91,2.68a3.75,3.75,0,0,0,2.61,1,3.8,3.8,0,0,0,3.76-3.84l-.29-3.88a3.76,3.76,0,0,1,3.22-4l3.9-.58a3.74,3.74,0,0,0,1.58-6.85Z" transform="translate(-228.99 -2)"/><path d="M230.15,99A53.64,53.64,0,0,1,235,76.71h-5V121.2h5A53.68,53.68,0,0,1,230.15,99Z" transform="translate(-228.99 -2)"/><path class="cls-8" d="M235,121.2h10.56a44.49,44.49,0,0,1,0-44.49H235a53.95,53.95,0,0,0,0,44.49Z" transform="translate(-228.99 -2)"/><path class="cls-8" d="M245.51,121.2h13.2a33.68,33.68,0,0,1,0-44.49h-13.2a44.49,44.49,0,0,0,0,44.49Z" transform="translate(-228.99 -2)"/><path class="cls-8" d="M258.71,121.2H270v-5.83a21.57,21.57,0,0,1,0-32.84V76.71h-11.3a33.68,33.68,0,0,0,0,44.49Z" transform="translate(-228.99 -2)"/><path class="cls-8" d="M262.43,99A21.55,21.55,0,0,0,270,115.37V82.53A21.55,21.55,0,0,0,262.43,99Z" transform="translate(-228.99 -2)"/></g></svg>