<svg id="sky" xmlns="http://www.w3.org/2000/svg" viewBox="0 0 224.63 139.02"><defs><style>.cls-1{fill:#76cbf2;}.cls-1,.cls-2,.cls-3,.cls-4,.cls-5{stroke:#353535;stroke-miterlimit:10;}.cls-1,.cls-2,.cls-4,.cls-5{stroke-width:2px;}.cls-2{fill:#b885bb;}.cls-3{fill:#a8d165;stroke-width:2.03px;}.cls-4{fill:#a6d05d;}.cls-5{fill:#f5a242;}.cls-6{fill:#353535;}.cls-7{fill:#f47928;}.cls-8{fill:#a98cc1;}.cls-9{fill:#b82c81;}</style></defs><title>sky-left-bottom</title><g id="sky-left-bottom"><path class="cls-1" d="M68.5,274l17-75.82a5.54,5.54,0,0,1,5.24-4.55H230V180.3H33.5V140H7.36V268.44A8.57,8.57,0,0,0,15.93,277H230v-3Zm-49.8-1.72a5.14,5.14,0,1,1,5.14-5.13A5.14,5.14,0,0,1,18.7,272.27Z" transform="translate(-6.36 -138.99)"/><polygon class="cls-2" points="131.31 2.78 79.45 2.78 79.45 1.01 27.13 1.01 27.13 41.31 223.63 41.31 223.63 2.78 131.31 2.78"/><path class="cls-3" d="M85.82,140v1.76h51.85A42.88,42.88,0,0,1,125.5,140Z" transform="translate(-6.36 -138.99)"/><path class="cls-4" d="M85.49,198.17,68.5,274H230V210.42a5.14,5.14,0,0,1,0-10.28v-6.52H90.73A5.54,5.54,0,0,0,85.49,198.17Zm55.28,35.64a5.14,5.14,0,1,1-5.14,5.14A5.14,5.14,0,0,1,140.77,233.81ZM94.84,256.86A5.14,5.14,0,1,1,89.7,262,5.14,5.14,0,0,1,94.84,256.86Z" transform="translate(-6.36 -138.99)"/><path class="cls-5" d="M125.5,140a42.88,42.88,0,0,0,12.17,1.76H230V140Z" transform="translate(-6.36 -138.99)"/><circle class="cls-6" cx="18.7" cy="267.14" r="5.14" transform="translate(-189.78 -47.52) rotate(-45)"/><circle class="cls-7" cx="94.84" cy="262" r="5.14" transform="translate(-47.11 -120.41) rotate(-9.22)"/><circle class="cls-8" cx="140.77" cy="238.95" r="5.14" transform="translate(-134.1 30.54) rotate(-45)"/><path class="cls-9" d="M224.85,205.28a5.14,5.14,0,0,0,5.14,5.14V200.14A5.14,5.14,0,0,0,224.85,205.28Z" transform="translate(-6.36 -138.99)"/></g></svg>