<svg id="sky" xmlns="http://www.w3.org/2000/svg" viewBox="0 0 224.63 139.02"><defs><style>.cls-1{fill:#76cbf2;}.cls-1,.cls-2,.cls-3,.cls-4,.cls-5{stroke:#353535;stroke-miterlimit:10;}.cls-1,.cls-2,.cls-4,.cls-5{stroke-width:2px;}.cls-2{fill:#b885bb;}.cls-3{fill:#a8d165;stroke-width:2.03px;}.cls-4{fill:#a6d05d;}.cls-5{fill:#f5a242;}.cls-6{fill:#353535;}.cls-7{fill:#f47928;}.cls-8{fill:#a98cc1;}.cls-9{fill:#b82c81;}</style></defs><title>sky-right-bottom</title><g id="sky-right-bottom"><path class="cls-1" d="M426.49,140v40.3H230v13.32H370.52a5.54,5.54,0,0,1,5.24,4.55l17,75.82H230v3H444.06a8.56,8.56,0,0,0,8.56-8.56V140Zm14.79,132.27a5.14,5.14,0,1,1,5.14-5.13A5.14,5.14,0,0,1,441.28,272.27Z" transform="translate(-228.99 -138.99)"/><polygon class="cls-2" points="145.16 2.78 93.3 2.78 1 2.78 1 41.31 197.49 41.31 197.49 1.01 145.16 1.01 145.16 2.78"/><path class="cls-3" d="M322.3,141.76h51.85V140H334.46A42.82,42.82,0,0,1,322.3,141.76Z" transform="translate(-228.99 -138.99)"/><path class="cls-4" d="M235.13,205.28a5.14,5.14,0,0,1-5.14,5.14V274H392.75l-17-75.82a5.54,5.54,0,0,0-5.24-4.55H230v6.52A5.14,5.14,0,0,1,235.13,205.28Zm130,51.58A5.14,5.14,0,1,1,360,262,5.14,5.14,0,0,1,365.13,256.86Zm-44.65-23.05a5.14,5.14,0,1,1-5.14,5.14A5.14,5.14,0,0,1,320.48,233.81Z" transform="translate(-228.99 -138.99)"/><path class="cls-5" d="M334.46,140H230v1.76H322.3A42.82,42.82,0,0,0,334.46,140Z" transform="translate(-228.99 -138.99)"/><circle class="cls-6" cx="212.29" cy="128.15" r="5.14"/><circle class="cls-7" cx="365.13" cy="262" r="5.14" transform="translate(-245.65 360.08) rotate(-67.5)"/><circle class="cls-8" cx="91.49" cy="99.96" r="5.14"/><path class="cls-9" d="M235.13,205.28a5.14,5.14,0,0,0-5.14-5.14v10.28A5.14,5.14,0,0,0,235.13,205.28Z" transform="translate(-228.99 -138.99)"/></g></svg>