<svg id="title" xmlns="http://www.w3.org/2000/svg" xmlns:xlink="http://www.w3.org/1999/xlink" viewBox="0 0 942 296"><defs><style>.cls-1{fill:url(#linear-gradient);}.cls-2{fill:url(#linear-gradient-2);}.cls-3{fill:url(#linear-gradient-3);}.cls-4{fill:url(#linear-gradient-4);}.cls-5{fill:url(#linear-gradient-5);}.cls-6{fill:url(#linear-gradient-6);}.cls-7{fill:url(#linear-gradient-7);}.cls-8{fill:url(#linear-gradient-8);}.cls-9{fill:url(#linear-gradient-9);}.cls-10{fill:url(#linear-gradient-10);}.cls-11{fill:url(#linear-gradient-11);}.cls-12{fill:url(#linear-gradient-12);}.cls-13{fill:url(#linear-gradient-13);}.cls-14,.cls-15,.cls-16,.cls-17,.cls-18,.cls-19,.cls-20,.cls-21,.cls-22,.cls-23,.cls-24,.cls-25,.cls-26{stroke:#fff;stroke-miterlimit:10;stroke-width:5px;}.cls-14{fill:url(#New_Gradient_Swatch_2);}.cls-15{fill:url(#New_Gradient_Swatch_2-2);}.cls-16{fill:url(#New_Gradient_Swatch_2-3);}.cls-17{fill:url(#New_Gradient_Swatch_2-4);}.cls-18{fill:url(#New_Gradient_Swatch_2-5);}.cls-19{fill:url(#New_Gradient_Swatch_2-6);}.cls-20{fill:url(#New_Gradient_Swatch_2-7);}.cls-21{fill:url(#New_Gradient_Swatch_2-8);}.cls-22{fill:url(#New_Gradient_Swatch_2-9);}.cls-23{fill:url(#New_Gradient_Swatch_2-10);}.cls-24{fill:url(#New_Gradient_Swatch_2-11);}.cls-25{fill:url(#New_Gradient_Swatch_2-12);}.cls-26{fill:url(#New_Gradient_Swatch_2-13);}</style><linearGradient id="linear-gradient" x1="629.84" y1="99.75" x2="716.27" y2="99.75" gradientUnits="userSpaceOnUse"><stop offset="0" stop-color="#ff00b8"/><stop offset="1" stop-color="#27a5cd"/></linearGradient><linearGradient id="linear-gradient-2" x1="732.02" y1="99.75" x2="846.11" y2="99.75" xlink:href="#linear-gradient"/><linearGradient id="linear-gradient-3" x1="840.48" y1="99.75" x2="994.5" y2="99.75" xlink:href="#linear-gradient"/><linearGradient id="linear-gradient-4" x1="1002.11" y1="99.75" x2="1116.2" y2="99.75" xlink:href="#linear-gradient"/><linearGradient id="linear-gradient-5" x1="1126.76" y1="99.75" x2="1171.53" y2="99.75" xlink:href="#linear-gradient"/><linearGradient id="linear-gradient-6" x1="1189.84" y1="99.75" x2="1298.83" y2="99.75" xlink:href="#linear-gradient"/><linearGradient id="linear-gradient-7" x1="489" y1="268.25" x2="635.32" y2="268.25" xlink:href="#linear-gradient"/><linearGradient id="linear-gradient-8" x1="636.74" y1="268.25" x2="781.83" y2="268.25" xlink:href="#linear-gradient"/><linearGradient id="linear-gradient-9" x1="798.9" y1="268.25" x2="895.06" y2="268.25" xlink:href="#linear-gradient"/><linearGradient id="linear-gradient-10" x1="910.37" y1="269.42" x2="1036.26" y2="269.42" xlink:href="#linear-gradient"/><linearGradient id="linear-gradient-11" x1="1052.36" y1="268.25" x2="1203.29" y2="268.25" xlink:href="#linear-gradient"/><linearGradient id="linear-gradient-12" x1="1224.96" y1="268.25" x2="1329.88" y2="268.25" xlink:href="#linear-gradient"/><linearGradient id="linear-gradient-13" x1="1344.57" y1="268.25" x2="1431" y2="268.25" xlink:href="#linear-gradient"/><linearGradient id="New_Gradient_Swatch_2" x1="680.36" y1="43.25" x2="680.36" y2="164.33" gradientUnits="userSpaceOnUse"><stop offset="0.45" stop-color="#e8dade"/><stop offset="0.5" stop-color="#26184c"/><stop offset="0.74" stop-color="#6e2e6f"/><stop offset="0.87" stop-color="#e8dade"/></linearGradient><linearGradient id="New_Gradient_Swatch_2-2" x1="792.41" y1="45.47" x2="792.41" y2="162.11" xlink:href="#New_Gradient_Swatch_2"/><linearGradient id="New_Gradient_Swatch_2-3" x1="916.45" y1="45.47" x2="916.45" y2="162.11" xlink:href="#New_Gradient_Swatch_2"/><linearGradient id="New_Gradient_Swatch_2-4" x1="1053.29" y1="45.47" x2="1053.29" y2="162.11" xlink:href="#New_Gradient_Swatch_2"/><linearGradient id="New_Gradient_Swatch_2-5" x1="1140.21" y1="45.47" x2="1140.21" y2="162.11" xlink:href="#New_Gradient_Swatch_2"/><linearGradient id="New_Gradient_Swatch_2-6" x1="1232.15" y1="43.25" x2="1232.15" y2="164.33" xlink:href="#New_Gradient_Swatch_2"/><linearGradient id="New_Gradient_Swatch_2-7" x1="573.25" y1="205.47" x2="573.25" y2="322.11" xlink:href="#New_Gradient_Swatch_2"/><linearGradient id="New_Gradient_Swatch_2-8" x1="715.35" y1="203.25" x2="715.35" y2="324.33" xlink:href="#New_Gradient_Swatch_2"/><linearGradient id="New_Gradient_Swatch_2-9" x1="848.35" y1="205.47" x2="848.35" y2="322.11" xlink:href="#New_Gradient_Swatch_2"/><linearGradient id="New_Gradient_Swatch_2-10" x1="970.37" y1="205.47" x2="970.37" y2="324.33" xlink:href="#New_Gradient_Swatch_2"/><linearGradient id="New_Gradient_Swatch_2-11" x1="1119.61" y1="205.47" x2="1119.61" y2="322.11" xlink:href="#New_Gradient_Swatch_2"/><linearGradient id="New_Gradient_Swatch_2-12" x1="1264.11" y1="205.47" x2="1264.11" y2="322.11" xlink:href="#New_Gradient_Swatch_2"/><linearGradient id="New_Gradient_Swatch_2-13" x1="1370.71" y1="203.25" x2="1370.71" y2="324.33" xlink:href="#New_Gradient_Swatch_2"/></defs><title>title</title><g id="TITLE-2" data-name="TITLE"><g id="title-shadow"><path class="cls-1" d="M632.49,159.28q-1.14-19.17-2.65-30.69a94.12,94.12,0,0,0,17.68,6.26,62.68,62.68,0,0,0,13.61,1.75q7.71,0,12.27-2.29c3-1.53,4.57-3.8,4.57-6.8a9.48,9.48,0,0,0-.45-2.92,11.64,11.64,0,0,0-1.68-3.15,23.91,23.91,0,0,0-3.55-3.82l-16.66-14.76c-3.91-3.36-6.62-5.79-8.16-7.29A53.62,53.62,0,0,1,640.16,87a29.65,29.65,0,0,1-3.82-8,31.78,31.78,0,0,1,.71-19.44,32.09,32.09,0,0,1,15.79-17.77,44.07,44.07,0,0,1,13.45-4.54A87.19,87.19,0,0,1,681.06,36a167.35,167.35,0,0,1,32.56,3.51q.25,6.21.62,11.38T715.92,69a80.88,80.88,0,0,0-14.86-4.63,62.19,62.19,0,0,0-11.59-1.3A22.92,22.92,0,0,0,678,65.69q-4.56,2.63-4.56,6.48a9.13,9.13,0,0,0,.71,3.51,16.06,16.06,0,0,0,2.66,4,45.75,45.75,0,0,0,5.13,5q3.18,2.74,10,8.14L698.31,98a82.55,82.55,0,0,1,6.11,5.67,61.45,61.45,0,0,1,5.66,6.57,36.79,36.79,0,0,1,3.67,5.94,26.1,26.1,0,0,1,1.9,5.44,26.94,26.94,0,0,1,.62,5.89,33.17,33.17,0,0,1-3.8,15.44A32.29,32.29,0,0,1,701.67,155a44.79,44.79,0,0,1-15.34,6.62,79.92,79.92,0,0,1-17.65,1.89Q654.34,163.51,632.49,159.28Z" transform="translate(-489 -36)"/><path class="cls-2" d="M764.4,161.17q4.4-43.74,5.27-96.28l-37.65,1,.44-10q.36-8,.53-17.55,25.13.18,58.55.18l21.84-.09h21.23l11.5-.09-.53,8.81q-.36,7.1-.49,11.73t-.13,7q-18.91-1-31.2-1h-6.19q-1.34,15.89-2.05,29.36-1,19.32-1.51,37.5t-.54,29.42Q789,161,784.73,161,780.94,161,764.4,161.17Z" transform="translate(-489 -36)"/><path class="cls-3" d="M840.48,161.17l7.35-13,45.76-87.64,4.87-9.81q2.12-4.32,5.93-12.42,15.57.18,22.73.18,12.46,0,23.09-.18l12.91,37.52L989.37,148l5.13,13.14q-15.32-.18-18.6-.18-7.44,0-21.87.18-3.88-14.85-11.22-34.92H898.28q-7.69,15.84-15.91,34.92Q865.9,161,862.18,161,855.45,161,840.48,161.17ZM909,100.07h27.48q-10.25-31.71-11.21-34.94-5.84,13.2-9.9,21.64Z" transform="translate(-489 -36)"/><path class="cls-4" d="M1034.49,161.17q4.4-43.74,5.27-96.28l-37.65,1,.44-10q.36-8,.53-17.55,25.12.18,58.55.18l21.85-.09h21.22l11.5-.09-.53,8.81q-.36,7.1-.49,11.73t-.13,7q-18.91-1-31.2-1h-6.19q-1.34,15.89-2.05,29.36-1,19.32-1.51,37.5t-.53,29.42q-14.5-.18-18.75-.18Q1051,161,1034.49,161.17Z" transform="translate(-489 -36)"/><path class="cls-5" d="M1126.76,161.17q5.1-72.25,5.1-111.22l-.09-11.61q15.49.18,20.72.18,2.38,0,19-.18-1.6,20.25-2.58,38.33-1.25,25.2-1.78,47.11t-.53,37.39l-18.13-.18Q1143.22,161,1126.76,161.17Z" transform="translate(-489 -36)"/><path class="cls-6" d="M1296.71,131.2q-1.07,5.3-2.57,14.76t-2,14.67a227.43,227.43,0,0,1-33.8,2.88,93.8,93.8,0,0,1-26.67-3.65,65.07,65.07,0,0,1-22.65-12,47.27,47.27,0,0,1-14.73-19.58,68.25,68.25,0,0,1-4.42-25.19,69.41,69.41,0,0,1,6-29.29A57.31,57.31,0,0,1,1213,52.15a70.86,70.86,0,0,1,24.55-12.42,102.45,102.45,0,0,1,27.6-3.73q13.1,0,32.38,3.42l.18,7.56c.12,3.3.29,6.93.53,10.89l.62,10.25q-10.35-2.5-16.76-3.41a86.14,86.14,0,0,0-11.9-.9,46.75,46.75,0,0,0-21.5,4.85,36.25,36.25,0,0,0-15,14.13,39.52,39.52,0,0,0-5.49,20.52q0,10.26,4.61,17.59a31.06,31.06,0,0,0,12.43,11.34q7.82,4,19.32,4a98.87,98.87,0,0,0,13.67-1A162,162,0,0,0,1296.71,131.2Z" transform="translate(-489 -36)"/><path class="cls-7" d="M530.87,329.66l-3.27-11L506,255.42l-17-48.59q12,.18,21.39.18,5.75,0,18-.18,2,8,3.19,12.16,1.59,5.4,6,19.54l13,42.59q2,6.66,4.78,17.38l4.07-10.35,30.84-68.8c.54-1.26,1.14-2.7,1.82-4.32s1.75-4.36,3.22-8.2q12.84.18,20.63.18,4.86,0,19.29-.18-9,17.1-20.42,39.95l-30.5,61.55q-4.42,9-9.91,21.33-14.87-.18-21.23-.18Q547.33,329.48,530.87,329.66Z" transform="translate(-489 -36)"/><path class="cls-8" d="M712.11,204.49a95.63,95.63,0,0,1,27.25,3.87,60.94,60.94,0,0,1,22.91,12.37A55,55,0,0,1,777,240.31q4.86,11.06,4.87,25.46a70.46,70.46,0,0,1-5.36,27.76A58.31,58.31,0,0,1,761,315,62.91,62.91,0,0,1,737,327.91a103.34,103.34,0,0,1-29.1,4.09,102.16,102.16,0,0,1-28.67-4,61.56,61.56,0,0,1-23.84-13A51.38,51.38,0,0,1,641,295.11a67.14,67.14,0,0,1-4.25-24.39q0-19.71,9-34.6t26.63-23.26Q690,204.49,712.11,204.49Zm-1.59,27.09a34.31,34.31,0,0,0-18.4,5.08,33.56,33.56,0,0,0-12.65,14.13,43.52,43.52,0,0,0-4.42,19.39,38,38,0,0,0,4,17.46A28.62,28.62,0,0,0,691.32,300a36.1,36.1,0,0,0,17.43,4.45,33.92,33.92,0,0,0,18-5,32.21,32.21,0,0,0,12.47-14,43.67,43.67,0,0,0,4.29-18.94,40,40,0,0,0-4-17.77,29.16,29.16,0,0,0-11.68-12.64A33.71,33.71,0,0,0,710.52,231.58Z" transform="translate(-489 -36)"/><path class="cls-9" d="M798.9,329.66q2.22-21.24,3.2-34.64,1.86-24.48,2.8-48.64t.93-39.55q12,.18,21.31.18,6.27,0,18-.18L843,239.41l-2.67,50.93L840,302.85q15.21.27,19.82.26,23.28,0,35.22-.62l-1.94,27.17q-23.26-.18-44.32-.18Q820.32,329.48,798.9,329.66Z" transform="translate(-489 -36)"/><path class="cls-10" d="M915.08,206.83q13.78.18,19.45.18,7.08,0,18.83-.18l-2.63,38.25q-.78,10.78-1.18,20.24t-.4,13.05a56.2,56.2,0,0,0,1,11.43,18.14,18.14,0,0,0,3.53,7.78,15.53,15.53,0,0,0,7.12,4.82,28.34,28.34,0,0,0,9.5,1.61,26.37,26.37,0,0,0,8-1.17,18.47,18.47,0,0,0,5.21-2.68,17.77,17.77,0,0,0,3.54-3.75,27.32,27.32,0,0,0,3.27-6.43,40.07,40.07,0,0,0,2.12-9.43q.79-5.9,2.12-26.79,1.15-17.79,1.77-32.57.54-14.35,1-14.36h39l-4.3,63.89q-.09,1.8-.09,3-.34,18.72-2.26,26.41a35,35,0,0,1-6.32,13.36q-4.42,5.67-12.92,10.22a64.12,64.12,0,0,1-19.3,6.43A126.4,126.4,0,0,1,969.22,332a123.62,123.62,0,0,1-19.12-1.44,74.29,74.29,0,0,1-15.31-4.18,54.4,54.4,0,0,1-11.85-6.44,31.07,31.07,0,0,1-7.08-7,28.42,28.42,0,0,1-3.9-8.51,43.38,43.38,0,0,1-1.59-12q0-2.16.18-6.53t.8-12.55L912.5,259q.45-5.67,1-16.64Z" transform="translate(-489 -36)"/><path class="cls-11" d="M1052.36,329.66l2.19-18.18L1060,248.4l2.72-41.57q16.33.18,25.66.18,7.73,0,23.62-.18,1.14,7.74,1.94,11.74t3.92,15.66q3.14,11.66,5,20.16t5.69,29.11q3.9-14.13,7.09-24.3t8-23.12q4.78-13,6.07-17t3.5-12.28q13.27.18,26,.18,8.67,0,24.07-.18-1.69,30.33-2.22,52.1-1.14,42.66-1.15,58.67,0,3.33.18,12.06-11.67-.18-16.37-.18-6.81,0-16.72.18.72-8.1,1.8-38.56t1.08-38.92c0-2.46-.06-5.87-.18-10.25l-11.61,36.62-16.65,51.11q-11.51-.18-15.84-.18-5.49,0-16.81.18l-10.9-49.49-6.39-26.37c-.23-1-.5-2.28-.8-3.78s-.77-4.14-1.41-7.91L1087.06,267l-2.94,51.11-.27,11.52q-12.21-.18-15.57-.18Q1063.69,329.48,1052.36,329.66Z" transform="translate(-489 -36)"/><path class="cls-12" d="M1225,329.66q2.22-23.22,3.24-38.87t2-41.62q1-26,1-34.42l-.09-7.92q20.86.18,50.5.18,27.35,0,48.21-.18l-.18,3c-.06.72-.2,3.32-.44,7.8l-.53,9.78c-.12,2.09-.18,4.22-.18,6.37q-17.07-.72-28.66-.72-12.73,0-17.21,0t-13.93.41l-1.07,20.69q10.44.27,24.33.27,5,0,26.37-.63-.89,11.52-1.68,27.45-15.3-.18-23.52-.18-12.2,0-27.32.63l-1,21.86H1275q4.5,0,18.65-.27l18.3-.44q4.07-.09,13.62-.72-1.07,13.31-1.77,27.53-21.58-.18-47.33-.18l-38.93.09Z" transform="translate(-489 -36)"/><path class="cls-13" d="M1347.22,327.77q-1.15-19.17-2.65-30.68a93.77,93.77,0,0,0,17.68,6.25,62.59,62.59,0,0,0,13.6,1.75q7.71,0,12.28-2.29t4.56-6.79a9.5,9.5,0,0,0-.44-2.93,12.24,12.24,0,0,0-1.68-3.15,23.91,23.91,0,0,0-3.55-3.82l-16.67-14.76q-5.85-5-8.15-7.29a53.74,53.74,0,0,1-7.32-8.55,29.91,29.91,0,0,1-3.81-8,30.7,30.7,0,0,1-1.19-8.68,31.41,31.41,0,0,1,1.9-10.76,32,32,0,0,1,15.79-17.77,44.34,44.34,0,0,1,13.45-4.54,88.15,88.15,0,0,1,14.77-1.22,167.17,167.17,0,0,1,32.55,3.51c.18,4.14.39,7.94.62,11.38s.8,9.5,1.69,18.14a80.29,80.29,0,0,0-14.87-4.64,62,62,0,0,0-11.59-1.3,22.77,22.77,0,0,0-11.45,2.61q-4.56,2.61-4.56,6.48a9.13,9.13,0,0,0,.71,3.51,16,16,0,0,0,2.65,4,47.54,47.54,0,0,0,5.13,5q3.19,2.75,10,8.14l6.37,5.13a80.61,80.61,0,0,1,6.1,5.67,61.6,61.6,0,0,1,5.67,6.57,37.51,37.51,0,0,1,3.67,5.94,26.1,26.1,0,0,1,1.9,5.44,27,27,0,0,1,.62,5.9,33.13,33.13,0,0,1-3.8,15.43,32.4,32.4,0,0,1-10.8,12.06,44.73,44.73,0,0,1-15.35,6.61A79.79,79.79,0,0,1,1383.4,332Q1369.07,332,1347.22,327.77Z" transform="translate(-489 -36)"/></g><g id="title-3" data-name="title"><path class="cls-14" d="M641.18,160.31q-1.11-18.19-2.56-29.14a91.68,91.68,0,0,0,17.07,5.94,61.71,61.71,0,0,0,13.14,1.67q7.45,0,11.86-2.18t4.41-6.45a8.88,8.88,0,0,0-.43-2.78,11.11,11.11,0,0,0-1.63-3,22.58,22.58,0,0,0-3.42-3.63l-16.1-14q-5.65-4.78-7.88-6.93a51.31,51.31,0,0,1-7.06-8.11,28,28,0,0,1-3.68-7.65,28.81,28.81,0,0,1-1.16-8.25,29.27,29.27,0,0,1,1.84-10.21,31.12,31.12,0,0,1,5.51-9.36,31.66,31.66,0,0,1,9.74-7.51,43.4,43.4,0,0,1,13-4.32,86.53,86.53,0,0,1,14.27-1.15,164.46,164.46,0,0,1,31.45,3.33q.26,5.89.59,10.81t1.63,17.22a77.65,77.65,0,0,0-14.36-4.4A60.67,60.67,0,0,0,696.21,69a22.36,22.36,0,0,0-11.07,2.47q-4.39,2.49-4.4,6.16a8.42,8.42,0,0,0,.69,3.33,14.9,14.9,0,0,0,2.56,3.8,45.2,45.2,0,0,0,5,4.79c2.06,1.74,5.27,4.31,9.66,7.73l6.15,4.87a78.64,78.64,0,0,1,5.9,5.38,59,59,0,0,1,5.47,6.24,34.33,34.33,0,0,1,3.54,5.64,24.25,24.25,0,0,1,1.84,5.17,25,25,0,0,1,.6,5.6,31.39,31.39,0,0,1-14.1,26.1,43.5,43.5,0,0,1-14.83,6.28,78.1,78.1,0,0,1-17,1.8Q662.29,164.33,641.18,160.31Z" transform="translate(-489 -36)"/><path class="cls-15" d="M768.58,162.11q4.24-41.54,5.1-91.43l-36.37.94.43-9.49q.33-7.6.51-16.66,24.25.16,56.55.17l21.1-.08h20.5l11.11-.09L847,53.84q-.33,6.73-.47,11.13c-.08,2.94-.12,5.15-.12,6.65q-18.27-.95-30.14-.94h-6q-1.29,15.09-2,27.89-1,18.33-1.47,35.6t-.51,27.94q-14-.18-18.11-.17Q784.56,161.94,768.58,162.11Z" transform="translate(-489 -36)"/><path class="cls-16" d="M842.07,162.11l7.1-12.31,44.2-83.23,4.7-9.31q2.05-4.09,5.73-11.79,15,.16,22,.17,12,0,22.29-.17L960.52,81.1l25.36,68.53,5,12.48q-14.8-.18-18-.17-7.2,0-21.13.17Q948,148,940.91,129h-43q-7.42,15-15.37,33.16-15.91-.18-19.5-.17Q856.52,161.94,842.07,162.11Zm66.16-58h26.54Q924.87,74,923.94,70.9q-5.64,12.54-9.56,20.56Z" transform="translate(-489 -36)"/><path class="cls-17" d="M1029.46,162.11q4.24-41.54,5.1-91.43l-36.37.94.43-9.49q.33-7.6.51-16.66,24.25.16,56.55.17l21.1-.08h20.5l11.1-.09-.51,8.37c-.23,4.49-.38,8.2-.47,11.13s-.13,5.15-.13,6.65q-18.27-.95-30.13-.94h-6q-1.29,15.09-2,27.89-.95,18.33-1.46,35.6t-.51,27.94q-14-.18-18.11-.17Q1045.43,161.94,1029.46,162.11Z" transform="translate(-489 -36)"/><path class="cls-18" d="M1118.59,162.11q4.92-68.63,4.92-105.62l-.08-11q15,.16,20,.17,2.31,0,18.38-.17-1.54,19.23-2.48,36.4-1.2,23.92-1.72,44.73t-.51,35.51l-17.51-.17Q1134.47,161.94,1118.59,162.11Z" transform="translate(-489 -36)"/><path class="cls-19" d="M1282.73,133.65q-1,5-2.47,14t-2,13.92a222.31,222.31,0,0,1-32.64,2.74,92.25,92.25,0,0,1-25.76-3.46A63.34,63.34,0,0,1,1198,149.5a44.88,44.88,0,0,1-14.22-18.58,63.91,63.91,0,0,1-4.28-23.93,65,65,0,0,1,5.77-27.81,54.65,54.65,0,0,1,16.58-20.6,69,69,0,0,1,23.71-11.79,100.3,100.3,0,0,1,26.66-3.54q12.64,0,31.27,3.24l.17,7.18c.12,3.14.29,6.58.52,10.34l.6,9.74q-10-2.39-16.2-3.25a86,86,0,0,0-11.49-.85,45.84,45.84,0,0,0-20.76,4.61,34.73,34.73,0,0,0-14.53,13.42,37.08,37.08,0,0,0-5.3,19.48,30.34,30.34,0,0,0,4.45,16.71,29.81,29.81,0,0,0,12,10.76q7.56,3.81,18.67,3.81a96.35,96.35,0,0,0,13.2-1A157.15,157.15,0,0,0,1282.73,133.65Z" transform="translate(-489 -36)"/><path class="cls-20" d="M543,322.11l-3.16-10.43L519,251.61l-16.42-46.14q11.61.17,20.66.17,5.55,0,17.41-.17c1.32,5.07,2.34,8.92,3.09,11.54q1.53,5.13,5.82,18.56L562.14,276q1.89,6.33,4.63,16.51l3.92-9.84,29.8-65.33,1.75-4.1q1-2.31,3.11-7.78,12.4.17,19.92.17,4.71,0,18.64-.17-8.71,16.23-19.73,37.94l-29.46,58.44q-4.28,8.55-9.56,20.26-14.37-.18-20.51-.17Q558.92,321.94,543,322.11Z" transform="translate(-489 -36)"/><path class="cls-21" d="M718.08,203.25a93.81,93.81,0,0,1,26.32,3.67,59.16,59.16,0,0,1,22.13,11.75,52.36,52.36,0,0,1,14.19,18.59,58.7,58.7,0,0,1,4.7,24.18,66,66,0,0,1-5.17,26.36,55.47,55.47,0,0,1-14.91,20.38,61.11,61.11,0,0,1-23.25,12.26A101.14,101.14,0,0,1,714,324.33a100,100,0,0,1-27.68-3.8,59.76,59.76,0,0,1-23-12.31,48.84,48.84,0,0,1-13.89-18.93,62.8,62.8,0,0,1-4.1-23.15q0-18.72,8.67-32.86t25.72-22.09Q696.72,203.26,718.08,203.25ZM716.54,229a33.63,33.63,0,0,0-17.77,4.82,32.07,32.07,0,0,0-12.22,13.42,40.75,40.75,0,0,0-4.27,18.41,35.45,35.45,0,0,0,3.89,16.58A27.34,27.34,0,0,0,698,294a35.33,35.33,0,0,0,16.84,4.23,33.13,33.13,0,0,0,17.38-4.74,30.74,30.74,0,0,0,12-13.33,40.81,40.81,0,0,0,4.15-18,37.27,37.27,0,0,0-3.85-16.87,27.79,27.79,0,0,0-11.28-12A33,33,0,0,0,716.54,229Z" transform="translate(-489 -36)"/><path class="cls-22" d="M801.91,322.11q2.15-20.17,3.09-32.9Q806.8,266,807.7,243t.9-37.55q11.63.17,20.58.17,6.06,0,17.42-.17l-2.06,30.93L842,284.77l-.35,11.87q14.7.25,19.15.26,22.49,0,34-.6l-1.88,25.81q-22.47-.18-42.81-.17Q822.59,321.94,801.91,322.11Z" transform="translate(-489 -36)"/><path class="cls-23" d="M914.13,205.47q13.32.17,18.78.17,6.84,0,18.19-.17l-2.54,36.31Q947.8,252,947.42,261T947,273.4a52.31,52.31,0,0,0,.94,10.85,17.1,17.1,0,0,0,3.41,7.39,15,15,0,0,0,6.87,4.58,27.76,27.76,0,0,0,9.18,1.53,25.58,25.58,0,0,0,7.69-1.12,17.62,17.62,0,0,0,5-2.54,17,17,0,0,0,3.42-3.56,25.23,25.23,0,0,0,3.16-6.11,37.62,37.62,0,0,0,2-8.95q.76-5.6,2.05-25.44,1.11-16.89,1.71-30.93.51-13.64.94-13.63h37.68L1027,266.14q-.09,1.71-.09,2.82-.33,17.78-2.18,25.08a33,33,0,0,1-6.11,12.69q-4.27,5.37-12.48,9.69a62.31,62.31,0,0,1-18.63,6.11,123.87,123.87,0,0,1-21.11,1.8A121.36,121.36,0,0,1,948,323a72,72,0,0,1-14.79-4,53.3,53.3,0,0,1-11.46-6.11,29.86,29.86,0,0,1-6.83-6.62,27,27,0,0,1-3.77-8.08,40.77,40.77,0,0,1-1.53-11.36c0-1.37,0-3.44.17-6.2s.37-6.73.77-11.92L911.64,255q.42-5.39.94-15.81Z" transform="translate(-489 -36)"/><path class="cls-24" d="M1046.72,322.11l2.12-17.26,5.25-59.9,2.63-39.48q15.78.17,24.78.17,7.47,0,22.82-.17,1.1,7.35,1.87,11.15t3.79,14.87q3,11.07,4.86,19.14t5.5,27.64q3.77-13.41,6.85-23.07t7.7-22q4.62-12.3,5.86-16.11t3.38-11.66q12.82.17,25.13.17,8.37,0,23.24-.17-1.62,28.8-2.14,49.47-1.11,40.51-1.11,55.72,0,3.15.17,11.45-11.28-.18-15.8-.17-6.58,0-16.16.17.7-7.69,1.74-36.62t1-37c0-2.33,0-5.58-.17-9.74l-11.21,34.78-16.09,48.54c-7.41-.12-12.5-.17-15.3-.17q-5.29,0-16.23.17l-10.53-47-6.17-25c-.23-1-.49-2.16-.77-3.59s-.74-3.93-1.37-7.52l-2.16,23.67-2.84,48.54-.26,10.94q-11.79-.18-15-.17Q1057.66,321.94,1046.72,322.11Z" transform="translate(-489 -36)"/><path class="cls-25" d="M1213.44,322.11q2.13-22,3.12-36.92t2-39.52q1-24.64,1-32.68l-.09-7.52q20.16.17,48.79.17,26.4,0,46.56-.17l-.17,2.81q-.09,1-.43,7.41l-.51,9.28c-.12,2-.17,4-.17,6.05q-16.5-.69-27.69-.69-12.3,0-16.62,0t-13.46.38l-1,19.65q10.08.27,23.5.26,4.79,0,25.47-.6-.86,10.95-1.62,26.06-14.77-.17-22.72-.17-11.79,0-26.39.6l-1,20.77h9.82q4.35,0,18-.26l17.68-.43q3.93-.08,13.15-.68-1,12.65-1.71,26.15-20.85-.18-45.71-.17l-37.6.08Z" transform="translate(-489 -36)"/><path class="cls-26" d="M1331.53,320.31q-1.11-18.19-2.57-29.14a91.75,91.75,0,0,0,17.08,5.94,61.55,61.55,0,0,0,13.14,1.67q7.46,0,11.86-2.18t4.41-6.45a9.18,9.18,0,0,0-.43-2.78,11.4,11.4,0,0,0-1.63-3,23,23,0,0,0-3.42-3.63l-16.1-14q-5.65-4.78-7.88-6.93a51.31,51.31,0,0,1-7.06-8.11,28.28,28.28,0,0,1-3.69-7.65,28.81,28.81,0,0,1-1.15-8.25,29.27,29.27,0,0,1,1.84-10.21,31.12,31.12,0,0,1,5.51-9.36,31.54,31.54,0,0,1,9.74-7.51,43.22,43.22,0,0,1,13-4.32,86.53,86.53,0,0,1,14.27-1.15,164.37,164.37,0,0,1,31.44,3.33q.25,5.89.6,10.81t1.63,17.22a77.88,77.88,0,0,0-14.36-4.4,60.67,60.67,0,0,0-11.19-1.24,22.33,22.33,0,0,0-11.07,2.47c-2.94,1.66-4.4,3.71-4.4,6.16a8.59,8.59,0,0,0,.68,3.33,15.26,15.26,0,0,0,2.57,3.8,45.2,45.2,0,0,0,5,4.79q3.07,2.61,9.66,7.73l6.15,4.87c1.82,1.48,3.79,3.28,5.9,5.38a58.83,58.83,0,0,1,5.46,6.24,34.45,34.45,0,0,1,3.55,5.64,24.25,24.25,0,0,1,1.84,5.17,25,25,0,0,1,.6,5.6,31.39,31.39,0,0,1-14.1,26.1,43.5,43.5,0,0,1-14.83,6.28,78.12,78.12,0,0,1-17,1.8Q1352.64,324.33,1331.53,320.31Z" transform="translate(-489 -36)"/></g></g></svg>