<svg id="yellow" xmlns="http://www.w3.org/2000/svg" xmlns:xlink="http://www.w3.org/1999/xlink" viewBox="0 0 224.63 139"><defs><style>.cls-1{fill:#e8de27;}.cls-1,.cls-3,.cls-4{stroke:#353535;stroke-width:2px;}.cls-1,.cls-3,.cls-4,.cls-6,.cls-7,.cls-8{stroke-miterlimit:10;}.cls-2{fill:url(#linear-gradient);}.cls-3{fill:#59c8df;}.cls-4{fill:#2d2e8b;}.cls-5{fill:#63103d;}.cls-6,.cls-7{fill:#fff;}.cls-6{stroke:#fee843;stroke-width:3px;}.cls-7{stroke:#686969;stroke-width:2.06px;}.cls-8{stroke:#fff;stroke-width:0.17px;}</style><linearGradient id="linear-gradient" x1="131.74" y1="180.3" x2="131.74" y2="17.61" gradientUnits="userSpaceOnUse"><stop offset="0.6" stop-color="#f1f2f2"/><stop offset="0.6" stop-color="#b51f64"/></linearGradient></defs><title>yellow-left-top</title><g id="yellow-left-top"><path class="cls-1" d="M33.5,17.61H230V3H15.93a8.57,8.57,0,0,0-8.57,8.56V140H33.5Zm-14.8,0a5.14,5.14,0,1,1,5.14-5.14A5.14,5.14,0,0,1,18.7,17.61Z" transform="translate(-6.36 -2)"/><path class="cls-1" d="M125.5,140a42.82,42.82,0,0,1,12.17-83.88H230V17.61H33.5V140Z" transform="translate(-6.36 -2)"/><path class="cls-2" d="M125.5,140a42.82,42.82,0,0,1,12.17-83.88H230V17.61H33.5V140Z" transform="translate(-6.36 -2)"/><path class="cls-3" d="M137.67,56.12A42.82,42.82,0,0,0,125.5,140H230V121.2H191.24V76.71H230V56.12ZM112.51,99a28.26,28.26,0,1,1,28.26,28.26A28.26,28.26,0,0,1,112.51,99Z" transform="translate(-6.36 -2)"/><path class="cls-4" d="M169,99a28.26,28.26,0,1,0-28.26,28.26A28.26,28.26,0,0,0,169,99Zm-33.84,20.19a3.82,3.82,0,0,1-6.46-3.08l.29-3.89a3.82,3.82,0,0,0-3.23-4l-3.91-.59a3.77,3.77,0,0,1-1.57-6.86l3.28-2.15a3.74,3.74,0,0,0,1.15-5l-2-3.42a3.75,3.75,0,0,1,4.42-5.45L131,85.87a3.81,3.81,0,0,0,4.62-2.16L137,80.08a3.82,3.82,0,0,1,7.07,0l1.45,3.63a3.85,3.85,0,0,0,4.7,2.35L154,84.93a3.78,3.78,0,0,1,4.42,5.48l-2,3.42a3.75,3.75,0,0,0,1.15,5l3.27,2.23a3.73,3.73,0,0,1-1.58,6.85l-3.9.43a3.72,3.72,0,0,0-3.22,4l.29,3.89a3.8,3.8,0,0,1-3.58,4,3.84,3.84,0,0,1-2.81-1l-2.89-2.68a3.87,3.87,0,0,0-5.14,0Z" transform="translate(-6.36 -2)"/><circle class="cls-5" cx="18.7" cy="12.47" r="5.14" transform="translate(-9.7 14.88) rotate(-45)"/><path class="cls-6" d="M143.22,116.5l2.89,2.68a3.84,3.84,0,0,0,2.81,1,3.8,3.8,0,0,0,3.58-4l-.29-3.89a3.72,3.72,0,0,1,3.22-4l3.9-.43a3.73,3.73,0,0,0,1.58-6.85l-3.27-2.23a3.75,3.75,0,0,1-1.15-5l2-3.42A3.78,3.78,0,0,0,154,84.93l-3.78,1.13a3.85,3.85,0,0,1-4.7-2.35l-1.45-3.63a3.82,3.82,0,0,0-7.07,0l-1.46,3.63A3.81,3.81,0,0,1,131,85.87l-3.77-1.17a3.75,3.75,0,0,0-4.42,5.45l2,3.42a3.74,3.74,0,0,1-1.15,5l-3.28,2.15a3.77,3.77,0,0,0,1.57,6.86l3.91.59a3.82,3.82,0,0,1,3.23,4l-.29,3.89a3.82,3.82,0,0,0,6.46,3.08l2.89-2.64A3.87,3.87,0,0,1,143.22,116.5Z" transform="translate(-6.36 -2)"/><path class="cls-7" d="M227.2,76.71H207.57a61,61,0,0,1,0,44.49H227.2a61,61,0,0,1,0-44.49Z" transform="translate(-6.36 -2)"/><path d="M227.2,76.71a61,61,0,0,0,0,44.49H230V76.71Z" transform="translate(-6.36 -2)"/><path d="M207.57,76.71h-7.75a53.84,53.84,0,0,1,0,44.49h7.75a61,61,0,0,0,0-44.49Z" transform="translate(-6.36 -2)"/><path class="cls-8" d="M199.82,76.71h-8.58v3.83a44.47,44.47,0,0,1,0,36.82v3.84h8.58a53.84,53.84,0,0,0,0-44.49Z" transform="translate(-6.36 -2)"/><path class="cls-8" d="M191.24,80.54v36.82a44.47,44.47,0,0,0,0-36.82Z" transform="translate(-6.36 -2)"/></g></svg>