<svg id="yellow" xmlns="http://www.w3.org/2000/svg" xmlns:xlink="http://www.w3.org/1999/xlink" viewBox="0 0 224.63 139"><defs><style>.cls-1{fill:#e8de27;}.cls-1,.cls-3{stroke:#353535;stroke-miterlimit:10;stroke-width:2px;}.cls-2{fill:url(#linear-gradient);}.cls-3{fill:#59c8df;}.cls-4{fill:#63103d;}.cls-5{fill:#fee843;}.cls-6{fill:#b82c81;}</style><linearGradient id="linear-gradient" x1="328.24" y1="180.3" x2="328.24" y2="17.61" gradientUnits="userSpaceOnUse"><stop offset="0.6" stop-color="#f1f2f2"/><stop offset="0.6" stop-color="#b51f64"/></linearGradient></defs><title>yellow-right-bottom</title><g id="yellow-right-bottom"><path class="cls-1" d="M426.49,140v40.3H230v13.32H370.52a5.54,5.54,0,0,1,5.24,4.55l17,75.82H230v3H444.06a8.56,8.56,0,0,0,8.56-8.56V140Zm14.79,132.27a5.14,5.14,0,1,1,5.14-5.13A5.14,5.14,0,0,1,441.28,272.27Z" transform="translate(-228.99 -139)"/><path class="cls-1" d="M322.3,141.76H230V180.3h196.5V140h-92A42.82,42.82,0,0,1,322.3,141.76Z" transform="translate(-228.99 -139)"/><path class="cls-2" d="M322.3,141.76H230V180.3h196.5V140h-92A42.82,42.82,0,0,1,322.3,141.76Z" transform="translate(-228.99 -139)"/><path class="cls-3" d="M235.13,205.28a5.14,5.14,0,0,1-5.14,5.14V274H392.75l-17-75.82a5.54,5.54,0,0,0-5.24-4.55H230v6.52A5.14,5.14,0,0,1,235.13,205.28Zm130,51.58A5.14,5.14,0,1,1,360,262,5.14,5.14,0,0,1,365.13,256.86Zm-44.65-23.05a5.14,5.14,0,1,1-5.14,5.14A5.14,5.14,0,0,1,320.48,233.81Z" transform="translate(-228.99 -139)"/><path class="cls-3" d="M230,140v1.76H322.3A42.82,42.82,0,0,0,334.46,140Z" transform="translate(-228.99 -139)"/><circle class="cls-4" cx="212.29" cy="128.14" r="5.14"/><circle class="cls-5" cx="365.13" cy="262" r="5.14" transform="translate(-245.65 360.07) rotate(-67.5)"/><circle class="cls-6" cx="91.49" cy="99.95" r="5.14"/><path class="cls-6" d="M235.13,205.28a5.14,5.14,0,0,0-5.14-5.14v10.28A5.14,5.14,0,0,0,235.13,205.28Z" transform="translate(-228.99 -139)"/></g></svg>